<?xml version="1.0" encoding="UTF-8"?>
<svg version="1.1" xmlns="http://www.w3.org/2000/svg" width="797" height="550">
<path d="M0 0 C263.01 0 526.02 0 797 0 C797 181.5 797 363 797 550 C533.99 550 270.98 550 0 550 C0 368.5 0 187 0 0 Z " fill="#503BF6" transform="translate(0,0)"/>
<path d="M0 0 C211.2 0 422.4 0 640 0 C640 102.63 640 205.26 640 311 C428.8 311 217.6 311 0 311 C0 208.37 0 105.74 0 0 Z " fill="#5037F6" transform="translate(32,168)"/>
<path d="M0 0 C177.54 0 355.08 0 538 0 C538 17.16 538 34.32 538 52 C360.46 52 182.92 52 0 52 C0 34.84 0 17.68 0 0 Z " fill="#FDFDFD" transform="translate(83,290)"/>
<path d="M0 0 C82.5 0 165 0 250 0 C250 16.5 250 33 250 50 C167.5 50 85 50 0 50 C0 33.5 0 17 0 0 Z " fill="#FBFB00" transform="translate(82,379)"/>
<path d="M0 0 C211.2 0 422.4 0 640 0 C640 102.63 640 205.26 640 311 C428.8 311 217.6 311 0 311 C0 208.37 0 105.74 0 0 Z M2 2 C2 103.31 2 204.62 2 309 C211.88 309 421.76 309 638 309 C638 207.69 638 106.38 638 2 C428.12 2 218.24 2 2 2 Z " fill="#000000" transform="translate(32,168)"/>
<path d="M0 0 C82.5 0 165 0 250 0 C250 16.5 250 33 250 50 C167.5 50 85 50 0 50 C0 33.5 0 17 0 0 Z M2 2 C2 17.18 2 32.36 2 48 C83.18 48 164.36 48 248 48 C248 32.82 248 17.64 248 2 C166.82 2 85.64 2 2 2 Z " fill="#FFFFFF" transform="translate(82,379)"/>
<path d="M0 0 C0.74056641 0.02255859 1.48113281 0.04511719 2.24414062 0.06835938 C4.05947357 0.1269185 5.87375681 0.21659114 7.6875 0.3125 C7.77495946 3.7081697 7.82804444 7.10354773 7.875 10.5 C7.90013672 11.45970703 7.92527344 12.41941406 7.95117188 13.40820312 C8.04339035 22.29191639 8.04339035 22.29191639 4.6875 26.3125 C0.69524716 29.8208434 -3.13752316 29.60554693 -8.203125 29.515625 C-10.3125 29.3125 -10.3125 29.3125 -11.3125 28.3125 C-11.3125 26.6625 -11.3125 25.0125 -11.3125 23.3125 C-7.6825 23.3125 -4.0525 23.3125 -0.3125 23.3125 C-0.3125 21.9925 -0.3125 20.6725 -0.3125 19.3125 C-0.6425 19.6425 -0.9725 19.9725 -1.3125 20.3125 C-8.38496377 21.00815217 -8.38496377 21.00815217 -11.8125 18.4375 C-13.87480458 14.14103213 -14.48590981 9.9769862 -13.3125 5.3125 C-9.40933024 -0.09596198 -6.18443206 -0.35923868 0 0 Z " fill="#F7F6FE" transform="translate(65.3125,35.6875)"/>
<path d="M0 0 C2.97 0 5.94 0 9 0 C10.28556666 3.80731355 11.56721183 7.61592191 12.84521484 11.42578125 C13.28065756 12.72204323 13.71717592 14.01794438 14.15478516 15.31347656 C14.78309327 17.17418041 15.40723259 19.03629031 16.03125 20.8984375 C16.40830078 22.01911621 16.78535156 23.13979492 17.17382812 24.29443359 C18 27 18 27 18 29 C15.69 29 13.38 29 11 29 C10.34 27.35 9.68 25.7 9 24 C5.7 23.67 2.4 23.34 -1 23 C-1.33 24.98 -1.66 26.96 -2 29 C-4.64 29 -7.28 29 -10 29 C-7.24777233 19.12435954 -3.59469585 9.59242125 0 0 Z " fill="#F7F5FE" transform="translate(32,27)"/>
<path d="M0 0 C2.90194136 1.23486866 4.40315584 2.26750943 6.375 4.6875 C7.33887993 8.25385575 7.023931 11.46344399 6 15 C3.70734505 17.88430784 1.750634 19.79019907 -1.98828125 20.23828125 C-6.15410332 20.3713075 -8.37869331 20.38831668 -12 18.125 C-15.27766938 14.64247628 -15.47351314 11.92031496 -15.3984375 7.265625 C-15 5 -15 5 -12.5625 1.9375 C-8.6260555 -0.75831152 -4.59397565 -0.77978922 0 0 Z " fill="#F8F7FE" transform="translate(268,36)"/>
<path d="M0 0 C0.66 0 1.32 0 2 0 C2 0.99 2 1.98 2 3 C6.62 3 11.24 3 16 3 C16 2.01 16 1.02 16 0 C16.66 0 17.32 0 18 0 C18 0.99 18 1.98 18 3 C19.32 3.33 20.64 3.66 22 4 C22.02886751 8.14581887 22.04675327 12.29161216 22.0625 16.4375 C22.07087891 17.62150391 22.07925781 18.80550781 22.08789062 20.02539062 C22.09272461 21.71245117 22.09272461 21.71245117 22.09765625 23.43359375 C22.10551147 24.99678345 22.10551147 24.99678345 22.11352539 26.59155273 C22 29 22 29 21 30 C19.23140807 30.09946453 17.45888549 30.13080217 15.6875 30.1328125 C14.61242187 30.13410156 13.53734375 30.13539063 12.4296875 30.13671875 C11.29789063 30.13285156 10.16609375 30.12898438 9 30.125 C7.86820313 30.12886719 6.73640625 30.13273437 5.5703125 30.13671875 C4.49523437 30.13542969 3.42015625 30.13414062 2.3125 30.1328125 C1.31863281 30.13168457 0.32476563 30.13055664 -0.69921875 30.12939453 C-3 30 -3 30 -4 29 C-4.08737645 27.14630389 -4.10698153 25.28932459 -4.09765625 23.43359375 C-4.09443359 22.30888672 -4.09121094 21.18417969 -4.08789062 20.02539062 C-4.07951172 18.84138672 -4.07113281 17.65738281 -4.0625 16.4375 C-4.05798828 15.24962891 -4.05347656 14.06175781 -4.04882812 12.83789062 C-4.03699675 9.89187774 -4.02051287 6.94596319 -4 4 C-2.68 3.67 -1.36 3.34 0 3 C0 2.01 0 1.02 0 0 Z M-2 10 C-2 15.61 -2 21.22 -2 27 C5.26 27 12.52 27 20 27 C20 21.39 20 15.78 20 10 C12.74 10 5.48 10 -2 10 Z " fill="#0A0A0A" transform="translate(592,300)"/>
<path d="M0 0 C1.29550781 -0.03867187 1.29550781 -0.03867187 2.6171875 -0.078125 C5.66067378 0.32008816 6.95928844 1.09400015 9.125 3.25 C10.56928175 6.66788142 10.22409598 10.34040155 10.1875 14 C10.17847656 15.17046875 10.16945312 16.3409375 10.16015625 17.546875 C10.14855469 18.43890625 10.13695312 19.3309375 10.125 20.25 C7.125 20.25 4.125 20.25 1.125 20.25 C-0.009375 20.311875 -1.14375 20.37375 -2.3125 20.4375 C-5.875 20.25 -5.875 20.25 -7.8125 19.125 C-9.37922245 16.36019567 -9.26476435 14.36811483 -8.875 11.25 C-7.24342328 9.06938476 -6.28942366 8.34376425 -3.61328125 7.73828125 C-2.81277344 7.68027344 -2.01226562 7.62226562 -1.1875 7.5625 C-0.37925781 7.49675781 0.42898437 7.43101563 1.26171875 7.36328125 C2.18404297 7.30720703 2.18404297 7.30720703 3.125 7.25 C3.125 6.59 3.125 5.93 3.125 5.25 C-0.3969721 5.16995518 -3.49481469 5.20994298 -6.875 6.25 C-6.875 4.6 -6.875 2.95 -6.875 1.25 C-4.43545342 0.03022671 -2.72194151 0.04846187 0 0 Z " fill="#F4F1FE" transform="translate(136.875,35.75)"/>
<path d="M0 0 C2.31 0 4.62 0 7 0 C7.33 4.62 7.66 9.24 8 14 C9.32 14 10.64 14 12 14 C12.33 9.38 12.66 4.76 13 0 C15.31 0 17.62 0 20 0 C20 6.6 20 13.2 20 20 C16.66666667 20 13.33333333 20 10 20 C9.01 20.04125 8.02 20.0825 7 20.125 C4 20 4 20 1 18 C-0.2062252 14.38132441 -0.10816918 11.07493749 -0.0625 7.3125 C-0.05798828 6.61060547 -0.05347656 5.90871094 -0.04882812 5.18554688 C-0.03706927 3.45699462 -0.01913454 1.72848635 0 0 Z " fill="#F5F3FE" transform="translate(181,36)"/>
<path d="M0 0 C2.50160818 1.87620613 3.61945652 3.23891303 5 6 C5 7.98 5 9.96 5 12 C-0.94 12.495 -0.94 12.495 -7 13 C-5.99163938 14.23267348 -5.99163938 14.23267348 -3.93359375 14.09765625 C-3.10988281 14.08605469 -2.28617188 14.07445312 -1.4375 14.0625 C-0.61121094 14.05347656 0.21507813 14.04445313 1.06640625 14.03515625 C1.70449219 14.02355469 2.34257813 14.01195312 3 14 C3 15.65 3 17.3 3 19 C-0.72746652 20.86373326 -4.94079368 20.55526879 -9 20 C-12.73325038 17.48577015 -13.74796824 15.86635918 -15 11.5625 C-15 7.46905764 -14.22004022 5.40934749 -12 2 C-7.9983959 -0.66773607 -4.70568852 -0.71478813 0 0 Z " fill="#F6F4FE" transform="translate(91,36)"/>
<path d="M0 0 C0.86367187 -0.03738281 1.72734375 -0.07476562 2.6171875 -0.11328125 C5.125 0.3125 5.125 0.3125 7.4296875 1.81640625 C9.80522039 5.31402265 9.56172772 8.49758117 9.375 12.5625 C9.35695312 13.30757812 9.33890625 14.05265625 9.3203125 14.8203125 C9.27335649 16.65159701 9.20161652 18.48221649 9.125 20.3125 C6.125 20.3125 3.125 20.3125 0.125 20.3125 C-1.6384375 20.374375 -1.6384375 20.374375 -3.4375 20.4375 C-6.875 20.3125 -6.875 20.3125 -8.875 18.3125 C-9.44091143 12.08747425 -9.44091143 12.08747425 -7.6484375 9.6328125 C-5.43245124 7.98302538 -3.92446398 7.82333072 -1.1875 7.625 C-0.37925781 7.55925781 0.42898437 7.49351563 1.26171875 7.42578125 C2.18404297 7.36970703 2.18404297 7.36970703 3.125 7.3125 C3.125 6.6525 3.125 5.9925 3.125 5.3125 C-0.175 5.6425 -3.475 5.9725 -6.875 6.3125 C-6.875 4.6625 -6.875 3.0125 -6.875 1.3125 C-4.44538821 0.0976941 -2.71115884 0.07642733 0 0 Z " fill="#F8F6FE" transform="translate(224.875,35.6875)"/>
<path d="M0 0 C0.66 0 1.32 0 2 0 C2 1.32 2 2.64 2 4 C3.32 4.33 4.64 4.66 6 5 C5.67 9.62 5.34 14.24 5 19 C-0.94 19 -6.88 19 -13 19 C-13.87890625 8.16015625 -13.87890625 8.16015625 -14 5 C-13 4 -13 4 -10.05859375 3.90234375 C-8.26615234 3.91974609 -8.26615234 3.91974609 -6.4375 3.9375 C-4.64119141 3.95103516 -4.64119141 3.95103516 -2.80859375 3.96484375 C-1.88175781 3.97644531 -0.95492188 3.98804688 0 4 C0 2.68 0 1.36 0 0 Z " fill="#E0A25F" transform="translate(376,505)"/>
<path d="M0 0 C0.99 0 1.98 0 3 0 C3 8.58 3 17.16 3 26 C2.01 26 1.02 26 0 26 C-0.33 25.34 -0.66 24.68 -1 24 C-1.99 24.66 -2.98 25.32 -4 26 C-6.4375 26.4375 -6.4375 26.4375 -9 26 C-12.06011194 23.27071097 -12.91022982 21.55856999 -13.5625 17.5 C-13 14 -13 14 -10.9375 11 C-8 9 -8 9 -4.1875 9.1875 C-3.135625 9.455625 -2.08375 9.72375 -1 10 C-0.67 6.7 -0.34 3.4 0 0 Z " fill="#14314B" transform="translate(120,304)"/>
<path d="M0 0 C0.99 0 1.98 0 3 0 C3 8.58 3 17.16 3 26 C2.01 26 1.02 26 0 26 C-0.33 25.34 -0.66 24.68 -1 24 C-1.99 24.66 -2.98 25.32 -4 26 C-6.4375 26.4375 -6.4375 26.4375 -9 26 C-12.06011194 23.27071097 -12.91022982 21.55856999 -13.5625 17.5 C-13 14 -13 14 -10.9375 11 C-8 9 -8 9 -4.1875 9.1875 C-3.135625 9.455625 -2.08375 9.72375 -1 10 C-0.67 6.7 -0.34 3.4 0 0 Z " fill="#14314B" transform="translate(100,304)"/>
<path d="M0 0 C0 1.98 0 3.96 0 6 C1.32 6 2.64 6 4 6 C4 7.65 4 9.3 4 11 C2.68 11 1.36 11 0 11 C0 14.3 0 17.6 0 21 C1.32 21 2.64 21 4 21 C4 22.65 4 24.3 4 26 C-3.43147208 26.36548223 -3.43147208 26.36548223 -5.75 24.875 C-7.56032474 22.1595129 -7.29152862 20.03738715 -7.1875 16.8125 C-7.16042969 15.72582031 -7.13335937 14.63914062 -7.10546875 13.51953125 C-7.07066406 12.68808594 -7.03585938 11.85664062 -7 11 C-7.99 11 -8.98 11 -10 11 C-10 9.35 -10 7.7 -10 6 C-9.01 6 -8.02 6 -7 6 C-7 4.35 -7 2.7 -7 1 C-4 0 -4 0 0 0 Z " fill="#F7F5FE" transform="translate(247,30)"/>
<path d="M0 0 C0.99773437 0.02320313 1.99546875 0.04640625 3.0234375 0.0703125 C4.52777344 0.09738281 4.52777344 0.09738281 6.0625 0.125 C6.83335937 0.14820313 7.60421875 0.17140625 8.3984375 0.1953125 C7.7384375 0.8553125 7.0784375 1.5153125 6.3984375 2.1953125 C5.99796306 4.51806427 5.6587271 6.85270607 5.3984375 9.1953125 C3.0884375 9.5253125 0.7784375 9.8553125 -1.6015625 10.1953125 C-1.6015625 10.8553125 -1.6015625 11.5153125 -1.6015625 12.1953125 C-0.3434375 12.1334375 0.9146875 12.0715625 2.2109375 12.0078125 C4.88547151 12.01729666 6.11296748 12.03095097 8.4609375 13.3828125 C9.3984375 15.1953125 9.3984375 15.1953125 9.2734375 17.7578125 C8.3984375 20.1953125 8.3984375 20.1953125 5.3984375 22.1953125 C3.20703125 22.4609375 3.20703125 22.4609375 0.8359375 22.4453125 C-0.34162109 22.45304687 -0.34162109 22.45304687 -1.54296875 22.4609375 C-3.6015625 22.1953125 -3.6015625 22.1953125 -5.6015625 20.1953125 C-5.26224251 17.68434458 -4.63703297 15.32655325 -3.9765625 12.8828125 C-3.61772156 10.31111908 -3.77462906 8.54600221 -4.1640625 6.0078125 C-4.3084375 4.7496875 -4.4528125 3.4915625 -4.6015625 2.1953125 C-2.6015625 0.1953125 -2.6015625 0.1953125 0 0 Z " fill="#EBE4FD" transform="translate(256.6015625,230.8046875)"/>
<path d="M0 0 C0.9075 0.00257812 1.815 0.00515625 2.75 0.0078125 C4.11125 0.00394531 4.11125 0.00394531 5.5 0 C7.75 0.1328125 7.75 0.1328125 8.75 1.1328125 C8.79063832 2.79898365 8.792721 4.46669345 8.75 6.1328125 C7.450625 6.1121875 6.15125 6.0915625 4.8125 6.0703125 C3.45834367 6.04881796 2.10243917 6.06133051 0.75 6.1328125 C-0.59404775 7.25117474 -0.59404775 7.25117474 -0.375 10.1328125 C-0.59404775 13.01445026 -0.59404775 13.01445026 0.75 14.1328125 C3.42058851 14.27396411 6.07432238 14.17528357 8.75 14.1328125 C8.75 15.7828125 8.75 17.4328125 8.75 19.1328125 C5.29260443 20.86151029 1.53024432 20.62248145 -2.25 20.1328125 C-5.12029869 18.33887582 -6.74131638 17.15017974 -8.25 14.1328125 C-8.75698467 8.97846838 -8.75698467 8.97846838 -8.25 6.1328125 C-5.8125 3.1953125 -5.8125 3.1953125 -3.25 1.1328125 C-2.25 0.1328125 -2.25 0.1328125 0 0 Z " fill="#F6F3FE" transform="translate(117.25,35.8671875)"/>
<path d="M0 0 C2.31 0 4.62 0 7 0 C7 9.9 7 19.8 7 30 C4.69 30 2.38 30 0 30 C0 20.1 0 10.2 0 0 Z " fill="#F4EEFE" transform="translate(151,26)"/>
<path d="M0 0 C1.18142578 0.00966797 1.18142578 0.00966797 2.38671875 0.01953125 C4.3125 0.1875 4.3125 0.1875 5.3125 1.1875 C5.35313832 2.85367115 5.355221 4.52138095 5.3125 6.1875 C4.013125 6.166875 2.71375 6.14625 1.375 6.125 C0.02084367 6.10350546 -1.33506083 6.11601801 -2.6875 6.1875 C-4.03154775 7.30586224 -4.03154775 7.30586224 -3.8125 10.1875 C-4.03154775 13.06913776 -4.03154775 13.06913776 -2.6875 14.1875 C-0.01691149 14.32865161 2.63682238 14.22997107 5.3125 14.1875 C5.355221 15.85361905 5.35313832 17.52132885 5.3125 19.1875 C3.67093264 20.82906736 1.82034199 20.47565992 -0.4375 20.5625 C-4.49787168 20.53926468 -5.40390463 20.4074311 -8.75 17.8125 C-11.58320668 13.97396191 -12.06280664 11.97265965 -11.6875 7.1875 C-9.1479965 1.60059231 -6.04039454 -0.10982536 0 0 Z " fill="#F6F5FE" transform="translate(172.6875,35.8125)"/>
<path d="M0 0 C3.5 0.5625 3.5 0.5625 5.9375 2.1875 C7.98384007 5.29793691 8.09807728 6.89927666 7.5 10.5625 C5.9375 13.4375 5.9375 13.4375 3.5 15.5625 C0.02844534 16.04973574 -2.27710642 16.25547303 -5.375 14.5 C-7.13658168 11.46616489 -7.43977486 9.05555789 -7.5 5.5625 C-5.47546599 1.59778757 -4.42267232 0.71078662 0 0 Z " fill="#E1E4FE" transform="translate(190.5,230.4375)"/>
<path d="M0 0 C1.98 0 3.96 0 6 0 C6 9.9 6 19.8 6 30 C4.02 30 2.04 30 0 30 C0 20.1 0 10.2 0 0 Z " fill="#FFFCFE" transform="translate(206,26)"/>
<path d="M0 0 C4.66666667 0 9.33333333 0 14 0 C14 1.98 14 3.96 14 6 C12.35 6 10.7 6 9 6 C7.64908472 8.70183055 7.66141942 11.11808206 7.4375 14.125 C7.35371094 15.22070312 7.26992188 16.31640625 7.18359375 17.4453125 C7.12300781 18.28835937 7.06242187 19.13140625 7 20 C4.69 20 2.38 20 0 20 C0 13.4 0 6.8 0 0 Z " fill="#F1F2FE" transform="translate(278,36)"/>
<path d="M0 0 C0.66 0 1.32 0 2 0 C2.33 0.66 2.66 1.32 3 2 C3.66 1.34 4.32 0.68 5 0 C8.73296326 -0.38286803 9.77626323 -0.14915785 13 2 C13.99 1.34 14.98 0.68 16 0 C19.0625 0.1875 19.0625 0.1875 22 1 C24.42130331 4.63195496 24.21022785 6.38349348 24.125 10.6875 C24.10695312 11.86699219 24.08890625 13.04648437 24.0703125 14.26171875 C24.04710937 15.16535156 24.02390625 16.06898438 24 17 C23.01 17 22.02 17 21 17 C20.505 10.565 20.505 10.565 20 4 C16.36380344 2.91915479 16.36380344 2.91915479 14 3 C13.67 7.62 13.34 12.24 13 17 C12.01 17 11.02 17 10 17 C10 12.38 10 7.76 10 3 C8.35 3 6.7 3 5 3 C2.31907309 5.68092691 2.61329743 7.39167363 2.375 11.125 C2.30023438 12.22070312 2.22546875 13.31640625 2.1484375 14.4453125 C2.09945312 15.28835938 2.05046875 16.13140625 2 17 C1.34 17 0.68 17 0 17 C0 11.39 0 5.78 0 0 Z " fill="#332527" transform="translate(174,313)"/>
<path d="M0 0 C0.90105469 0.02707031 1.80210938 0.05414063 2.73046875 0.08203125 C3.76107422 0.13423828 3.76107422 0.13423828 4.8125 0.1875 C4.8125 2.4975 4.8125 4.8075 4.8125 7.1875 C4.1525 7.1875 3.4925 7.1875 2.8125 7.1875 C2.1525 5.8675 1.4925 4.5475 0.8125 3.1875 C-0.8375 3.1875 -2.4875 3.1875 -4.1875 3.1875 C-3.99108387 5.12920385 -3.99108387 5.12920385 -3.1875 7.1875 C-1.38026027 8.49514044 -1.38026027 8.49514044 0.8125 9.375 C4.77690129 11.15190129 4.77690129 11.15190129 5.8125 12.1875 C5.5625 15.625 5.5625 15.625 4.8125 19.1875 C1.39155758 21.46812828 0.13062778 21.40675007 -3.875 21.3125 C-5.36580078 21.28542969 -5.36580078 21.28542969 -6.88671875 21.2578125 C-7.64597656 21.23460937 -8.40523438 21.21140625 -9.1875 21.1875 C-9.1875 18.8775 -9.1875 16.5675 -9.1875 14.1875 C-6.1875 15.1875 -6.1875 15.1875 -4.1875 18.1875 C-1.10384129 18.4377157 -1.10384129 18.4377157 1.8125 18.1875 C1.61949819 16.2292166 1.61949819 16.2292166 0.8125 14.1875 C-1.01214963 13.09596538 -1.01214963 13.09596538 -3.1875 12.375 C-5.36328125 11.390625 -5.36328125 11.390625 -7.1875 10.1875 C-8.375 6.625 -8.375 6.625 -8.1875 3.1875 C-5.88183829 -0.11930429 -3.87787715 -0.15108612 0 0 Z " fill="#F1EDFE" transform="translate(92.1875,224.8125)"/>
<path d="M0 0 C0.66 0 1.32 0 2 0 C2 1.32 2 2.64 2 4 C3.32 4.33 4.64 4.66 6 5 C6 6.98 6 8.96 6 11 C3.2291017 11.02696009 0.4584655 11.04681952 -2.3125 11.0625 C-3.49102539 11.07506836 -3.49102539 11.07506836 -4.69335938 11.08789062 C-5.45068359 11.09111328 -6.20800781 11.09433594 -6.98828125 11.09765625 C-8.03302612 11.10551147 -8.03302612 11.10551147 -9.09887695 11.11352539 C-11 11 -11 11 -14 10 C-14.042721 8.33388095 -14.04063832 6.66617115 -14 5 C-13 4 -13 4 -10.05859375 3.90234375 C-8.26615234 3.91974609 -8.26615234 3.91974609 -6.4375 3.9375 C-4.64119141 3.95103516 -4.64119141 3.95103516 -2.80859375 3.96484375 C-1.88175781 3.97644531 -0.95492188 3.98804688 0 4 C0 2.68 0 1.36 0 0 Z " fill="#F0D3A7" transform="translate(376,505)"/>
<path d="M0 0 C3.5625 0.1875 3.5625 0.1875 5.5625 2.1875 C5.7578125 4.7890625 5.7578125 4.7890625 5.6875 7.8125 C5.66945312 8.81539062 5.65140625 9.81828125 5.6328125 10.8515625 C5.59800781 12.00785156 5.59800781 12.00785156 5.5625 13.1875 C6.2225 13.1875 6.8825 13.1875 7.5625 13.1875 C7.5625 13.8475 7.5625 14.5075 7.5625 15.1875 C5.60446493 15.24139087 3.64601091 15.28024217 1.6875 15.3125 C0.59695312 15.33570313 -0.49359375 15.35890625 -1.6171875 15.3828125 C-4.4375 15.1875 -4.4375 15.1875 -6.4375 13.1875 C-6.4375 11.25 -6.4375 11.25 -5.4375 9.1875 C-0.40178571 6.1875 -0.40178571 6.1875 2.5625 6.1875 C2.2325 5.1975 1.9025 4.2075 1.5625 3.1875 C0.5725 2.8575 -0.4175 2.5275 -1.4375 2.1875 C-1.4375 3.1775 -1.4375 4.1675 -1.4375 5.1875 C-2.7575 5.1875 -4.0775 5.1875 -5.4375 5.1875 C-4.31932898 0.23559976 -4.31932898 0.23559976 0 0 Z " fill="#F6FDFE" transform="translate(242.4375,230.8125)"/>
<path d="M0 0 C5.45454545 -0.36363636 5.45454545 -0.36363636 7.6875 1.125 C9.58347379 3.83353399 9.29278753 5.92358655 9.1875 9.1875 C9.16042969 10.27417969 9.13335937 11.36085938 9.10546875 12.48046875 C9.07066406 13.31191406 9.03585938 14.14335937 9 15 C7.37536158 15.05395478 5.75021459 15.09277195 4.125 15.125 C3.22007812 15.14820313 2.31515625 15.17140625 1.3828125 15.1953125 C-1 15 -1 15 -3 13 C-2.625 10.375 -2.625 10.375 -2 8 C3.75 6 3.75 6 6 6 C5.67 5.01 5.34 4.02 5 3 C3.02 3 1.04 3 -1 3 C-0.67 2.01 -0.34 1.02 0 0 Z " fill="#192F00" transform="translate(170,401)"/>
<path d="M0 0 C3.5 0.4375 3.5 0.4375 5.4375 1.6875 C6.5 3.4375 6.5 3.4375 6.5 7.4375 C3.2 7.4375 -0.1 7.4375 -3.5 7.4375 C-2.84 9.0875 -2.18 10.7375 -1.5 12.4375 C1.54386724 12.51976668 3.57175348 12.41358217 6.5 11.4375 C5.5 14.4375 5.5 14.4375 3.5 15.4375 C-2.79084967 16.00939542 -2.79084967 16.00939542 -5.4375 13.875 C-6.89859421 10.52307799 -6.8879235 8.05811933 -6.5 4.4375 C-4.89019549 0.74441907 -4.04233618 0.50529202 0 0 Z " fill="#F3ECFD" transform="translate(273.5,230.5625)"/>
<path d="M0 0 C1.875 1.25 1.875 1.25 3 3 C3 4.32 3 5.64 3 7 C-0.3 7 -3.6 7 -7 7 C-6.34 8.65 -5.68 10.3 -5 12 C-1.95613276 12.08226668 0.07175348 11.97608217 3 11 C2 14 2 14 0 15 C-3.54231061 15.38503376 -5.36257342 15.41935959 -8.375 13.4375 C-10.62340519 10.06489221 -10.56783945 7.97487617 -10 4 C-7.25744073 -0.1138389 -4.81424895 -0.7170158 0 0 Z " fill="#E4E4FE" transform="translate(133,231)"/>
<path d="M0 0 C1.875 1.25 1.875 1.25 3 3 C3 4.32 3 5.64 3 7 C-0.3 7 -3.6 7 -7 7 C-6.34 8.65 -5.68 10.3 -5 12 C-1.95613276 12.08226668 0.07175348 11.97608217 3 11 C2 14 2 14 0 15 C-3.54231061 15.38503376 -5.36257342 15.41935959 -8.375 13.4375 C-10.62340519 10.06489221 -10.56783945 7.97487617 -10 4 C-7.25744073 -0.1138389 -4.81424895 -0.7170158 0 0 Z " fill="#E7DEFD" transform="translate(110,231)"/>
<path d="M0 0 C2.05078125 0.03255208 4.1015625 0.06510417 6.15234375 0.09765625 C6.20640497 2.03485003 6.245164 3.97247546 6.27734375 5.91015625 C6.30054688 6.98910156 6.32375 8.06804688 6.34765625 9.1796875 C6.15234375 12.09765625 6.15234375 12.09765625 4.15234375 15.09765625 C0.52734375 15.28515625 0.52734375 15.28515625 -2.84765625 15.09765625 C-2.84765625 14.43765625 -2.84765625 13.77765625 -2.84765625 13.09765625 C-0.86765625 13.09765625 1.11234375 13.09765625 3.15234375 13.09765625 C3.15234375 12.10765625 3.15234375 11.11765625 3.15234375 10.09765625 C2.36859375 10.13890625 1.58484375 10.18015625 0.77734375 10.22265625 C-1.84765625 10.09765625 -1.84765625 10.09765625 -3.84765625 8.09765625 C-3.15194899 0.1665935 -3.15194899 0.1665935 0 0 Z " fill="#DED0FD" transform="translate(199.84765625,510.90234375)"/>
<path d="M0 0 C2 3 2 3 2 7 C-1.63 7 -5.26 7 -9 7 C-8.01 8.32 -7.02 9.64 -6 11 C-2.37436186 11.33380814 -2.37436186 11.33380814 1 11 C1 11.66 1 12.32 1 13 C-4.14285714 14.11428571 -4.14285714 14.11428571 -7 14 C-9.5625 12 -9.5625 12 -11 9 C-10.93940468 5.48547155 -10.60267457 3.07142146 -8.875 0 C-5.75687573 -1.66299961 -3.31216241 -0.84309589 0 0 Z " fill="#0C1100" transform="translate(264,402)"/>
<path d="M0 0 C1 1 1 1 1.09765625 3.94140625 C1.08605469 5.13636719 1.07445312 6.33132813 1.0625 7.5625 C1.05347656 8.76003906 1.04445312 9.95757812 1.03515625 11.19140625 C1.02355469 12.11824219 1.01195312 13.04507812 1 14 C0.01 13.67 -0.98 13.34 -2 13 C-4.00109278 13.32670903 -6.00116131 13.65977214 -8 14 C-8.66 13.67 -9.32 13.34 -10 13 C-10.25 10.6875 -10.25 10.6875 -10 8 C-7.76261752 5.59688549 -6.53659096 5.03658575 -3.25 4.8125 C-2.13625 4.9053125 -2.13625 4.9053125 -1 5 C-1.33 4.01 -1.66 3.02 -2 2 C-4.31 2 -6.62 2 -9 2 C-9 1.34 -9 0.68 -9 0 C-5.90842747 -1.54578627 -3.31526981 -0.60277633 0 0 Z " fill="#171800" transform="translate(238,402)"/>
<path d="M0 0 C2.875 0.6875 2.875 0.6875 3.875 1.6875 C4.33653846 8.84134615 4.33653846 8.84134615 2.75 11.75 C-0.115802 13.182901 -2.12048152 12.53660305 -5.125 11.6875 C-6.23147808 9.47454384 -6.32088368 8.14077301 -6.375 5.6875 C-6.40078125 4.98625 -6.4265625 4.285 -6.453125 3.5625 C-6.34484375 2.94375 -6.2365625 2.325 -6.125 1.6875 C-3.125 -0.3125 -3.125 -0.3125 0 0 Z " fill="#F0F0EC" transform="translate(116.125,315.3125)"/>
<path d="M0 0 C2.875 0.6875 2.875 0.6875 3.875 1.6875 C4.33653846 8.84134615 4.33653846 8.84134615 2.75 11.75 C-0.115802 13.182901 -2.12048152 12.53660305 -5.125 11.6875 C-6.23147808 9.47454384 -6.32088368 8.14077301 -6.375 5.6875 C-6.40078125 4.98625 -6.4265625 4.285 -6.453125 3.5625 C-6.34484375 2.94375 -6.2365625 2.325 -6.125 1.6875 C-3.125 -0.3125 -3.125 -0.3125 0 0 Z " fill="#F0F0EC" transform="translate(96.125,315.3125)"/>
<path d="M0 0 C1.65 0 3.3 0 5 0 C5.33 4.29 5.66 8.58 6 13 C7.32 12.67 8.64 12.34 10 12 C10.05395478 10.37536158 10.09277195 8.75021459 10.125 7.125 C10.15980469 5.76761719 10.15980469 5.76761719 10.1953125 4.3828125 C10.24324836 1.81193006 10.24324836 1.81193006 8 0 C9.98 0 11.96 0 14 0 C14.06058594 0.91523438 14.12117187 1.83046875 14.18359375 2.7734375 C14.26738281 3.96195313 14.35117188 5.15046875 14.4375 6.375 C14.51871094 7.55835938 14.59992188 8.74171875 14.68359375 9.9609375 C14.81084936 12.91518901 14.81084936 12.91518901 16 15 C14.04196493 15.05389087 12.08351091 15.09274217 10.125 15.125 C9.03445312 15.14820313 7.94390625 15.17140625 6.8203125 15.1953125 C4 15 4 15 2 13 C1.62109375 10.46875 1.62109375 10.46875 1.4375 7.5 C1.26480654 3.60401365 1.26480654 3.60401365 0 0 Z " fill="#E5EDFE" transform="translate(199,231)"/>
<path d="M0 0 C2.9375 0.375 2.9375 0.375 6 1 C6.99 1 7.98 1 9 1 C9.33 0.67 9.66 0.34 10 0 C16.72 0.72 16.72 0.72 18 2 C18.07313567 4.53049402 18.09247527 7.03304837 18.0625 9.5625 C18.05798828 10.27341797 18.05347656 10.98433594 18.04882812 11.71679688 C18.03700864 13.47790013 18.01907263 15.23896036 18 17 C17.34 17 16.68 17 16 17 C15.505 10.565 15.505 10.565 15 4 C13.35 3.67 11.7 3.34 10 3 C8.12175109 4.87824891 8.60897603 8.03935276 8.4375 10.5625 C8.35371094 11.76003906 8.26992187 12.95757812 8.18359375 14.19140625 C8.12300781 15.11824219 8.06242188 16.04507812 8 17 C7.01 17 6.02 17 5 17 C4.67 12.71 4.34 8.42 4 4 C2.68 3.67 1.36 3.34 0 3 C-0.66 2.67 -1.32 2.34 -2 2 C-1.34 1.34 -0.68 0.68 0 0 Z " fill="#0F0F16" transform="translate(150,313)"/>
<path d="M0 0 C2.64 0 5.28 0 8 0 C7.01 0.495 7.01 0.495 6 1 C6.99 3.31 7.98 5.62 9 8 C11.1519437 4.77208445 11.20086443 3.71599191 11 0 C12.65 0 14.3 0 16 0 C14.66366423 3.49527235 13.27478374 6.9672028 11.875 10.4375 C11.30652344 11.92733398 11.30652344 11.92733398 10.7265625 13.44726562 C9.63075022 16.12287393 8.58087512 18.57795171 7 21 C3.6953125 22.16015625 3.6953125 22.16015625 1 22 C1 21.01 1 20.02 1 19 C2.32 19 3.64 19 5 19 C6.34562252 13.00586331 5.55769881 10.32001353 3 5 C3 4.01 3 3.02 3 2 C2.01 1.67 1.02 1.34 0 1 C0 0.67 0 0.34 0 0 Z " fill="#EBE8FE" transform="translate(167,231)"/>
<path d="M0 0 C0.99 0 1.98 0 3 0 C4.65 3.96 6.3 7.92 8 12 C9.65 8.04 11.3 4.08 13 0 C13.66 0 14.32 0 15 0 C13.60357595 8.24043642 10.51814285 17.59183411 5 24 C2.75 24.875 2.75 24.875 1 25 C1 24.34 1 23.68 1 23 C1.680625 22.443125 2.36125 21.88625 3.0625 21.3125 C5.32110993 19.11955303 5.32110993 19.11955303 5 16 C3.86434816 10.53691693 1.85408115 5.25179265 0 0 Z " fill="#271719" transform="translate(266,313)"/>
<path d="M0 0 C0.99 0 1.98 0 3 0 C4.65 3.96 6.3 7.92 8 12 C9.65 8.04 11.3 4.08 13 0 C13.66 0 14.32 0 15 0 C13.60357595 8.24043642 10.51814285 17.59183411 5 24 C2.75 24.875 2.75 24.875 1 25 C1 24.34 1 23.68 1 23 C1.680625 22.443125 2.36125 21.88625 3.0625 21.3125 C5.32110993 19.11955303 5.32110993 19.11955303 5 16 C3.86434816 10.53691693 1.85408115 5.25179265 0 0 Z " fill="#271719" transform="translate(233,313)"/>
<path d="M0 0 C0.66 0 1.32 0 2 0 C2 4.95 2 9.9 2 15 C-4.0546875 15.1953125 -4.0546875 15.1953125 -6 15 C-6.66 14.34 -7.32 13.68 -8 13 C-7.42307692 6.42307692 -7.42307692 6.42307692 -6 5 C-4.33382885 4.95936168 -2.66611905 4.957279 -1 5 C-0.67 3.35 -0.34 1.7 0 0 Z " fill="#DAE0FE" transform="translate(350,506)"/>
<path d="M0 0 C0.99 0.33 1.98 0.66 3 1 C4.6635348 4.56630705 5.7531816 8.25954481 7 12 C8.65 8.04 10.3 4.08 12 0 C12.99 0.33 13.98 0.66 15 1 C13.57776675 4.63117689 12.13467431 8.2536987 10.6875 11.875 C10.28337891 12.90753906 9.87925781 13.94007813 9.46289062 15.00390625 C9.06650391 15.99003906 8.67011719 16.97617187 8.26171875 17.9921875 C7.90037842 18.90339355 7.53903809 19.81459961 7.16674805 20.75341797 C6 23 6 23 3 25 C2.01 25 1.02 25 0 25 C0 24.34 0 23.68 0 23 C0.99 22.67 1.98 22.34 3 22 C4.6523896 19.68665456 5.07204063 18.51556789 4.67578125 15.6796875 C3.76017786 12.04902898 2.3073838 8.74113359 0.83984375 5.3046875 C0 3 0 3 0 0 Z " fill="#2E1A1E" transform="translate(250,313)"/>
<path d="M0 0 C0.99 0.33 1.98 0.66 3 1 C4.6635348 4.56630705 5.7531816 8.25954481 7 12 C8.65 8.04 10.3 4.08 12 0 C12.99 0.33 13.98 0.66 15 1 C13.57776675 4.63117689 12.13467431 8.2536987 10.6875 11.875 C10.28337891 12.90753906 9.87925781 13.94007813 9.46289062 15.00390625 C9.06650391 15.99003906 8.67011719 16.97617187 8.26171875 17.9921875 C7.90037842 18.90339355 7.53903809 19.81459961 7.16674805 20.75341797 C6 23 6 23 3 25 C2.01 25 1.02 25 0 25 C0 24.34 0 23.68 0 23 C0.99 22.67 1.98 22.34 3 22 C4.6523896 19.68665456 5.07204063 18.51556789 4.67578125 15.6796875 C3.76017786 12.04902898 2.3073838 8.74113359 0.83984375 5.3046875 C0 3 0 3 0 0 Z " fill="#2E1A1E" transform="translate(217,313)"/>
<path d="M0 0 C1.32 0 2.64 0 4 0 C4 1.32 4 2.64 4 4 C4.99 3.67 5.98 3.34 7 3 C7 2.01 7 1.02 7 0 C7.99 0 8.98 0 10 0 C10 3.3 10 6.6 10 10 C6.66208701 10.83447825 4.3667387 11.35439355 1 11 C-1.30441554 7.54337669 -1.25860135 6.05142119 -1 2 C-0.67 1.34 -0.34 0.68 0 0 Z " fill="#562BF9" transform="translate(142,233)"/>
<path d="M0 0 C3 0.25 3 0.25 5 2.25 C5.25 5.25 5.25 5.25 5 8.25 C3 10.25 3 10.25 0 10.5 C-3 10.25 -3 10.25 -5 8.25 C-5.25 5.25 -5.25 5.25 -5 2.25 C-3 0.25 -3 0.25 0 0 Z " fill="#E6D4FC" transform="translate(331,510.75)"/>
<path d="M0 0 C3 0.25 3 0.25 5 2.25 C5.25 5.25 5.25 5.25 5 8.25 C3 10.25 3 10.25 0 10.5 C-3 10.25 -3 10.25 -5 8.25 C-5.25 5.25 -5.25 5.25 -5 2.25 C-3 0.25 -3 0.25 0 0 Z " fill="#E6D3FC" transform="translate(236,510.75)"/>
<path d="M0 0 C0.99 0.103125 1.98 0.20625 3 0.3125 C5 3.3125 5 3.3125 4.75 5.875 C4 8.3125 4 8.3125 2 10.3125 C-0.87012296 10.68046448 -2.40774618 10.68759409 -4.875 9.125 C-6 7.3125 -6 7.3125 -5.8125 4.75 C-4.61582559 1.15997676 -3.79303534 0.39510785 0 0 Z " fill="#DDD7FD" transform="translate(156,510.6875)"/>
<path d="M0 0 C3 0.25 3 0.25 5 2.25 C5.25 5.25 5.25 5.25 5 8.25 C3 10.25 3 10.25 0 10.5 C-3 10.25 -3 10.25 -5 8.25 C-5.25 5.25 -5.25 5.25 -5 2.25 C-3 0.25 -3 0.25 0 0 Z " fill="#EBE6FD" transform="translate(299,510.75)"/>
<path d="M0 0 C3.0625 0.1875 3.0625 0.1875 5.0625 2.1875 C5.3125 5.1875 5.3125 5.1875 5.0625 8.1875 C3.0625 10.1875 3.0625 10.1875 0.0625 10.5 C-0.9275 10.396875 -1.9175 10.29375 -2.9375 10.1875 C-4.9375 7.1875 -4.9375 7.1875 -4.625 4.0625 C-3.71016322 0.23681893 -3.71016322 0.23681893 0 0 Z " fill="#E2E6FD" transform="translate(439.9375,510.8125)"/>
<path d="M0 0 C0.66 0 1.32 0 2 0 C2.33 3.63 2.66 7.26 3 11 C4.65 11.33 6.3 11.66 8 12 C9.73956658 10.26043342 9.37190386 7.8063378 9.5625 5.4375 C9.64628906 4.42558594 9.73007813 3.41367187 9.81640625 2.37109375 C9.87699219 1.58863281 9.93757812 0.80617188 10 0 C10.99 0 11.98 0 13 0 C13 4.95 13 9.9 13 15 C11.68 14.67 10.36 14.34 9 14 C6.99053778 14.27050453 4.98645776 14.59367909 3 15 C0.03090402 11.72698081 -0.34354794 9.61934238 -0.1875 5.25 C-0.16042969 4.26515625 -0.13335937 3.2803125 -0.10546875 2.265625 C-0.07066406 1.51796875 -0.03585938 0.7703125 0 0 Z " fill="#3C0300" transform="translate(204,401)"/>
<path d="M0 0 C0.66 1.65 1.32 3.3 2 5 C0.68 5.33 -0.64 5.66 -2 6 C-2 4.68 -2 3.36 -2 2 C-3.32 2 -4.64 2 -6 2 C-6.020625 3.27875 -6.04125 4.5575 -6.0625 5.875 C-6.07410156 6.59429687 -6.08570313 7.31359375 -6.09765625 8.0546875 C-6.12649242 10.08185404 -6.12649242 10.08185404 -5 12 C-1.37114676 12.15149298 -1.37114676 12.15149298 2 11 C1 14 1 14 -1 15 C-6.38115942 15.45797101 -6.38115942 15.45797101 -8.66796875 13.765625 C-10.34716702 11.53982553 -10.4026516 10.26516007 -10.375 7.5 C-10.38273438 6.7265625 -10.39046875 5.953125 -10.3984375 5.15625 C-9.31194623 -0.72358513 -5.14352504 -0.29114293 0 0 Z " fill="#F2E9FE" transform="translate(148,231)"/>
<path d="M0 0 C1.23556641 0.01740234 1.23556641 0.01740234 2.49609375 0.03515625 C3.32238281 0.04417969 4.14867187 0.05320312 5 0.0625 C5.63808594 0.07410156 6.27617187 0.08570313 6.93359375 0.09765625 C6.93359375 0.75765625 6.93359375 1.41765625 6.93359375 2.09765625 C6.23492187 2.20722656 5.53625 2.31679688 4.81640625 2.4296875 C3.90632812 2.58824219 2.99625 2.74679687 2.05859375 2.91015625 C1.15367187 3.06097656 0.24875 3.21179688 -0.68359375 3.3671875 C-3.41053103 3.92816926 -3.41053103 3.92816926 -5.06640625 7.09765625 C-5.3858383 10.61140884 -5.40115121 13.22731935 -4.12890625 16.53515625 C-0.78533668 19.0681635 2.88639012 18.40310558 6.93359375 18.09765625 C6.93359375 18.75765625 6.93359375 19.41765625 6.93359375 20.09765625 C3.83310447 21.64790089 1.35465157 21.3875764 -2.06640625 21.09765625 C-4.81969646 19.3020322 -6.59268086 18.04510703 -8.06640625 15.09765625 C-8.48709549 12.03864451 -8.5566908 9.15007299 -8.06640625 6.09765625 C-5.62890625 3.09765625 -5.62890625 3.09765625 -3.06640625 1.09765625 C-2.06640625 0.09765625 -2.06640625 0.09765625 0 0 Z " fill="#151D00" transform="translate(157.06640625,394.90234375)"/>
<path d="M0 0 C1.98 0 3.96 0 6 0 C6.01981934 0.62567871 6.03963867 1.25135742 6.06005859 1.89599609 C6.15514226 4.72276519 6.26488746 7.54877815 6.375 10.375 C6.4059375 11.35984375 6.436875 12.3446875 6.46875 13.359375 C6.50742188 14.30039063 6.54609375 15.24140625 6.5859375 16.2109375 C6.6173584 17.08024902 6.6487793 17.94956055 6.68115234 18.84521484 C6.81229433 21.20961794 6.81229433 21.20961794 9 23 C6.36 23 3.72 23 1 23 C1.66 22.67 2.32 22.34 3 22 C2.89040282 18.70762945 2.75971069 15.41643113 2.625 12.125 C2.5940625 11.18785156 2.563125 10.25070313 2.53125 9.28515625 C2.49257812 8.38925781 2.45390625 7.49335938 2.4140625 6.5703125 C2.3826416 5.74289551 2.3512207 4.91547852 2.31884766 4.06298828 C2.17400863 1.78013915 2.17400863 1.78013915 0 0 Z " fill="#EBF3FE" transform="translate(113,223)"/>
<path d="M0 0 C2.5625 0.1875 2.5625 0.1875 4.5625 2.1875 C4.8125 5.1875 4.8125 5.1875 4.5625 8.1875 C2.5625 10.1875 2.5625 10.1875 0.0625 10.5 C-1.175 10.3453125 -1.175 10.3453125 -2.4375 10.1875 C-4.4375 7.1875 -4.4375 7.1875 -4.125 4.0625 C-3.21262777 0.24712521 -3.21262777 0.24712521 0 0 Z " fill="#5A37F8" transform="translate(263.4375,40.8125)"/>
<path d="M0 0 C1.32 0.66 2.64 1.32 4 2 C4 4.97 4 7.94 4 11 C2.02 11.99 2.02 11.99 0 13 C-1.5 11.9375 -1.5 11.9375 -3 10 C-3.65882353 3.85098039 -3.65882353 3.85098039 -1.5 1.0625 C-1.005 0.711875 -0.51 0.36125 0 0 Z " fill="#5934F9" transform="translate(190,232)"/>
<path d="M0 0 C0.99 0.33 1.98 0.66 3 1 C3.33 1.99 3.66 2.98 4 4 C4.66 2.68 5.32 1.36 6 0 C6.99 0 7.98 0 9 0 C9.33 1.32 9.66 2.64 10 4 C10.66 2.68 11.32 1.36 12 0 C12.66 0 13.32 0 14 0 C13.34 3.3 12.68 6.6 12 10 C11.01 10 10.02 10 9 10 C8.34 8.68 7.68 7.36 7 6 C6.34 7.32 5.68 8.64 5 10 C4.34 10 3.68 10 3 10 C2.01 6.7 1.02 3.4 0 0 Z " fill="#E3DCFD" transform="translate(305,511)"/>
<path d="M0 0 C5.94 0 11.88 0 18 0 C18 1.32 18 2.64 18 4 C12.06 4 6.12 4 0 4 C0 2.68 0 1.36 0 0 Z " fill="#CA824A" transform="translate(363,520)"/>
<path d="M0 0 C2 2 2 2 2 6 C-0.31 6 -2.62 6 -5 6 C-5 6.66 -5 7.32 -5 8 C-3.02 8 -1.04 8 1 8 C1 8.66 1 9.32 1 10 C-2.375 10.1875 -2.375 10.1875 -6 10 C-8 7 -8 7 -7.75 3.875 C-7.37875 2.451875 -7.37875 2.451875 -7 1 C-4.48718205 -0.25640898 -2.78302919 -0.20872719 0 0 Z " fill="#D9CFFD" transform="translate(264,511)"/>
<path d="M0 0 C3.63 0 7.26 0 11 0 C11 1.32 11 2.64 11 4 C10.01 4 9.02 4 8 4 C8 3.34 8 2.68 8 2 C7.01 2.495 7.01 2.495 6 3 C5.94604522 4.62463842 5.90722805 6.24978541 5.875 7.875 C5.84019531 9.23238281 5.84019531 9.23238281 5.8046875 10.6171875 C5.75675164 13.18806994 5.75675164 13.18806994 8 15 C5.36 15 2.72 15 0 15 C0.33 14.34 0.66 13.68 1 13 C1.09608608 11.16871229 1.12982579 9.33380041 1.125 7.5 C1.12757813 6.5203125 1.13015625 5.540625 1.1328125 4.53125 C1.16940053 2.00568946 1.16940053 2.00568946 0 0 Z " fill="#F1FAFE" transform="translate(217,231)"/>
<path d="M0 0 C0.99 0 1.98 0 3 0 C3 1.32 3 2.64 3 4 C4.32 4.33 5.64 4.66 7 5 C5.68 5 4.36 5 3 5 C3 8.96 3 12.92 3 17 C4.32 17.33 5.64 17.66 7 18 C6 19 6 19 3.5 19.125 C1 19 1 19 0 18 C-0.07258946 15.81360547 -0.08373783 13.62499611 -0.0625 11.4375 C-0.05347656 10.23996094 -0.04445312 9.04242188 -0.03515625 7.80859375 C-0.02355469 6.88175781 -0.01195312 5.95492187 0 5 C-0.99 4.67 -1.98 4.34 -3 4 C-2.01 4 -1.02 4 0 4 C0 2.68 0 1.36 0 0 Z " fill="#F8F8FE" transform="translate(153,227)"/>
<path d="M0 0 C2.5 0.25 2.5 0.25 4.5 2.25 C4.5 3.57 4.5 4.89 4.5 6.25 C2.52 6.58 0.54 6.91 -1.5 7.25 C0.15 7.58 1.8 7.91 3.5 8.25 C3.5 8.91 3.5 9.57 3.5 10.25 C0.625 10.375 0.625 10.375 -2.5 10.25 C-4.5 8.25 -4.5 8.25 -4.75 5.25 C-4.43608753 1.48305032 -3.83691092 0.38369109 0 0 Z " fill="#CBBDFC" transform="translate(212.5,510.75)"/>
<path d="M0 0 C2.5 0.25 2.5 0.25 4.5 2.25 C4.5 3.57 4.5 4.89 4.5 6.25 C2.52 6.58 0.54 6.91 -1.5 7.25 C0.15 7.58 1.8 7.91 3.5 8.25 C3.5 8.91 3.5 9.57 3.5 10.25 C0.625 10.375 0.625 10.375 -2.5 10.25 C-4.5 8.25 -4.5 8.25 -4.75 5.25 C-4.43608753 1.48305032 -3.83691092 0.38369109 0 0 Z " fill="#CBBBFD" transform="translate(113.5,510.75)"/>
<path d="M0 0 C2.97 0.495 2.97 0.495 6 1 C6.125 4.375 6.125 4.375 6 8 C5.34 8.66 4.68 9.32 4 10 C1.375 9.625 1.375 9.625 -1 9 C-1.80967438 6.08517222 -2.21845993 4.53886783 -1.0625 1.6875 C-0.711875 1.130625 -0.36125 0.57375 0 0 Z " fill="#5A27FA" transform="translate(60,41)"/>
<path d="M0 0 C2.5 0.25 2.5 0.25 4.5 2.25 C4.5 3.57 4.5 4.89 4.5 6.25 C2.19 6.25 -0.12 6.25 -2.5 6.25 C-2.5 6.91 -2.5 7.57 -2.5 8.25 C-0.52 8.25 1.46 8.25 3.5 8.25 C3.5 8.91 3.5 9.57 3.5 10.25 C0.625 10.375 0.625 10.375 -2.5 10.25 C-4.5 8.25 -4.5 8.25 -4.75 5.25 C-4.43608753 1.48305032 -3.83691092 0.38369109 0 0 Z " fill="#E7E0FD" transform="translate(414.5,510.75)"/>
<path d="M0 0 C2.5 0.25 2.5 0.25 4.5 2.25 C4.5 3.57 4.5 4.89 4.5 6.25 C2.19 6.25 -0.12 6.25 -2.5 6.25 C-2.5 6.91 -2.5 7.57 -2.5 8.25 C-0.52 8.25 1.46 8.25 3.5 8.25 C3.5 8.91 3.5 9.57 3.5 10.25 C0.625 10.375 0.625 10.375 -2.5 10.25 C-4.5 8.25 -4.5 8.25 -4.75 5.25 C-4.43608753 1.48305032 -3.83691092 0.38369109 0 0 Z " fill="#E7DFFD" transform="translate(271.5,510.75)"/>
<path d="M0 0 C2.5 0.25 2.5 0.25 4.5 2.25 C4.5 3.57 4.5 4.89 4.5 6.25 C2.19 6.25 -0.12 6.25 -2.5 6.25 C-2.5 6.91 -2.5 7.57 -2.5 8.25 C-0.52 8.25 1.46 8.25 3.5 8.25 C3.5 8.91 3.5 9.57 3.5 10.25 C0.625 10.375 0.625 10.375 -2.5 10.25 C-4.5 8.25 -4.5 8.25 -4.75 5.25 C-4.43608753 1.48305032 -3.83691092 0.38369109 0 0 Z " fill="#D3C6FD" transform="translate(98.5,510.75)"/>
<path d="M0 0 C1.99954746 -0.04254356 4.00041636 -0.04080783 6 0 C7 1 7 1 7.09765625 3.06640625 C7.08605469 3.89011719 7.07445312 4.71382812 7.0625 5.5625 C7.05347656 6.38878906 7.04445312 7.21507812 7.03515625 8.06640625 C7.02355469 8.70449219 7.01195312 9.34257813 7 10 C4.69 10 2.38 10 0 10 C-0.33 8.35 -0.66 6.7 -1 5 C0.98 4.67 2.96 4.34 5 4 C5 3.34 5 2.68 5 2 C3.35 2.33 1.7 2.66 0 3 C0 2.01 0 1.02 0 0 Z " fill="#ECE6FE" transform="translate(187,511)"/>
<path d="M0 0 C1.0725 0.309375 2.145 0.61875 3.25 0.9375 C3.58 1.5975 3.91 2.2575 4.25 2.9375 C3.13625 2.916875 2.0225 2.89625 0.875 2.875 C-2.58215921 2.67369282 -2.58215921 2.67369282 -4.75 3.9375 C-4.75 7.2375 -4.75 10.5375 -4.75 13.9375 C-4.09 13.9375 -3.43 13.9375 -2.75 13.9375 C-2.75 14.9275 -2.75 15.9175 -2.75 16.9375 C-5.91115776 15.56766497 -6.7427092 14.9484362 -8.75 11.9375 C-9.3182849 7.55358789 -9.21835665 5.61874604 -6.6875 1.9375 C-3.75 -0.0625 -3.75 -0.0625 0 0 Z " fill="#30272D" transform="translate(115.75,313.0625)"/>
<path d="M0 0 C1.0725 0.309375 2.145 0.61875 3.25 0.9375 C3.58 1.5975 3.91 2.2575 4.25 2.9375 C3.13625 2.916875 2.0225 2.89625 0.875 2.875 C-2.58215921 2.67369282 -2.58215921 2.67369282 -4.75 3.9375 C-4.75 7.2375 -4.75 10.5375 -4.75 13.9375 C-4.09 13.9375 -3.43 13.9375 -2.75 13.9375 C-2.75 14.9275 -2.75 15.9175 -2.75 16.9375 C-5.91115776 15.56766497 -6.7427092 14.9484362 -8.75 11.9375 C-9.3182849 7.55358789 -9.21835665 5.61874604 -6.6875 1.9375 C-3.75 -0.0625 -3.75 -0.0625 0 0 Z " fill="#30272D" transform="translate(95.75,313.0625)"/>
<path d="M0 0 C0.66 0.33 1.32 0.66 2 1 C2.04241723 3.33294775 2.04092937 5.66702567 2 8 C1 9 1 9 -1.9375 9.1875 C-5 9 -5 9 -7 7 C-7 5.0625 -7 5.0625 -6 3 C-3.0625 1.1875 -3.0625 1.1875 0 0 Z " fill="#ECE4FE" transform="translate(243,237)"/>
<path d="M0 0 C0.66 0 1.32 0 2 0 C2.33 1.65 2.66 3.3 3 5 C3.804375 4.979375 4.60875 4.95875 5.4375 4.9375 C8 5 8 5 9 6 C9.07179964 7.51928038 9.08392007 9.04167482 9.0625 10.5625 C9.05347656 11.38878906 9.04445313 12.21507812 9.03515625 13.06640625 C9.02355469 13.70449219 9.01195312 14.34257813 9 15 C8.34 15 7.68 15 7 15 C7 12.36 7 9.72 7 7 C5.68 7.33 4.36 7.66 3 8 C2.67 10.31 2.34 12.62 2 15 C1.34 15 0.68 15 0 15 C0 10.05 0 5.1 0 0 Z " fill="#CFE4FE" transform="translate(283,506)"/>
<path d="M0 0 C0.66 0 1.32 0 2 0 C2 1.32 2 2.64 2 4 C3.32 4 4.64 4 6 4 C6 4.66 6 5.32 6 6 C4.68 6 3.36 6 2 6 C2 9.63 2 13.26 2 17 C3.32 17 4.64 17 6 17 C6 17.66 6 18.32 6 19 C1.125 18.125 1.125 18.125 0 17 C-0.07226502 15.14712498 -0.0838122 13.29166122 -0.0625 11.4375 C-0.05347656 10.42558594 -0.04445312 9.41367187 -0.03515625 8.37109375 C-0.02355469 7.58863281 -0.01195312 6.80617188 0 6 C-0.99 6 -1.98 6 -3 6 C-3 5.34 -3 4.68 -3 4 C-2.01 4 -1.02 4 0 4 C0 2.68 0 1.36 0 0 Z " fill="#0D0E00" transform="translate(245,397)"/>
<path d="M0 0 C0.33 0 0.66 0 1 0 C1 2.31 1 4.62 1 7 C-3.455 7.495 -3.455 7.495 -8 8 C-8.66 6.02 -9.32 4.04 -10 2 C-6.7 2 -3.4 2 0 2 C0 1.34 0 0.68 0 0 Z " fill="#5829F9" transform="translate(136,236)"/>
<path d="M0 0 C2.375 -0.125 2.375 -0.125 5 0 C7 2 7 2 7.1953125 3.9453125 C7.13020833 5.96354167 7.06510417 7.98177083 7 10 C5.02 10 3.04 10 1 10 C1.99 8.68 2.98 7.36 4 6 C2.68 6 1.36 6 0 6 C0 6.99 0 7.98 0 9 C-0.66 9 -1.32 9 -2 9 C-1.8125 7.125 -1.8125 7.125 -1 5 C1.5625 3.75 1.5625 3.75 4 3 C2.35 3 0.7 3 -1 3 C-0.67 2.01 -0.34 1.02 0 0 Z " fill="#DEDCFD" transform="translate(394,511)"/>
<path d="M0 0 C0.99 0 1.98 0 3 0 C3.33 1.98 3.66 3.96 4 6 C4.66 6 5.32 6 6 6 C6.33 4.35 6.66 2.7 7 1 C7.99 1 8.98 1 10 1 C7.03 7.93 7.03 7.93 4 15 C2.68 15 1.36 15 0 15 C0 14.34 0 13.68 0 13 C0.99 13 1.98 13 3 13 C2.45144652 8.428721 1.58255197 4.32564205 0 0 Z " fill="#E0DBFD" transform="translate(140,511)"/>
<path d="M0 0 C1.4540625 0.0309375 1.4540625 0.0309375 2.9375 0.0625 C2.9375 0.7225 2.9375 1.3825 2.9375 2.0625 C2.133125 2.18625 1.32875 2.31 0.5 2.4375 C-0.7684375 2.746875 -0.7684375 2.746875 -2.0625 3.0625 C-2.3925 3.7225 -2.7225 4.3825 -3.0625 5.0625 C-2.27875 5.35125 -1.495 5.64 -0.6875 5.9375 C1.9375 7.0625 1.9375 7.0625 3.9375 9.0625 C3.40178571 12.59821429 3.40178571 12.59821429 1.9375 14.0625 C-0.06208364 14.10330783 -2.06295254 14.10504356 -4.0625 14.0625 C-4.0625 13.0725 -4.0625 12.0825 -4.0625 11.0625 C-1.0925 11.5575 -1.0925 11.5575 1.9375 12.0625 C1.9375 11.0725 1.9375 10.0825 1.9375 9.0625 C0.761875 8.629375 0.761875 8.629375 -0.4375 8.1875 C-3.0625 7.0625 -3.0625 7.0625 -5.0625 5.0625 C-4.45789299 1.07209375 -4.2025713 0.08576676 0 0 Z " fill="#E9E5FE" transform="translate(88.0625,506.9375)"/>
<path d="M0 0 C0.99 0 1.98 0 3 0 C3 0.66 3 1.32 3 2 C4.98 2 6.96 2 9 2 C9 2.33 9 2.66 9 3 C7.02 3 5.04 3 3 3 C3.66 4.65 4.32 6.3 5 8 C8.04386724 8.08226668 10.07175348 7.97608217 13 7 C12 10 12 10 10 11 C6.45768939 11.38503376 4.63742658 11.41935959 1.625 9.4375 C-0.54455002 6.18317497 -0.29451507 3.82869586 0 0 Z " fill="#EDEBFE" transform="translate(100,235)"/>
<path d="M0 0 C2.625 0.375 2.625 0.375 5 1 C5.33 2.98 5.66 4.96 6 7 C5.01 7.66 4.02 8.32 3 9 C0.3125 8.125 0.3125 8.125 -2 7 C-2.125 4.625 -2.125 4.625 -2 2 C-1.34 1.34 -0.68 0.68 0 0 Z " fill="#E2E4FE" transform="translate(254,231)"/>
<path d="M0 0 C0.66 0 1.32 0 2 0 C2.66 1.65 3.32 3.3 4 5 C5.93798263 2.22739701 5.93798263 2.22739701 7 0 C7.66 0 8.32 0 9 0 C8.5532538 3.46228308 7.49558815 6.53364208 6.1875 9.75 C5.87167969 10.52859375 5.55585938 11.3071875 5.23046875 12.109375 C4 14 4 14 1.86328125 14.765625 C1.24839844 14.84296875 0.63351562 14.9203125 0 15 C0 14.34 0 13.68 0 13 C0.66 12.67 1.32 12.34 2 12 C1.44687265 7.97007218 0.8441938 3.97977076 0 0 Z " fill="#E4E2FD" transform="translate(425,511)"/>
<path d="M0 0 C0 0.99 0 1.98 0 3 C-2.31 3 -4.62 3 -7 3 C-7 5.64 -7 8.28 -7 11 C-4.69 11.66 -2.38 12.32 0 13 C-0.33 13.66 -0.66 14.32 -1 15 C-4.375 14.6875 -4.375 14.6875 -8 14 C-10.48038907 10.2794164 -10.46337203 8.40203429 -10 4 C-7.21083461 -0.18374808 -4.85662887 -0.44151172 0 0 Z " fill="#191C00" transform="translate(200,401)"/>
<path d="M0 0 C0.99 0 1.98 0 3 0 C4.23104155 3.68400584 3.90767252 6.91474976 3.5625 10.75 C3.46066406 11.92046875 3.35882813 13.0909375 3.25390625 14.296875 C3.17011719 15.18890625 3.08632812 16.0809375 3 17 C2.01 17 1.02 17 0 17 C0 11.39 0 5.78 0 0 Z " fill="#351B25" transform="translate(144,313)"/>
<path d="M0 0 C0.66 0 1.32 0 2 0 C2.33 2.64 2.66 5.28 3 8 C3.99 7.67 4.98 7.34 6 7 C6.33 4.69 6.66 2.38 7 0 C7.66 0 8.32 0 9 0 C9 3.3 9 6.6 9 10 C5.625 10.125 5.625 10.125 2 10 C0 8 0 8 -0.1953125 6.0546875 C-0.13020833 4.03645833 -0.06510417 2.01822917 0 0 Z " fill="#DEE2FD" transform="translate(447,511)"/>
<path d="M0 0 C0.66 0 1.32 0 2 0 C2 2.64 2 5.28 2 8 C3.32 8 4.64 8 6 8 C6 5.36 6 2.72 6 0 C6.66 0 7.32 0 8 0 C8 3.3 8 6.6 8 10 C5.66705225 10.04241723 3.33297433 10.04092937 1 10 C0 9 0 9 -0.09765625 6.93359375 C-0.08605469 6.10988281 -0.07445312 5.28617188 -0.0625 4.4375 C-0.05347656 3.61121094 -0.04445312 2.78492188 -0.03515625 1.93359375 C-0.02355469 1.29550781 -0.01195312 0.65742188 0 0 Z " fill="#E1E1FD" transform="translate(163,511)"/>
<path d="M0 0 C1.134375 0.020625 2.26875 0.04125 3.4375 0.0625 C3.4375 3.6925 3.4375 7.3225 3.4375 11.0625 C3.1075 11.0625 2.7775 11.0625 2.4375 11.0625 C2.1075 8.4225 1.7775 5.7825 1.4375 3.0625 C0.1175 3.0625 -1.2025 3.0625 -2.5625 3.0625 C-1.98797254 6.99325644 -1.98797254 6.99325644 0.4375 10.0625 C-4.4375 9.1875 -4.4375 9.1875 -5.5625 8.0625 C-4.70750942 0.08258788 -4.70750942 0.08258788 0 0 Z " fill="#E4E9FE" transform="translate(201.5625,510.9375)"/>
<path d="M0 0 C1.98 0.66 3.96 1.32 6 2 C6 3.32 6 4.64 6 6 C4.00045254 6.04254356 1.99958364 6.04080783 0 6 C-0.33 5.67 -0.66 5.34 -1 5 C-1.33 6.98 -1.66 8.96 -2 11 C-2.33 11 -2.66 11 -3 11 C-3.36923077 4.6 -3.36923077 4.6 -1.5 1.5625 C-1.005 1.046875 -0.51 0.53125 0 0 Z " fill="#D5DDFE" transform="translate(270,231)"/>
<path d="M0 0 C1.4540625 0.0309375 1.4540625 0.0309375 2.9375 0.0625 C3.2675 1.3825 3.5975 2.7025 3.9375 4.0625 C0.9375 6.0625 0.9375 6.0625 -1.75 5.6875 C-2.513125 5.48125 -3.27625 5.275 -4.0625 5.0625 C-4.0625 0.08290816 -4.0625 0.08290816 0 0 Z " fill="#624BF9" transform="translate(259.0625,245.9375)"/>
<path d="M0 0 C1.65 0 3.3 0 5 0 C5 0.66 5 1.32 5 2 C3.68 2 2.36 2 1 2 C1 2.66 1 3.32 1 4 C2.32 4.33 3.64 4.66 5 5 C5.5625 6.9375 5.5625 6.9375 6 9 C5 10 5 10 1.9375 10.0625 C0.968125 10.041875 -0.00125 10.02125 -1 10 C-1 9.34 -1 8.68 -1 8 C0.32 7.67 1.64 7.34 3 7 C1.68 6.34 0.36 5.68 -1 5 C-0.67 3.35 -0.34 1.7 0 0 Z " fill="#E2DFFD" transform="translate(249,511)"/>
<path d="M0 0 C0.99 0 1.98 0 3 0 C3 4.95 3 9.9 3 15 C2.34 15 1.68 15 1 15 C-0.09506492 11.71480525 -0.09960608 9.26336585 -0.0625 5.8125 C-0.05347656 4.72582031 -0.04445312 3.63914062 -0.03515625 2.51953125 C-0.02355469 1.68808594 -0.01195312 0.85664063 0 0 Z " fill="#3C3B00" transform="translate(214,401)"/>
<path d="M0 0 C0.66 0 1.32 0 2 0 C2 0.99 2 1.98 2 3 C2.99 3 3.98 3 5 3 C5 3.66 5 4.32 5 5 C4.01 5 3.02 5 2 5 C2 6.98 2 8.96 2 11 C2.99 11 3.98 11 5 11 C5 11.66 5 12.32 5 13 C3.35 12.67 1.7 12.34 0 12 C0 9.69 0 7.38 0 5 C-0.66 5 -1.32 5 -2 5 C-2 4.34 -2 3.68 -2 3 C-1.34 3 -0.68 3 0 3 C0 2.01 0 1.02 0 0 Z " fill="#E0DCFD" transform="translate(225,508)"/>
<path d="M0 0 C0.66 0 1.32 0 2 0 C2 0.99 2 1.98 2 3 C2.99 3 3.98 3 5 3 C5 3.66 5 4.32 5 5 C4.01 5 3.02 5 2 5 C2 6.98 2 8.96 2 11 C2.99 11 3.98 11 5 11 C5 11.66 5 12.32 5 13 C3.35 12.67 1.7 12.34 0 12 C0 9.69 0 7.38 0 5 C-0.66 5 -1.32 5 -2 5 C-2 4.34 -2 3.68 -2 3 C-1.34 3 -0.68 3 0 3 C0 2.01 0 1.02 0 0 Z " fill="#E2D7FD" transform="translate(130,508)"/>
<path d="M0 0 C0.66 0 1.32 0 2 0 C3.31626692 3.61973402 4 6.09567131 4 10 C2.02 10 0.04 10 -2 10 C-1.34 6.7 -0.68 3.4 0 0 Z " fill="#5D32FB" transform="translate(35,35)"/>
<path d="M0 0 C0.78375 0.04125 1.5675 0.0825 2.375 0.125 C2.375 0.785 2.375 1.445 2.375 2.125 C0.725 2.125 -0.925 2.125 -2.625 2.125 C-2.625 4.105 -2.625 6.085 -2.625 8.125 C-0.975 8.125 0.675 8.125 2.375 8.125 C2.375 8.785 2.375 9.445 2.375 10.125 C-0.5 10.3125 -0.5 10.3125 -3.625 10.125 C-5.625 7.125 -5.625 7.125 -5.375 4.5625 C-4.336523 1.18744974 -3.59386412 0.17113639 0 0 Z " fill="#DDD8FD" transform="translate(124.625,510.875)"/>
<path d="M0 0 C0.99 0 1.98 0 3 0 C3 4.29 3 8.58 3 13 C2.01 13 1.02 13 0 13 C0 8.71 0 4.42 0 0 Z " fill="#2A1E38" transform="translate(195,317)"/>
<path d="M0 0 C0.99 0.33 1.98 0.66 3 1 C3 4.96 3 8.92 3 13 C2.01 13 1.02 13 0 13 C0 8.71 0 4.42 0 0 Z " fill="#28243B" transform="translate(155,317)"/>
<path d="M0 0 C0.99 0.33 1.98 0.66 3 1 C4.38671875 3.94140625 4.38671875 3.94140625 5.6875 7.5625 C6.12449219 8.76003906 6.56148438 9.95757812 7.01171875 11.19140625 C7.33785156 12.11824219 7.66398437 13.04507812 8 14 C7.01 14.33 6.02 14.66 5 15 C4.16013916 13.06532058 3.32831973 11.12714871 2.5 9.1875 C2.0359375 8.10855469 1.571875 7.02960938 1.09375 5.91796875 C0 3 0 3 0 0 Z " fill="#282635" transform="translate(250,313)"/>
<path d="M0 0 C0.99 0.33 1.98 0.66 3 1 C4.38671875 3.94140625 4.38671875 3.94140625 5.6875 7.5625 C6.12449219 8.76003906 6.56148437 9.95757812 7.01171875 11.19140625 C7.33785156 12.11824219 7.66398438 13.04507812 8 14 C7.01 14.33 6.02 14.66 5 15 C4.16013916 13.06532058 3.32831973 11.12714871 2.5 9.1875 C2.0359375 8.10855469 1.571875 7.02960938 1.09375 5.91796875 C0 3 0 3 0 0 Z " fill="#282635" transform="translate(217,313)"/>
<path d="M0 0 C1.98 0 3.96 0 6 0 C6.06058594 0.91523438 6.12117187 1.83046875 6.18359375 2.7734375 C6.26738281 3.96195313 6.35117188 5.15046875 6.4375 6.375 C6.51871094 7.55835938 6.59992188 8.74171875 6.68359375 9.9609375 C6.81084936 12.91518901 6.81084936 12.91518901 8 15 C6.68 15 5.36 15 4 15 C4 10.71 4 6.42 4 2 C2.68 1.34 1.36 0.68 0 0 Z " fill="#FAF6FE" transform="translate(207,231)"/>
<path d="M0 0 C0.66 0 1.32 0 2 0 C1.37321829 3.66172475 0.35548154 6.8818995 -1.0625 10.3125 C-1.42472656 11.19550781 -1.78695313 12.07851563 -2.16015625 12.98828125 C-2.43730469 13.65214844 -2.71445312 14.31601562 -3 15 C-3.66 14.67 -4.32 14.34 -5 14 C-4.54636829 12.41531323 -4.08688548 10.83230076 -3.625 9.25 C-3.36976563 8.36828125 -3.11453125 7.4865625 -2.8515625 6.578125 C-2.0790066 4.23919428 -1.16374324 2.16557438 0 0 Z " fill="#38292F" transform="translate(279,313)"/>
<path d="M0 0 C0.66 0 1.32 0 2 0 C1.37321829 3.66172475 0.35548154 6.8818995 -1.0625 10.3125 C-1.42472656 11.19550781 -1.78695312 12.07851563 -2.16015625 12.98828125 C-2.43730469 13.65214844 -2.71445313 14.31601562 -3 15 C-3.66 14.67 -4.32 14.34 -5 14 C-4.54636829 12.41531323 -4.08688548 10.83230076 -3.625 9.25 C-3.36976563 8.36828125 -3.11453125 7.4865625 -2.8515625 6.578125 C-2.0790066 4.23919428 -1.16374324 2.16557438 0 0 Z " fill="#38292F" transform="translate(246,313)"/>
<path d="M0 0 C1.134375 0.020625 2.26875 0.04125 3.4375 0.0625 C4.0975 1.7125 4.7575 3.3625 5.4375 5.0625 C4.1175 5.3925 2.7975 5.7225 1.4375 6.0625 C1.4375 4.7425 1.4375 3.4225 1.4375 2.0625 C0.1175 2.0625 -1.2025 2.0625 -2.5625 2.0625 C-2.8925 2.7225 -3.2225 3.3825 -3.5625 4.0625 C-4.5525 4.3925 -5.5425 4.7225 -6.5625 5.0625 C-4.14811644 0.07277397 -4.14811644 0.07277397 0 0 Z " fill="#E3DEFD" transform="translate(144.5625,230.9375)"/>
<path d="M0 0 C0.66 0 1.32 0 2 0 C2 4.95 2 9.9 2 15 C1.34 15 0.68 15 0 15 C-0.103125 13.906875 -0.20625 12.81375 -0.3125 11.6875 C-0.97307727 8.14440371 -1.2027092 7.06756277 -4 5 C-3.01 5 -2.02 5 -1 5 C-0.67 3.35 -0.34 1.7 0 0 Z " fill="#F3E7FD" transform="translate(350,506)"/>
<path d="M0 0 C0.66 0 1.32 0 2 0 C2.98844951 3.94647618 2.96191905 7.27392964 2.5625 11.3125 C2.46066406 12.38113281 2.35882813 13.44976562 2.25390625 14.55078125 C2.12822266 15.76314453 2.12822266 15.76314453 2 17 C1.34 17 0.68 17 0 17 C0 11.39 0 5.78 0 0 Z " fill="#000103" transform="translate(174,313)"/>
<path d="M0 0 C1.2065625 0.0309375 1.2065625 0.0309375 2.4375 0.0625 C2.4375 2.0425 2.4375 4.0225 2.4375 6.0625 C0.7875 6.0625 -0.8625 6.0625 -2.5625 6.0625 C-2.94468767 4.40635343 -3.27645102 2.73792976 -3.5625 1.0625 C-2.5625 0.0625 -2.5625 0.0625 0 0 Z " fill="#6144F7" transform="translate(440.5625,512.9375)"/>
<path d="M0 0 C3 1 3 1 4 3 C7.04386724 3.08226668 9.07175348 2.97608217 12 2 C11 5 11 5 9 6 C5.5 6.1875 5.5 6.1875 2 6 C1.34 5.34 0.68 4.68 0 4 C0 2.68 0 1.36 0 0 Z " fill="#E7E1FD" transform="translate(268,240)"/>
<path d="M0 0 C1.65 0.33 3.3 0.66 5 1 C4.67 2.65 4.34 4.3 4 6 C2.35 5.67 0.7 5.34 -1 5 C-0.67 3.35 -0.34 1.7 0 0 Z " fill="#5F46F8" transform="translate(345,513)"/>
<path d="M0 0 C1.65 0.33 3.3 0.66 5 1 C4.67 2.65 4.34 4.3 4 6 C2.35 5.67 0.7 5.34 -1 5 C-0.67 3.35 -0.34 1.7 0 0 Z " fill="#5139F8" transform="translate(329,513)"/>
<path d="M0 0 C1.65 0.33 3.3 0.66 5 1 C4.67 2.65 4.34 4.3 4 6 C2.35 5.67 0.7 5.34 -1 5 C-0.67 3.35 -0.34 1.7 0 0 Z " fill="#5433F8" transform="translate(297,513)"/>
<path d="M0 0 C1.65 0.33 3.3 0.66 5 1 C4.67 2.65 4.34 4.3 4 6 C2.35 5.67 0.7 5.34 -1 5 C-0.67 3.35 -0.34 1.7 0 0 Z " fill="#5133F9" transform="translate(234,513)"/>
<path d="M0 0 C1.65 0.33 3.3 0.66 5 1 C4.67 2.65 4.34 4.3 4 6 C2.35 5.67 0.7 5.34 -1 5 C-0.67 3.35 -0.34 1.7 0 0 Z " fill="#5F3DF9" transform="translate(199,513)"/>
<path d="M0 0 C-0.33 1.65 -0.66 3.3 -1 5 C-2.65 5 -4.3 5 -6 5 C-6.33 3.68 -6.66 2.36 -7 1 C-4.53721199 -0.231394 -2.7204945 -0.07159196 0 0 Z " fill="#E2E800" transform="translate(176,409)"/>
<path d="M0 0 C3 1 3 1 5 4 C7.56282742 4.72965366 7.56282742 4.72965366 10 5 C6.5980513 7.09350689 3.94727588 7.17942163 0 7 C0 4.69 0 2.38 0 0 Z " fill="#D7D4FE" transform="translate(83,239)"/>
<path d="M0 0 C0.33 0.99 0.66 1.98 1 3 C3.64 3 6.28 3 9 3 C9 3.33 9 3.66 9 4 C7.02 4.33 5.04 4.66 3 5 C4.65 5.33 6.3 5.66 8 6 C8 6.66 8 7.32 8 8 C5.125 8.125 5.125 8.125 2 8 C0 6 0 6 -0.125 2.875 C-0.08375 1.92625 -0.0425 0.9775 0 0 Z " fill="#DAD6FD" transform="translate(208,513)"/>
<path d="M0 0 C0.33 0.99 0.66 1.98 1 3 C3.64 3 6.28 3 9 3 C9 3.33 9 3.66 9 4 C7.02 4.33 5.04 4.66 3 5 C4.65 5.33 6.3 5.66 8 6 C8 6.66 8 7.32 8 8 C5.125 8.125 5.125 8.125 2 8 C0 6 0 6 -0.125 2.875 C-0.08375 1.92625 -0.0425 0.9775 0 0 Z " fill="#DAD5FD" transform="translate(109,513)"/>
<path d="M0 0 C1.65 0 3.3 0 5 0 C5 1.98 5 3.96 5 6 C3.35 6 1.7 6 0 6 C0 4.02 0 2.04 0 0 Z " fill="#552FF9" transform="translate(153,513)"/>
<path d="M0 0 C1.4540625 0.0309375 1.4540625 0.0309375 2.9375 0.0625 C2.6075 1.3825 2.2775 2.7025 1.9375 4.0625 C0.2875 4.3925 -1.3625 4.7225 -3.0625 5.0625 C-3.625 3.125 -3.625 3.125 -4.0625 1.0625 C-3.0625 0.0625 -3.0625 0.0625 0 0 Z " fill="#EDEB00" transform="translate(234.0625,408.9375)"/>
<path d="M0 0 C1.66611905 -0.042721 3.33382885 -0.04063832 5 0 C6 1 6 1 6.09765625 3.06640625 C6.08605469 3.89011719 6.07445312 4.71382812 6.0625 5.5625 C6.05347656 6.38878906 6.04445313 7.21507812 6.03515625 8.06640625 C6.01775391 9.02353516 6.01775391 9.02353516 6 10 C5.34 10 4.68 10 4 10 C4 7.36 4 4.72 4 2 C2.35 2.33 0.7 2.66 -1 3 C-0.67 2.01 -0.34 1.02 0 0 Z " fill="#E8E6FD" transform="translate(286,511)"/>
<path d="M0 0 C0.99 0.66 1.98 1.32 3 2 C1.85805571 4.80063432 0.67198768 7.47332213 -1 10 C-3.75 11 -3.75 11 -6 11 C-6 10.34 -6 9.68 -6 9 C-5.01 8.67 -4.02 8.34 -3 8 C-1.98245132 6.1346755 -1.98245132 6.1346755 -1.3125 3.9375 C-1.06113281 3.20402344 -0.80976563 2.47054688 -0.55078125 1.71484375 C-0.36902344 1.14894531 -0.18726563 0.58304687 0 0 Z " fill="#1D1019" transform="translate(256,327)"/>
<path d="M0 0 C0.99 0.66 1.98 1.32 3 2 C1.85805571 4.80063432 0.67198768 7.47332213 -1 10 C-3.75 11 -3.75 11 -6 11 C-6 10.34 -6 9.68 -6 9 C-5.01 8.67 -4.02 8.34 -3 8 C-1.98245132 6.1346755 -1.98245132 6.1346755 -1.3125 3.9375 C-1.06113281 3.20402344 -0.80976563 2.47054688 -0.55078125 1.71484375 C-0.36902344 1.14894531 -0.18726563 0.58304687 0 0 Z " fill="#1D1019" transform="translate(223,327)"/>
<path d="M0 0 C0.66 0.33 1.32 0.66 2 1 C2.2295711 4.36704285 2.33943529 6.41370268 0.625 9.375 C0.08875 9.91125 -0.4475 10.4475 -1 11 C-1.66 11 -2.32 11 -3 11 C-2.69217504 9.35328588 -2.37860766 7.70764424 -2.0625 6.0625 C-1.88847656 5.14597656 -1.71445313 4.22945312 -1.53515625 3.28515625 C-1 1 -1 1 0 0 Z " fill="#F9EEFD" transform="translate(196,234)"/>
<path d="M0 0 C1.32 0.66 2.64 1.32 4 2 C3.01 2.33 2.02 2.66 1 3 C1 4.32 1 5.64 1 7 C1.99 7.66 2.98 8.32 4 9 C2.125 9.625 2.125 9.625 0 10 C-2 8 -2 8 -2.25 5 C-2 2 -2 2 0 0 Z " fill="#DDDDFD" transform="translate(296,511)"/>
<path d="M0 0 C1.98 0 3.96 0 6 0 C5.525625 0.350625 5.05125 0.70125 4.5625 1.0625 C2.32126175 3.84163543 2.32882342 6.5144717 2 10 C1.34 10 0.68 10 0 10 C0 6.7 0 3.4 0 0 Z " fill="#D4DFFD" transform="translate(403,511)"/>
<path d="M0 0 C2.9375 0.1875 2.9375 0.1875 3.9375 1.1875 C3.97813832 2.85367115 3.980221 4.52138095 3.9375 6.1875 C3.2775 5.1975 2.6175 4.2075 1.9375 3.1875 C-0.49967258 3.45784634 -0.49967258 3.45784634 -3.0625 4.1875 C-3.7225 5.1775 -4.3825 6.1675 -5.0625 7.1875 C-5.1875 4.8125 -5.1875 4.8125 -5.0625 2.1875 C-3.0625 0.1875 -3.0625 0.1875 0 0 Z " fill="#E7E8FE" transform="translate(331.0625,510.8125)"/>
<path d="M0 0 C2.9375 0.1875 2.9375 0.1875 3.9375 1.1875 C3.97813832 2.85367115 3.980221 4.52138095 3.9375 6.1875 C3.2775 5.1975 2.6175 4.2075 1.9375 3.1875 C-0.49967258 3.45784634 -0.49967258 3.45784634 -3.0625 4.1875 C-3.7225 5.1775 -4.3825 6.1675 -5.0625 7.1875 C-5.1875 4.8125 -5.1875 4.8125 -5.0625 2.1875 C-3.0625 0.1875 -3.0625 0.1875 0 0 Z " fill="#E7E8FE" transform="translate(236.0625,510.8125)"/>
<path d="M0 0 C1.670625 0.37125 1.670625 0.37125 3.375 0.75 C3.705 1.41 4.035 2.07 4.375 2.75 C3.3025 2.688125 2.23 2.62625 1.125 2.5625 C-2.73366187 2.75543309 -3.91317788 3.14665076 -6.625 5.75 C-6.625 4.43 -6.625 3.11 -6.625 1.75 C-3.625 -0.25 -3.625 -0.25 0 0 Z " fill="#251E1D" transform="translate(115.625,313.25)"/>
<path d="M0 0 C1.670625 0.37125 1.670625 0.37125 3.375 0.75 C3.705 1.41 4.035 2.07 4.375 2.75 C3.3025 2.688125 2.23 2.62625 1.125 2.5625 C-2.73366187 2.75543309 -3.91317788 3.14665076 -6.625 5.75 C-6.625 4.43 -6.625 3.11 -6.625 1.75 C-3.625 -0.25 -3.625 -0.25 0 0 Z " fill="#251E1D" transform="translate(95.625,313.25)"/>
<path d="M0 0 C2.0625 0.4375 2.0625 0.4375 4 1 C3.67 2.65 3.34 4.3 3 6 C2.01 6 1.02 6 0 6 C-0.38218767 4.34385343 -0.71395102 2.67542976 -1 1 C-0.67 0.67 -0.34 0.34 0 0 Z " fill="#5F3AF9" transform="translate(256,233)"/>
<path d="M0 0 C1.134375 0.020625 2.26875 0.04125 3.4375 0.0625 C2.4475 1.5475 2.4475 1.5475 1.4375 3.0625 C0.4475 2.7325 -0.5425 2.4025 -1.5625 2.0625 C-1.5625 3.0525 -1.5625 4.0425 -1.5625 5.0625 C-2.8825 5.0625 -4.2025 5.0625 -5.5625 5.0625 C-4.43693182 0.07784091 -4.43693182 0.07784091 0 0 Z " fill="#DBD7FD" transform="translate(242.5625,230.9375)"/>
<path d="M0 0 C-0.33 1.32 -0.66 2.64 -1 4 C-2.32 4.33 -3.64 4.66 -5 5 C-5.33 3.35 -5.66 1.7 -6 0 C-3.50907189 -1.24546405 -2.58919267 -0.7767578 0 0 Z " fill="#B6AAFC" transform="translate(192,516)"/>
<path d="M0 0 C0.33 0.66 0.66 1.32 1 2 C0.67 2.66 0.34 3.32 0 4 C-1.98 4 -3.96 4 -6 4 C-6.33 3.01 -6.66 2.02 -7 1 C-4.53721199 -0.231394 -2.7204945 -0.07159196 0 0 Z " fill="#B4A6FC" transform="translate(264,511)"/>
<path d="M0 0 C1.65 0.33 3.3 0.66 5 1 C5.33 1.99 5.66 2.98 6 4 C3.36 4 0.72 4 -2 4 C-1.34 2.68 -0.68 1.36 0 0 Z " fill="#F8F200" transform="translate(258,403)"/>
<path d="M0 0 C1.98 0 3.96 0 6 0 C4.02 0.99 4.02 0.99 2 2 C2 4.64 2 7.28 2 10 C1.34 10 0.68 10 0 10 C0 6.7 0 3.4 0 0 Z " fill="#E7E5FD" transform="translate(174,511)"/>
<path d="M0 0 C0.99 0 1.98 0 3 0 C3.99 3.3 4.98 6.6 6 10 C5.01 9.67 4.02 9.34 3 9 C2.05078125 6.93359375 2.05078125 6.93359375 1.3125 4.4375 C1.06113281 3.61121094 0.80976563 2.78492188 0.55078125 1.93359375 C0.36902344 1.29550781 0.18726563 0.65742188 0 0 Z " fill="#1B182F" transform="translate(266,313)"/>
<path d="M0 0 C0.99 0 1.98 0 3 0 C3.99 3.3 4.98 6.6 6 10 C5.01 9.67 4.02 9.34 3 9 C2.05078125 6.93359375 2.05078125 6.93359375 1.3125 4.4375 C1.06113281 3.61121094 0.80976563 2.78492188 0.55078125 1.93359375 C0.36902344 1.29550781 0.18726563 0.65742188 0 0 Z " fill="#1B182F" transform="translate(233,313)"/>
<path d="M0 0 C0 1.98 0 3.96 0 6 C-0.66 6 -1.32 6 -2 6 C-2.33 5.34 -2.66 4.68 -3 4 C-3.99 4.66 -4.98 5.32 -6 6 C-6.99 6 -7.98 6 -9 6 C-9 5.34 -9 4.68 -9 4 C-8.236875 3.71125 -7.47375 3.4225 -6.6875 3.125 C-4.58742065 2.24589701 -2.1647642 0 0 0 Z " fill="#1B0B0A" transform="translate(122,324)"/>
<path d="M0 0 C0 1.98 0 3.96 0 6 C-0.66 6 -1.32 6 -2 6 C-2.33 5.34 -2.66 4.68 -3 4 C-3.99 4.66 -4.98 5.32 -6 6 C-6.99 6 -7.98 6 -9 6 C-9 5.34 -9 4.68 -9 4 C-8.236875 3.71125 -7.47375 3.4225 -6.6875 3.125 C-4.58742065 2.24589701 -2.1647642 0 0 0 Z " fill="#1B0B0A" transform="translate(102,324)"/>
<path d="M0 0 C1.36125 0.37125 1.36125 0.37125 2.75 0.75 C3.08 1.74 3.41 2.73 3.75 3.75 C2.14125 3.4715625 2.14125 3.4715625 0.5 3.1875 C-2.65391546 2.8195432 -4.34818492 2.70534657 -7.25 3.75 C-4.05 -0.31153846 -4.05 -0.31153846 0 0 Z " fill="#231C1D" transform="translate(193.25,313.25)"/>
<path d="M0 0 C0.33 0 0.66 0 1 0 C1 3.96 1 7.92 1 12 C2.32 12.33 3.64 12.66 5 13 C4.67 13.33 4.34 13.66 4 14 C2.35 14 0.7 14 -1 14 C-0.67 9.38 -0.34 4.76 0 0 Z " fill="#F7E3FD" transform="translate(155,232)"/>
<path d="M0 0 C1.65 0.33 3.3 0.66 5 1 C5 1.99 5 2.98 5 4 C2.69 4 0.38 4 -2 4 C-1.34 2.68 -0.68 1.36 0 0 Z " fill="#7054FA" transform="translate(128,233)"/>
<path d="M0 0 C0.33 0 0.66 0 1 0 C1 2.31 1 4.62 1 7 C0.01 7.495 0.01 7.495 -1 8 C-1 7.34 -1 6.68 -1 6 C-2.98 6 -4.96 6 -7 6 C-7 5.34 -7 4.68 -7 4 C-4.69 4 -2.38 4 0 4 C0 2.68 0 1.36 0 0 Z " fill="#5928F9" transform="translate(103,513)"/>
<path d="M0 0 C0.66 0.99 1.32 1.98 2 3 C1.375 4.9375 1.375 4.9375 0 7 C-3.125 7.75 -3.125 7.75 -6 8 C-6 7.01 -6 6.02 -6 5 C-4.68 5 -3.36 5 -2 5 C-1.34 3.35 -0.68 1.7 0 0 Z " fill="#DBDAFD" transform="translate(174,245)"/>
<path d="M0 0 C4.75 0.75 4.75 0.75 7 3 C7 4.32 7 5.64 7 7 C5.68 6.67 4.36 6.34 3 6 C2.814375 5.071875 2.814375 5.071875 2.625 4.125 C2.12802644 1.80879168 2.12802644 1.80879168 0 0 Z " fill="#F6EAFE" transform="translate(129,231)"/>
<path d="M0 0 C1.65 0 3.3 0 5 0 C5 1.32 5 2.64 5 4 C3.02 4 1.04 4 -1 4 C-0.67 2.68 -0.34 1.36 0 0 Z " fill="#6C4AF9" transform="translate(271,233)"/>
<path d="M0 0 C1.65 0 3.3 0 5 0 C5 1.32 5 2.64 5 4 C3.02 4 1.04 4 -1 4 C-0.67 2.68 -0.34 1.36 0 0 Z " fill="#6C41FA" transform="translate(104,233)"/>
<path d="M0 0 C1.65 0 3.3 0 5 0 C4.67 1.32 4.34 2.64 4 4 C2.35 4 0.7 4 -1 4 C-0.67 2.68 -0.34 1.36 0 0 Z " fill="#5F34FA" transform="translate(135,47)"/>
<path d="M0 0 C1.9375 0.3125 1.9375 0.3125 4 1 C4.33 1.99 4.66 2.98 5 4 C2.69 4 0.38 4 -2 4 C-1.34 2.68 -0.68 1.36 0 0 Z " fill="#633EFA" transform="translate(85,40)"/>
<path d="M0 0 C0.99 0 1.98 0 3 0 C2.67 1.65 2.34 3.3 2 5 C0.68 5 -0.64 5 -2 5 C-1.125 1.125 -1.125 1.125 0 0 Z " fill="#553DF9" transform="translate(242,239)"/>
<path d="M0 0 C2.97 0 5.94 0 9 0 C8.01 0.33 7.02 0.66 6 1 C6 2.65 6 4.3 6 6 C5.34 6 4.68 6 4 6 C3.67 4.35 3.34 2.7 3 1 C2.01 0.67 1.02 0.34 0 0 Z " fill="#F7FCFE" transform="translate(256,231)"/>
<path d="M0 0 C1.65 0 3.3 0 5 0 C4.67 1.32 4.34 2.64 4 4 C2.35 4 0.7 4 -1 4 C-0.67 2.68 -0.34 1.36 0 0 Z " fill="#5838F9" transform="translate(223,47)"/>
<path d="M0 0 C1.65 0 3.3 0 5 0 C5.33 0.66 5.66 1.32 6 2 C5.67 2.66 5.34 3.32 5 4 C3.35 4 1.7 4 0 4 C0 2.68 0 1.36 0 0 Z " fill="#A59CFB" transform="translate(412,511)"/>
<path d="M0 0 C1.65 0 3.3 0 5 0 C5.33 0.66 5.66 1.32 6 2 C5.67 2.66 5.34 3.32 5 4 C3.35 4 1.7 4 0 4 C0 2.68 0 1.36 0 0 Z " fill="#A597FB" transform="translate(269,511)"/>
<path d="M0 0 C0.66 0.33 1.32 0.66 2 1 C1.67 1.99 1.34 2.98 1 4 C-1.87137415 4 -4.2303041 3.72886734 -7 3 C-7.33 2.34 -7.66 1.68 -8 1 C-6.865625 1.020625 -5.73125 1.04125 -4.5625 1.0625 C-1.18424326 1.41577477 -1.18424326 1.41577477 0 0 Z " fill="#2C1700" transform="translate(213,412)"/>
<path d="M0 0 C1.99954746 -0.04254356 4.00041636 -0.04080783 6 0 C7 1 7 1 7.0625 3.5625 C7.041875 4.366875 7.02125 5.17125 7 6 C6.34 5.01 5.68 4.02 5 3 C1.91634129 2.7497843 1.91634129 2.7497843 -1 3 C-0.67 2.01 -0.34 1.02 0 0 Z " fill="#2E1E00" transform="translate(170,401)"/>
<path d="M0 0 C0.33 0 0.66 0 1 0 C1 3.63 1 7.26 1 11 C1.66 11 2.32 11 3 11 C3 11.66 3 12.32 3 13 C1.68 13 0.36 13 -1 13 C-0.67 8.71 -0.34 4.42 0 0 Z " fill="#F4DDFD" transform="translate(247,233)"/>
<path d="M0 0 C0.33 0 0.66 0 1 0 C1 2.97 1 5.94 1 9 C0.01 8.67 -0.98 8.34 -2 8 C-1.125 1.125 -1.125 1.125 0 0 Z " fill="#372300" transform="translate(177,407)"/>
<path d="M0 0 C0.66 0.33 1.32 0.66 2 1 C0.625 3.5 0.625 3.5 -1 6 C-1.66 6 -2.32 6 -3 6 C-3.33 7.32 -3.66 8.64 -4 10 C-3.38461538 3.47692308 -3.38461538 3.47692308 -1.4375 1.0625 C-0.7259375 0.5365625 -0.7259375 0.5365625 0 0 Z " fill="#4A3100" transform="translate(257,401)"/>
<path d="M0 0 C0.33 0 0.66 0 1 0 C1.07347656 1.04800781 1.07347656 1.04800781 1.1484375 2.1171875 C1.22320312 3.02726563 1.29796875 3.93734375 1.375 4.875 C1.44460937 5.77992188 1.51421875 6.68484375 1.5859375 7.6171875 C1.79568132 10.17941903 1.79568132 10.17941903 4 12 C2.02 12 0.04 12 -2 12 C-1.67 11.34 -1.34 10.68 -1 10 C-0.77377919 8.29636178 -0.59111527 6.58671299 -0.4375 4.875 C-0.35371094 3.96492187 -0.26992187 3.05484375 -0.18359375 2.1171875 C-0.12300781 1.41851562 -0.06242188 0.71984375 0 0 Z " fill="#FCE7FD" transform="translate(221,234)"/>
<path d="M0 0 C1.670625 0.061875 1.670625 0.061875 3.375 0.125 C3.045 0.785 2.715 1.445 2.375 2.125 C0.70999557 2.46653937 -0.95678677 2.79949498 -2.625 3.125 C-3.285 3.785 -3.945 4.445 -4.625 5.125 C-4.955 4.135 -5.285 3.145 -5.625 2.125 C-3.625 0.125 -3.625 0.125 0 0 Z " fill="#E0D6FD" transform="translate(90.625,224.875)"/>
<path d="M0 0 C2.97 0.495 2.97 0.495 6 1 C6 1.99 6 2.98 6 4 C3.36 3.67 0.72 3.34 -2 3 C-1.34 2.01 -0.68 1.02 0 0 Z " fill="#1E191A" transform="translate(150,313)"/>
<path d="M0 0 C0.66 0.66 1.32 1.32 2 2 C0.88625 2.45375 -0.2275 2.9075 -1.375 3.375 C-4.96199008 4.72465986 -4.96199008 4.72465986 -7 7 C-6.875 5.1875 -6.875 5.1875 -6 3 C-2.9375 1.25 -2.9375 1.25 0 0 Z " fill="#D3D9FE" transform="translate(243,237)"/>
<path d="M0 0 C0 1.32 0 2.64 0 4 C-0.99 4 -1.98 4 -3 4 C-3 3.34 -3 2.68 -3 2 C-3.99 2.33 -4.98 2.66 -6 3 C-6 2.34 -6 1.68 -6 1 C-4 0 -4 0 0 0 Z " fill="#EEEAFE" transform="translate(228,231)"/>
</svg>
