<?xml version="1.0" encoding="UTF-8"?>
<svg version="1.1" xmlns="http://www.w3.org/2000/svg" width="613" height="718">
<path d="M0 0 C202.29 0 404.58 0 613 0 C613 236.94 613 473.88 613 718 C410.71 718 208.42 718 0 718 C0 481.06 0 244.12 0 0 Z " fill="#00FDBA" transform="translate(0,0)"/>
<path d="M0 0 C0.65786225 -0.00235223 1.31572449 -0.00470446 1.99352196 -0.00712797 C4.20140329 -0.01379328 6.40922544 -0.0133605 8.61711597 -0.01294994 C10.21472777 -0.01625009 11.81233874 -0.01997598 13.40994865 -0.02409142 C17.80315767 -0.03410211 22.19635303 -0.03782671 26.58957183 -0.04048073 C31.32660335 -0.04438647 36.06362407 -0.05396453 40.80064869 -0.0626936 C52.24105251 -0.08244891 63.68145721 -0.09252238 75.12187383 -0.10142139 C80.50950775 -0.10580524 85.89714068 -0.11117174 91.28477383 -0.11641026 C109.19399499 -0.13342051 127.10321554 -0.14791522 145.01244354 -0.155159 C149.65913551 -0.15706888 154.30582747 -0.15898922 158.95251942 -0.16094494 C160.6848813 -0.16167055 160.6848813 -0.16167055 162.45224039 -0.16241082 C181.16579154 -0.17071319 199.87927882 -0.19605453 218.59280207 -0.22852562 C237.80548077 -0.26159111 257.018127 -0.27960724 276.23083431 -0.28280324 C287.01815046 -0.28496865 297.80537343 -0.29372206 308.59266186 -0.31926441 C317.77833407 -0.3409643 326.96389045 -0.34902525 336.14958539 -0.33929763 C340.83539114 -0.33475108 345.52095784 -0.3366599 350.20673084 -0.35605907 C354.49955542 -0.37367784 358.79196632 -0.37270353 363.08479521 -0.35716178 C364.63461657 -0.35478378 366.18446647 -0.35911931 367.73424419 -0.37099043 C379.70111352 -0.45694975 388.90987283 1.32635539 398.31018543 9.07953358 C405.75391184 16.56595822 408.65593361 25.7223465 408.68909168 36.12250233 C408.69574848 36.86574253 408.70240528 37.60898273 408.7092638 38.37474537 C408.71933069 39.93867002 408.72408268 41.50263711 408.72375965 43.06659412 C408.72812399 45.4303694 408.76447907 47.79226058 408.80237293 50.15570545 C408.89103657 61.93213032 407.03451655 70.82917863 399.41174793 80.09125233 C392.60569385 86.84564756 384.10851789 90.38164696 374.58046722 90.38869667 C373.92115154 90.39190315 373.26183585 90.39510963 372.5825409 90.39841327 C370.37567438 90.40670742 368.16907966 90.40079113 365.96220875 90.39491749 C364.36302029 90.39793845 362.76383328 90.40182765 361.16464883 90.40651006 C356.77174493 90.41680609 352.3789225 90.41460414 347.98601186 90.41032946 C343.24765061 90.40786513 338.50930913 90.4168728 333.77095509 90.42436695 C324.48827268 90.43712447 315.20561918 90.4389063 305.92292949 90.43656669 C298.37785597 90.43478442 290.83279124 90.43653122 283.28771877 90.44079113 C282.21429006 90.44138632 281.14086134 90.44198151 280.03490448 90.44259473 C277.85428927 90.44380647 275.67367405 90.44502061 273.49305884 90.44623711 C253.03690592 90.45711687 232.58076949 90.45494819 212.12461565 90.44885226 C193.41046231 90.44368365 174.69636103 90.45493632 155.98221799 90.47395048 C136.7683788 90.49332273 117.55456425 90.5015859 98.34071523 90.49782723 C87.55290979 90.49591414 76.76514866 90.49841323 65.97735119 90.51254177 C56.79278006 90.52444878 47.6082805 90.52586814 38.4237084 90.5137516 C33.73806365 90.50785794 29.05254986 90.50677696 24.3669138 90.51875401 C20.07546756 90.5295959 15.78426188 90.52652961 11.49282698 90.51249232 C9.94238551 90.50984071 8.3919253 90.51222651 6.84150221 90.52022818 C-5.32321148 90.5786398 -15.01611945 89.14771226 -24.64684582 81.13422108 C-33.90423744 71.56824974 -35.28569136 60.68228599 -35.11339855 47.92059803 C-35.08435507 45.57246895 -35.09284028 43.22659507 -35.10583019 40.8783617 C-35.08975908 28.93261855 -33.51106876 19.51827137 -25.64684582 10.13422108 C-17.9870446 3.11655888 -10.34554066 0.01579716 0 0 Z " fill="#EAFEFB" transform="translate(77.64684581756592,91.86577892303467)"/>
<path d="M0 0 C5.44167855 3.08829708 9.24688014 6.94470248 13.01171875 11.8984375 C14.24921875 11.14046875 14.24921875 11.14046875 15.51171875 10.3671875 C25.90848332 4.37040324 34.88492768 2.83200986 46.66796875 5.828125 C56.71458097 9.35365635 62.49768154 14.05146701 67.74609375 23.25 C69.34406907 26.59391133 70.23272422 29.95727982 71.16796875 33.53125 C72.35337446 36.85697157 74.37422713 39.13344756 76.61328125 41.8203125 C78.24086311 44.2389537 78.74882835 46.31521002 79.38671875 49.1484375 C80.24916004 52.70279659 80.24916004 52.70279659 82.7578125 55.17578125 C84.14240232 55.78562894 85.53600453 56.37538828 86.9375 56.9453125 C90.77241244 58.70749449 93.19854361 61.08747302 95.01171875 64.8984375 C95.89177495 69.97617184 96.23508869 75.16779321 94.0859375 79.96484375 C91.43455937 83.41077168 88.02145913 85.39478486 84.01171875 86.8984375 C81.13671875 87.0859375 81.13671875 87.0859375 79.01171875 86.8984375 C80.00171875 88.043125 80.00171875 88.043125 81.01171875 89.2109375 C84.01618521 93.75532764 83.88597512 98.66050153 83.01171875 103.8984375 C80.72035423 109.29045699 77.40086838 111.71513147 72.01171875 113.8984375 C68.54183383 114.34067658 65.09800095 114.32892216 61.60351562 114.31835938 C60.56864517 114.32682892 59.53377472 114.33529846 58.46754456 114.34402466 C55.05506013 114.36737739 51.64302695 114.36841731 48.23046875 114.3671875 C45.85444966 114.37428921 43.4784323 114.38198822 41.10241699 114.39025879 C36.12600941 114.40369902 31.14976048 114.40527395 26.17333984 114.39941406 C19.7975364 114.39351327 13.42249319 114.42412842 7.04683685 114.46453094 C2.14145814 114.49038153 -2.76373676 114.49328781 -7.66917419 114.48963928 C-10.01991184 114.49133245 -12.3706578 114.50099378 -14.72132874 114.51878357 C-18.00809664 114.54092393 -21.29331543 114.53129561 -24.58007812 114.51367188 C-25.54960922 114.52693512 -26.51914032 114.54019836 -27.51805115 114.55386353 C-31.97196434 114.49838681 -35.03159397 114.34419443 -38.57629395 111.48498535 C-41.859195 107.96449391 -42.40283147 105.8625714 -42.33203125 101.00390625 C-41.69681767 97.11322307 -39.91481086 95.50686607 -36.98828125 92.8984375 C-33.67578125 92.0234375 -33.67578125 92.0234375 -30.98828125 91.8984375 C-30.98828125 90.2484375 -30.98828125 88.5984375 -30.98828125 86.8984375 C-31.55675781 86.94484375 -32.12523437 86.99125 -32.7109375 87.0390625 C-38.55155688 87.31207977 -42.41241582 86.63138035 -46.98828125 82.8984375 C-50.96617038 79.11302688 -54.01420227 75.41821841 -54.98828125 69.8984375 C-55.07884063 61.99389713 -53.11928646 57.50383743 -47.92578125 51.5234375 C-45.98828125 49.8984375 -45.98828125 49.8984375 -42.98828125 49.8984375 C-43.42140625 49.44855469 -43.85453125 48.99867188 -44.30078125 48.53515625 C-48.54023056 43.63819975 -49.88486077 39.95017742 -49.515625 33.45703125 C-48.52520947 28.65168184 -45.98691681 26.23086121 -41.92578125 23.5234375 C-39.98828125 22.8984375 -39.98828125 22.8984375 -35.98828125 22.8984375 C-36.09140625 22.0940625 -36.19453125 21.2896875 -36.30078125 20.4609375 C-35.7320196 13.97705472 -32.36193339 8.82140008 -27.55078125 4.5234375 C-19.68025818 -1.96263211 -9.64059989 -3.55378976 0 0 Z " fill="#CAE3E8" transform="translate(286.98828125,263.1015625)"/>
<path d="M0 0 C202.29 0 404.58 0 613 0 C613 236.94 613 473.88 613 718 C608.38 718 603.76 718 599 718 C600.11375 716.9171875 600.11375 716.9171875 601.25 715.8125 C609.12555418 707.75795595 610.29937652 701.65382152 610.25726891 690.67986488 C610.26252802 688.95346684 610.26252802 688.95346684 610.26789337 687.19219208 C610.27560402 683.99217664 610.27435138 680.79230831 610.26933783 677.59229209 C610.26607219 674.11291446 610.27435291 670.63356123 610.28115618 667.15419137 C610.29146774 661.05429576 610.29429797 654.95443189 610.29224396 648.85452843 C610.289197 639.78375514 610.29751112 630.71301704 610.30799321 621.64225058 C610.32734833 604.50044614 610.33296198 587.35865365 610.33410732 570.21683957 C610.33502589 556.981445 610.33913984 543.74605512 610.34550858 530.51066208 C610.34730362 526.70292644 610.34908325 522.8951908 610.35085833 519.08745515 C610.35130043 518.14088419 610.35174252 517.19431323 610.35219802 516.2190583 C610.36450854 489.58933574 610.37239892 462.95961482 610.37151146 436.3298893 C610.3714803 435.32562502 610.37144914 434.32136075 610.37141704 433.28666423 C610.37125082 428.19645593 610.37105274 423.10624763 610.37084763 418.01603933 C610.37080774 417.00507691 610.37076785 415.9941145 610.37072675 414.95251686 C610.37064587 412.90810456 610.37056228 410.86369226 610.37047596 408.81927997 C610.36925017 377.00417619 610.38426799 345.18911502 610.41162109 313.37402344 C610.44232784 277.64336514 610.45955447 241.91273484 610.45769465 206.18206251 C610.45754538 202.37369816 610.45744797 198.56533381 610.45738602 194.75696945 C610.45736271 193.81922866 610.4573394 192.88148787 610.45731538 191.91533069 C610.45725379 176.81115538 610.47003664 161.707017 610.48725055 146.60285267 C610.50418638 131.42909966 610.50619694 116.25540082 610.4930319 101.0816436 C610.48562926 92.06278751 610.48933983 83.04409574 610.50891658 74.02525699 C610.52088526 68.00354125 610.51836034 61.98194496 610.50397559 55.96023478 C610.49618616 52.52748255 610.4947361 49.09504908 610.51089029 45.6623189 C610.52493174 41.96518962 610.51448632 38.26891683 610.49777794 34.5718174 C610.5077143 33.50519804 610.51765066 32.43857868 610.52788812 31.33963752 C610.45719009 23.97541695 609.16726657 18.74576274 604.2890625 12.9765625 C603.73992188 12.53054688 603.19078125 12.08453125 602.625 11.625 C602.08101562 11.16351563 601.53703125 10.70203125 600.9765625 10.2265625 C595.33678172 6.72677759 589.74717209 6.71348603 583.33530617 6.74273109 C581.87735954 6.73747198 581.87735954 6.73747198 580.38995945 6.73210663 C577.11958638 6.7227722 573.84939059 6.72772126 570.57901001 6.73257446 C568.21602113 6.72883925 565.85303349 6.72423824 563.49004781 6.71884382 C558.34546343 6.7091456 553.20091359 6.70570096 548.0563221 6.70775604 C540.40607925 6.71080459 532.75587809 6.70248535 525.10564335 6.69200679 C510.64791339 6.67265742 496.1901976 6.66703824 481.73245622 6.66589268 C470.56895329 6.66497391 459.40545593 6.6608589 448.2419548 6.65449142 C445.02961934 6.65269637 441.81728387 6.65091674 438.6049484 6.64914167 C437.80637588 6.64869957 437.00780335 6.64825748 436.18503166 6.64780198 C413.72066853 6.63549245 391.25630734 6.62760098 368.79194069 6.62848854 C367.52131906 6.62853528 367.52131906 6.62853528 366.22502831 6.62858296 C361.93157423 6.62874917 357.63812015 6.62894726 353.34466608 6.62915237 C352.49195527 6.62919226 351.63924446 6.62923215 350.76069392 6.62927325 C349.03630512 6.62935413 347.31191631 6.62943772 345.5875275 6.62952404 C318.7536425 6.63074978 291.91980804 6.61573247 265.0859375 6.58837891 C234.9454759 6.55766744 204.8050475 6.54044582 174.66456926 6.54230535 C171.45160508 6.54245462 168.23864091 6.54255203 165.02567673 6.54261398 C164.23454989 6.54263729 163.44342305 6.5426606 162.62832267 6.54268462 C149.88963986 6.5427462 137.15100088 6.52996727 124.4123311 6.51274945 C111.61341482 6.49580779 98.81456275 6.49380764 86.01564147 6.5069681 C78.40982935 6.51436684 70.80421211 6.51067183 63.19842058 6.49108342 C57.52265457 6.47769942 51.84707002 6.485169 46.17131691 6.50082986 C43.87257918 6.50391589 41.57382047 6.50020756 39.27510746 6.48910971 C36.15518168 6.47504185 33.03626702 6.48553382 29.91637611 6.50222206 C28.571538 6.48731752 28.571538 6.48731752 27.19953144 6.47211188 C20.41219698 6.54908913 15.1607652 8.2724671 9.9765625 12.74609375 C9.53054688 13.30425781 9.08453125 13.86242188 8.625 14.4375 C8.16351563 14.99308594 7.70203125 15.54867188 7.2265625 16.12109375 C4.72765792 19.94903357 3.75013954 23.41715071 3.74700034 27.96440434 C3.73872111 29.43773542 3.73872111 29.43773542 3.73027462 30.94083077 C3.73438525 32.01447363 3.73849589 33.08811648 3.74273109 34.19429398 C3.73922502 35.34377256 3.73571895 36.49325115 3.73210663 37.67756242 C3.72438725 40.87817035 3.72565292 44.07863159 3.73066217 47.27924036 C3.73392442 50.75753692 3.72564991 54.23580896 3.71884382 57.71409774 C3.70852668 63.81367574 3.70570299 69.91322199 3.70775604 76.01280785 C3.71080159 85.08317838 3.70249195 94.15351369 3.69200679 103.22387738 C3.67264591 120.36520852 3.66703779 137.50652771 3.66589268 154.64786848 C3.66497424 167.88375512 3.66086094 181.11963705 3.65449142 194.35552216 C3.65269638 198.16294344 3.65091676 201.97036473 3.64914167 205.77778602 C3.64869957 206.72427508 3.64825748 207.67076415 3.64780198 208.6459347 C3.63549024 235.27601174 3.62760119 261.90608714 3.62848854 288.53616714 C3.6285197 289.54057222 3.62855086 290.54497729 3.62858296 291.57981887 C3.62874918 296.67077004 3.62894726 301.7617212 3.62915237 306.85267237 C3.62919226 307.86378593 3.62923215 308.87489948 3.62927325 309.91665285 C3.62935413 311.96137188 3.62943772 314.0060909 3.62952404 316.05080993 C3.63074964 347.86576005 3.61573599 379.68066755 3.58837891 411.49560547 C3.55766881 447.22480119 3.54044577 482.95396891 3.54230535 518.68317866 C3.54245462 522.49185737 3.54255203 526.30053607 3.54261398 530.10921478 C3.54263729 531.04703465 3.5426606 531.98485452 3.54268462 532.95109317 C3.5427462 548.05419612 3.52996519 563.15726213 3.51274945 578.26035409 C3.49580932 593.43536665 3.49380641 608.61032505 3.5069681 623.78534183 C3.51436815 632.80398254 3.51066789 641.82245891 3.49108342 650.84108226 C3.47910797 656.86396622 3.48164728 662.88673082 3.49602441 668.90960924 C3.50380813 672.34222613 3.50528017 675.77452438 3.48910971 679.20711914 C3.47505077 682.90582108 3.4855276 686.60366907 3.50222206 690.30234146 C3.4922857 691.36661966 3.48234934 692.43089785 3.47211188 693.5274269 C3.54354301 700.98683125 4.83738729 707.45170281 9.921875 713.15625 C10.52515625 713.5996875 11.1284375 714.043125 11.75 714.5 C12.84010798 715.32445142 13.92570402 716.15504811 15 717 C15 717.33 15 717.66 15 718 C10.05 718 5.1 718 0 718 C0 481.06 0 244.12 0 0 Z " fill="#232323" transform="translate(0,0)"/>
<path d="M0 0 C8.41451851 2.58371108 13.99723287 7.44061121 18.63671875 14.8671875 C19.98488559 17.77093147 20.51161694 19.57212317 21.01171875 22.6171875 C21.7903342 26.35813288 21.7903342 26.35813288 23.984375 27.328125 C25.38954603 27.77462794 26.80285715 28.19620625 28.22265625 28.59375 C31.74308185 29.92908385 33.16025967 32.31051975 35.26171875 35.3671875 C36.15386527 38.04362707 36.39712086 39.62103128 36.38671875 42.3671875 C36.39058594 43.388125 36.39058594 43.388125 36.39453125 44.4296875 C36.26171875 46.3671875 36.26171875 46.3671875 35.26171875 49.3671875 C22.06628922 49.4830475 8.87098073 49.57188622 -4.3248539 49.62624836 C-10.45226638 49.6523398 -16.5793308 49.68773071 -22.70654297 49.74438477 C-28.61988113 49.79871899 -34.53288456 49.82861144 -40.44645309 49.84157372 C-42.70232793 49.85081092 -44.95818448 49.86884912 -47.21391678 49.89583778 C-50.37429617 49.93214562 -53.53329319 49.93713195 -56.69384766 49.93481445 C-57.62605133 49.95279083 -58.558255 49.97076721 -59.51870728 49.98928833 C-63.89748123 49.95455433 -66.82280725 49.76528667 -70.30355835 46.95671082 C-73.61184695 43.43808023 -74.1530512 41.34640038 -74.08203125 36.47265625 C-73.44681767 32.58197307 -71.66481086 30.97561607 -68.73828125 28.3671875 C-65.42578125 27.4921875 -65.42578125 27.4921875 -62.73828125 27.3671875 C-62.65191406 26.71492188 -62.56554687 26.06265625 -62.4765625 25.390625 C-61.48448186 19.21970136 -60.40194812 15.61630621 -55.73828125 11.3671875 C-49.5355858 7.49050284 -42.89307824 7.65620767 -35.73828125 8.3671875 C-33.19751594 9.14863296 -31.11505749 10.15239076 -28.73828125 11.3671875 C-28.07828125 11.0371875 -27.41828125 10.7071875 -26.73828125 10.3671875 C-24.40529465 10.32696359 -22.07121459 10.32398503 -19.73828125 10.3671875 C-19.71765625 9.6659375 -19.69703125 8.9646875 -19.67578125 8.2421875 C-16.59715764 -1.1989249 -8.46539604 -1.95633974 0 0 Z " fill="#EFF4F6" transform="translate(318.73828125,327.6328125)"/>
<path d="M0 0 C6.83772826 4.88927826 12.67335314 11.97252647 14.3125 20.375 C15.37754806 31.19048804 13.38538379 40.45574944 7.046875 49.3359375 C0.70603754 56.79070586 -7.80246128 60.78842547 -17.484375 61.61328125 C-28.02089726 61.87808803 -36.00177833 58.65535661 -43.6875 51.375 C-50.68124367 43.13124332 -53.35100665 33.98689985 -53.03515625 23.26171875 C-52.00464935 14.70503787 -46.8550746 6.82309104 -40.2890625 1.390625 C-27.65360944 -7.79189644 -13.45665583 -8.18310152 0 0 Z " fill="#E8FEFA" transform="translate(556.6875,108.625)"/>
<path d="M0 0 C7.44017824 4.55880012 12.37314683 12.79851273 15 21 C16.16444992 31.8495382 15.48361616 40.79504953 9 50 C7.70279353 51.36850683 6.37898938 52.71394252 5 54 C1.95871087 52.89407668 -0.78672704 51.58262406 -3.5625 49.9375 C-7.83693738 47.52827166 -10.7690113 46.86242768 -15.625 46.97265625 C-16.49640625 46.98490234 -17.3678125 46.99714844 -18.265625 47.00976562 C-20.08862116 47.04492341 -21.91154618 47.08398645 -23.734375 47.12695312 C-24.60578125 47.13791016 -25.4771875 47.14886719 -26.375 47.16015625 C-27.16648437 47.17699463 -27.95796875 47.19383301 -28.7734375 47.21118164 C-31.34116058 46.96764212 -32.87407129 46.46303932 -35 45 C-35.52618615 43.05968859 -36.04212587 41.11472259 -36.4609375 39.1484375 C-38.28220078 31.88977948 -43.16679988 27.31793525 -49 23 C-50.31552372 22.29884413 -51.64446441 21.62027856 -53 21 C-52.60194436 13.23791498 -47.68110821 7.30754285 -42.1875 2.1875 C-29.53523345 -8.01976945 -14.04476448 -7.45757212 0 0 Z " fill="#F8B13E" transform="translate(343,273)"/>
<path d="M0 0 C4.44243123 3.12885814 7.82266946 7.31795744 9.90234375 12.33984375 C10.14870987 15.04001644 9.99300041 17.62014381 9.90234375 20.33984375 C6.617149 21.43490867 4.1657096 21.43944983 0.71484375 21.40234375 C-0.91517578 21.38880859 -0.91517578 21.38880859 -2.578125 21.375 C-3.40957031 21.36339844 -4.24101562 21.35179687 -5.09765625 21.33984375 C-5.195625 20.72496094 -5.29359375 20.11007812 -5.39453125 19.4765625 C-6.25403465 14.49271403 -6.25403465 14.49271403 -8.84765625 10.27734375 C-11.87962034 9.01402538 -13.83759659 8.87412094 -17.09765625 9.33984375 C-20.60297917 11.3315045 -21.85205258 12.65284048 -23.21484375 16.46484375 C-24.17258738 20.668745 -24.48178371 24.48407603 -24.47265625 28.77734375 C-24.47177002 29.52508057 -24.47088379 30.27281738 -24.4699707 31.04321289 C-24.3469008 36.76002859 -23.48269994 40.60078258 -20.09765625 45.33984375 C-16.46619082 47.7608207 -15.08924964 47.53218555 -10.96484375 46.875 C-8.93412742 46.44057121 -8.93412742 46.44057121 -7.22265625 44.65234375 C-5.90462776 41.94306296 -4.95082537 39.22749308 -4.09765625 36.33984375 C-2.13939752 36.31289524 -0.18103399 36.29347157 1.77734375 36.27734375 C3.41316406 36.25994141 3.41316406 36.25994141 5.08203125 36.2421875 C7.90234375 36.33984375 7.90234375 36.33984375 9.90234375 37.33984375 C10.65403337 43.22807914 9.2005867 46.46182625 5.7578125 51.25390625 C1.57111192 55.96063911 -3.79418544 59.03913769 -10.1015625 59.61328125 C-19.22841931 59.87376234 -25.89046651 58.88204605 -32.90234375 52.765625 C-39.36791655 45.86579731 -41.84438157 37.82715826 -41.72265625 28.52734375 C-41.71500244 27.65513184 -41.70734863 26.78291992 -41.69946289 25.88427734 C-41.38293384 16.62859051 -38.51982597 9.18694464 -31.66015625 2.77734375 C-22.44524029 -3.98425043 -10.3959661 -5.43997481 0 0 Z " fill="#F7FEFC" transform="translate(402.09765625,434.66015625)"/>
<path d="M0 0 C4.40080027 2.9270439 7.64677645 7.27299856 9.6796875 12.1171875 C10.92413896 18.93773874 9.444833 24.03699306 5.640625 29.734375 C-0.37977064 37.0499952 -8.24951417 41.2747085 -16.3203125 46.1171875 C-3.4503125 46.6121875 -3.4503125 46.6121875 9.6796875 47.1171875 C9.6796875 51.0771875 9.6796875 55.0371875 9.6796875 59.1171875 C-5.5003125 59.1171875 -20.6803125 59.1171875 -36.3203125 59.1171875 C-36.3203125 46.1171875 -36.3203125 46.1171875 -32.91796875 42.50390625 C-31.43334635 41.56012597 -29.91941016 40.66124604 -28.3828125 39.8046875 C-26.81528421 38.82025571 -25.25015633 37.83199095 -23.6875 36.83984375 C-22.93178711 36.37723145 -22.17607422 35.91461914 -21.39746094 35.43798828 C-15.35197834 31.59383444 -9.55387014 26.58430278 -6.3203125 20.1171875 C-5.56970401 17.03101479 -5.56970401 17.03101479 -6.3203125 14.1171875 C-8.27117314 11.5062765 -8.27117314 11.5062765 -11.3203125 10.1171875 C-15.62636721 10.04164268 -17.54613795 10.38375898 -20.6953125 13.3671875 C-22.28637717 16.05975848 -22.96772157 18.03201689 -23.3203125 21.1171875 C-24.73733763 20.97487942 -26.1539221 20.82818004 -27.5703125 20.6796875 C-28.75367188 20.55787109 -28.75367188 20.55787109 -29.9609375 20.43359375 C-32.14395889 20.14083757 -34.1976307 19.69654331 -36.3203125 19.1171875 C-36.04009258 12.53201931 -33.52307171 8.1468785 -29.3203125 3.1171875 C-21.74051236 -3.53335829 -9.06074571 -4.08316867 0 0 Z " fill="#F8FEFD" transform="translate(291.3203125,433.8828125)"/>
<path d="M0 0 C4.58309007 2.05448865 7.74167657 5.9445553 10.5625 10 C12.3164684 15.26190521 12.56884217 20.35487137 10.57421875 25.59765625 C5.08258609 35.60635014 -4.13986127 40.80157418 -13.4375 47 C-5.1875 47.33 3.0625 47.66 11.5625 48 C11.5625 51.96 11.5625 55.92 11.5625 60 C-3.6175 60 -18.7975 60 -34.4375 60 C-34.4375 56.04 -34.4375 52.08 -34.4375 48 C-31.07421731 44.68691556 -28.31804116 42.52605928 -24.4375 40 C-22.15722132 38.35159766 -19.91995028 36.64993276 -17.6875 34.9375 C-17.1313501 34.5151709 -16.5752002 34.0928418 -16.00219727 33.65771484 C-11.37163781 30.08527123 -7.09196038 26.30892076 -4.4375 21 C-4.17889865 16.94857881 -4.13308446 15.45662331 -6.4375 12 C-12.06138739 10.60666403 -12.06138739 10.60666403 -17.3125 12.5 C-19.88721722 15.52907908 -20.62161619 18.1430947 -21.4375 22 C-22.85452513 21.85769192 -24.2711096 21.71099254 -25.6875 21.5625 C-26.87085938 21.44068359 -26.87085938 21.44068359 -28.078125 21.31640625 C-30.26114639 21.02365007 -32.3148182 20.57935581 -34.4375 20 C-34.15890822 13.45309319 -31.73103136 8.93279047 -27.4375 4 C-25.14978331 2.26760043 -23.07005188 1.21502395 -20.4375 0 C-14.97902474 -2.72923763 -5.75093449 -1.7695183 0 0 Z " fill="#F9FEFD" transform="translate(236.4375,433)"/>
<path d="M0 0 C5.44167855 3.08829708 9.24688014 6.94470248 13.01171875 11.8984375 C11.88110374 14.28473555 10.87143272 16.06210454 9.13671875 18.0859375 C6.36965894 21.74822255 4.74364744 25.66995202 3.01171875 29.8984375 C1.83609375 29.6509375 1.83609375 29.6509375 0.63671875 29.3984375 C-8.98389364 28.07145648 -16.4264809 28.88194603 -24.98828125 33.8984375 C-28.63927774 37.09789732 -31.30601137 40.44086093 -33.36328125 44.8359375 C-35.33506356 47.33858428 -36.28894571 47.49938664 -39.36328125 48.0859375 C-43.15080967 48.27747646 -43.82865102 48.01571685 -47.05078125 45.6484375 C-50.04963656 41.17627697 -49.95119202 36.04160377 -48.98828125 30.8984375 C-47.32584489 27.59319985 -45.00649179 25.57724452 -41.92578125 23.5234375 C-39.98828125 22.8984375 -39.98828125 22.8984375 -35.98828125 22.8984375 C-36.09140625 22.0940625 -36.19453125 21.2896875 -36.30078125 20.4609375 C-35.7320196 13.97705472 -32.36193339 8.82140008 -27.55078125 4.5234375 C-19.68025818 -1.96263211 -9.64059989 -3.55378976 0 0 Z " fill="#EDF4F6" transform="translate(286.98828125,263.1015625)"/>
<path d="M0 0 C12.07611587 -0.69759334 22.89016717 -0.01253018 32.9375 7.6875 C38.82495234 13.34062588 43.96761481 21.89115512 44.265625 30.13671875 C44.27089668 31.65364561 44.26543875 33.17064254 44.25 34.6875 C44.26160156 35.84475586 44.26160156 35.84475586 44.2734375 37.02539062 C44.25345092 42.74654908 44.25345092 42.74654908 42 45 C42 44.01 42 43.02 42 42 C40.96101563 41.98582031 39.92203125 41.97164063 38.8515625 41.95703125 C27.84709708 41.64914935 20.05216835 39.97881941 11.6875 32.3125 C5.11275821 25.31186401 1.85019422 17.32883046 1.9375 7.8125 C1.94652344 6.54019531 1.95554687 5.26789063 1.96484375 3.95703125 C1.97644531 2.98121094 1.98804688 2.00539063 2 1 C1.34 0.67 0.68 0.34 0 0 Z " fill="#F3CB44" transform="translate(314,268)"/>
<path d="M0 0 C6.22423133 4.56503422 11.62602286 9.48240574 14 17 C14.144375 18.11375 14.28875 19.2275 14.4375 20.375 C14.623125 21.24125 14.80875 22.1075 15 23 C17.46255685 24.45291273 17.46255685 24.45291273 20 25 C18.69306167 26.35921586 17.35053546 27.68409365 16 29 C15.51402344 29.56332031 15.02804687 30.12664062 14.52734375 30.70703125 C12.73624871 32.58281164 11.34764656 33.8768295 9 35 C5.3920228 34.61550024 2.30011194 33.47409427 -1 32 C-1.09796875 31.43152344 -1.1959375 30.86304688 -1.296875 30.27734375 C-2.9454408 21.76449106 -6.04318621 16.0483066 -12.7265625 10.5078125 C-18.74804961 6.51418015 -25.94344977 5.65338428 -33 5 C-31.86747021 2.08778055 -30.63178302 0.37240694 -27.92578125 -1.22265625 C-18.21090495 -5.47768057 -9.26198741 -5.3478658 0 0 Z " fill="#A5D5DC" transform="translate(294,295)"/>
<path d="M0 0 C4.76307466 4.23384415 8.65530518 9.20835695 9.25 15.75 C9.75743614 18.09759235 9.75743614 18.09759235 11.62109375 18.9453125 C12.64396484 19.40550781 12.64396484 19.40550781 13.6875 19.875 C18.34364722 22.01431089 21.74796124 24.26662399 24 29 C24.8800562 34.07773434 25.22336994 39.26935571 23.07421875 44.06640625 C19.62557274 48.54852273 15.02225197 50.58805978 9.625 51.6875 C8.325625 51.8421875 8.325625 51.8421875 7 52 C7 51.34 7 50.68 7 50 C7.66 50 8.32 50 9 50 C8.86345045 40.18883358 8.86345045 40.18883358 4 32 C0.76532847 30.04571928 -2.28748284 28.71394561 -6 28 C-6.57634687 23.61976377 -5.65804765 21.10844696 -3.5625 17.375 C-0.50088176 11.70149275 -0.12029021 6.36444556 0 0 Z " fill="#A0D6DB" transform="translate(358,299)"/>
<path d="M0 0 C3.3 0 6.6 0 10 0 C12.97 5.28 15.94 10.56 19 16 C19.33 10.72 19.66 5.44 20 0 C22.31 0 24.62 0 27 0 C27 11.22 27 22.44 27 34 C19 34 19 34 17.18969727 32.47119141 C16.81901123 31.77171387 16.4483252 31.07223633 16.06640625 30.3515625 C15.64552734 29.59359375 15.22464844 28.835625 14.79101562 28.0546875 C14.38560547 27.25289062 13.98019531 26.45109375 13.5625 25.625 C13.13001953 24.8309375 12.69753906 24.036875 12.25195312 23.21875 C10.78199896 20.50428066 9.38040639 17.76081278 8 15 C7.67 21.27 7.34 27.54 7 34 C4.69 34 2.38 34 0 34 C0 22.78 0 11.56 0 0 Z " fill="#F1FEFB" transform="translate(208,525)"/>
<path d="M0 0 C2.97 0 5.94 0 9 0 C9.99 3.96 10.98 7.92 12 12 C12.99 8.04 13.98 4.08 15 0 C17.64 0 20.28 0 23 0 C23.99 3.3 24.98 6.6 26 10 C27.32 6.7 28.64 3.4 30 0 C31.98 0 33.96 0 36 0 C34.67429579 8.54730344 32.48931859 16.72241148 30 25 C27.36 25 24.72 25 22 25 C20.515 20.05 20.515 20.05 19 15 C16.81024227 18.28463659 16.00193437 21.20696275 15 25 C12.36 25 9.72 25 7 25 C5.82882795 21.20970992 4.66382785 17.41755098 3.5 13.625 C3.16613281 12.54476562 2.83226562 11.46453125 2.48828125 10.3515625 C2.17246094 9.3203125 1.85664063 8.2890625 1.53125 7.2265625 C1.23798828 6.27346191 0.94472656 5.32036133 0.64257812 4.33837891 C0 2 0 2 0 0 Z " fill="#EDFEFA" transform="translate(264,534)"/>
<path d="M0 0 C3.8026029 2.0050088 5.61790841 3.42686262 8 7 C8.3359375 9.9609375 8.3359375 9.9609375 8.375 13.375 C8.40335937 14.49648438 8.43171875 15.61796875 8.4609375 16.7734375 C7.90259671 20.68182301 6.77877837 22.24072183 4 25 C-0.06587351 27.65690744 -4.28891727 27.69824976 -9 27 C-12.33600367 24.94161475 -13.8262176 23.2606736 -16 20 C-16.6318919 15.01803123 -17.20011712 9.45823247 -14.94921875 4.84765625 C-10.64071075 -0.35051417 -6.39531056 -0.79538316 0 0 Z " fill="#F2FEFB" transform="translate(355,533)"/>
<path d="M0 0 C3.2265144 2.63388931 5.12544542 5.29381282 7.46484375 8.6875 C9.27450203 10.74051086 10.47275448 11.2762395 13.0625 12.0625 C17.09116443 13.30208905 19.41040399 15.0654082 21.984375 18.41015625 C24.04784341 22.40999538 24.11674284 26.17205572 23.0625 30.5 C20.63107254 34.73941199 17.60128275 37.64160077 13.0625 39.5 C12.0725 39.5 11.0825 39.5 10.0625 39.5 C10.2275 38.88125 10.3925 38.2625 10.5625 37.625 C11.44075119 32.13593004 11.95101575 25.82325378 10.0625 20.5 C7.21814128 18.99416303 4.52443118 18.38144246 1.375 17.6875 C0.281875 17.295625 -0.81125 16.90375 -1.9375 16.5 C-2.66654086 14.85965807 -3.32405243 13.18698082 -3.9375 11.5 C-9.86579344 5.16715111 -15.50812925 3.35722414 -23.9375 2.5 C-18.75756341 -3.45692708 -6.72544187 -3.4230388 0 0 Z " fill="#DDE9ED" transform="translate(286.9375,337.5)"/>
<path d="M0 0 C3.8026029 2.0050088 5.61790841 3.42686262 8 7 C8.59022577 11.52250916 8.52729459 15.69563971 6.8125 19.9375 C3.4975101 23.70972989 0.61089274 25.18940599 -4.375 25.5625 C-9.00398271 25.42316607 -11.37880357 23.70737165 -14.6875 20.60546875 C-17.20102077 17.53089424 -17.44728202 14.01402369 -17.42578125 10.13671875 C-16.64365115 6.21171725 -13.91214543 3.60282428 -11 1 C-7.53081128 -0.73459436 -3.79303468 -0.47173877 0 0 Z " fill="#F3FEFB" transform="translate(336,432)"/>
<path d="M0 0 C2.64 0 5.28 0 8 0 C8.33 5.94 8.66 11.88 9 18 C10.155 16.515 11.31 15.03 12.5 13.5 C16.28075787 9.18588521 16.28075787 9.18588521 19.3125 8.40234375 C21.5 8.4375 21.5 8.4375 25 9 C24.48566406 9.47566406 23.97132813 9.95132813 23.44140625 10.44140625 C21.18722213 12.98615048 19.95613357 14.71141505 19 18 C20.15682753 23.40553953 23.2955853 28.24605128 26 33 C26 33.33 26 33.66 26 34 C23.03 34 20.06 34 17 34 C13 27.375 13 27.375 13 24 C10.91738855 25.03712176 10.91738855 25.03712176 9 27 C8.18685089 30.60465748 8.18685089 30.60465748 8 34 C5.36 34 2.72 34 0 34 C0 22.78 0 11.56 0 0 Z " fill="#EDFEFA" transform="translate(384,525)"/>
<path d="M0 0 C0.73902054 -0.00570007 1.47804108 -0.01140015 2.23945618 -0.01727295 C3.80895551 -0.02674003 5.37847487 -0.03326368 6.94799805 -0.03710938 C9.33613573 -0.04676524 11.72339451 -0.07775001 14.11132812 -0.109375 C15.63671364 -0.11590998 17.16210532 -0.1211585 18.6875 -0.125 C19.39710373 -0.1373468 20.10670746 -0.1496936 20.83781433 -0.16241455 C26.38725155 -0.13781514 30.46637159 1.14100932 34.55078125 4.953125 C36.20237488 8.25631227 36.1162108 10.55385162 35.67578125 14.203125 C34.03201595 17.31453788 32.64541239 19.49206217 29.80078125 21.578125 C26.82061679 22.45464396 24.77739499 22.63735092 21.67578125 22.203125 C18.75094258 20.37764564 16.2414892 18.33454089 14.67578125 15.203125 C14.63578925 13.20352488 14.63231326 11.20265258 14.67578125 9.203125 C16.32578125 8.873125 17.97578125 8.543125 19.67578125 8.203125 C20.66578125 10.183125 21.65578125 12.163125 22.67578125 14.203125 C24.32578125 14.203125 25.97578125 14.203125 27.67578125 14.203125 C27.67578125 12.223125 27.67578125 10.243125 27.67578125 8.203125 C26.62600098 8.18330566 25.5762207 8.16348633 24.49462891 8.14306641 C20.60684864 8.06710302 16.71944722 7.97837202 12.83203125 7.88574219 C11.14818796 7.84741396 9.4642617 7.81256788 7.78027344 7.78125 C5.36232819 7.73568213 2.94495597 7.67767577 0.52734375 7.6171875 C-0.22791595 7.60563629 -0.98317566 7.59408508 -1.76132202 7.58218384 C-7.09647534 7.43086841 -7.09647534 7.43086841 -9.32421875 5.203125 C-8.40808572 -0.843353 -5.35870131 0.03164241 0 0 Z " fill="#DBFEF5" transform="translate(385.32421875,650.796875)"/>
<path d="M0 0 C2.31650312 1.85320249 3.79928109 3.11969049 5.1875 5.75 C5.1875 8.06 5.1875 10.37 5.1875 12.75 C-0.0925 12.75 -5.3725 12.75 -10.8125 12.75 C-9.8225 15.06 -8.8325 17.37 -7.8125 19.75 C-5.82758358 19.48323796 -5.82758358 19.48323796 -3.8125 18.75 C-3.4825 17.76 -3.1525 16.77 -2.8125 15.75 C-0.1725 15.75 2.4675 15.75 5.1875 15.75 C4.97681408 19.43700366 4.1829447 20.75512471 1.6875 23.5625 C-1.6374791 26.08820528 -4.52172204 26.42121502 -8.62890625 26.171875 C-12.10330913 25.50061291 -14.20953001 24.09902169 -16.8125 21.75 C-19.64916783 17.36605881 -19.47465909 11.79694429 -18.8125 6.75 C-17.20556865 3.5361373 -15.86913831 1.58021581 -13.0625 -0.625 C-8.39863264 -1.92051871 -4.37274106 -1.94344047 0 0 Z " fill="#F2FEFB" transform="translate(257.8125,534.25)"/>
<path d="M0 0 C2.80907699 1.76119659 3.33896525 2.89940179 5 6 C5.53212316 10.73090746 4.91321155 13.81136838 1.99487305 17.60986328 C-2.0460026 20.83478972 -4.7870585 20.64893027 -9.80078125 20.48828125 C-10.63715622 20.48120651 -11.47353119 20.47413177 -12.33525085 20.46684265 C-14.99526052 20.43894985 -17.65313139 20.37622481 -20.3125 20.3125 C-22.12041221 20.28741034 -23.92835757 20.26459833 -25.73632812 20.24414062 C-30.15837073 20.18914042 -34.57882331 20.10290643 -39 20 C-39.33 18.35 -39.66 16.7 -40 15 C-36.95248414 13.47624207 -33.7496725 13.78097736 -30.40234375 13.71875 C-29.65287979 13.70034058 -28.90341583 13.68193115 -28.13124084 13.66296387 C-24.918289 13.58415897 -21.7051258 13.51639931 -18.49194336 13.44775391 C-16.14946744 13.39614605 -13.80717848 13.33885937 -11.46484375 13.28125 C-10.73257065 13.26767456 -10.00029755 13.25409912 -9.24583435 13.2401123 C-5.83314189 13.45287613 -5.83314189 13.45287613 -3 12 C-2.95936168 10.33382885 -2.957279 8.66611905 -3 7 C-4.65 7 -6.3 7 -8 7 C-8.226875 7.804375 -8.45375 8.60875 -8.6875 9.4375 C-10 12 -10 12 -12.5625 12.875 C-13.366875 12.91625 -14.17125 12.9575 -15 13 C-16 12 -16 12 -16.375 8.75 C-16 5 -16 5 -13.625 2.125 C-9.04464155 -1.58290923 -5.61372839 -1.53628712 0 0 Z " fill="#E7FEF8" transform="translate(416,629)"/>
<path d="M0 0 C3.3 0 6.6 0 10 0 C10.34933594 0.63808594 10.69867188 1.27617188 11.05859375 1.93359375 C11.51363281 2.75988281 11.96867187 3.58617187 12.4375 4.4375 C12.88996094 5.26121094 13.34242188 6.08492187 13.80859375 6.93359375 C14.83662397 8.92308798 14.83662397 8.92308798 16 10 C17.65 6.7 19.3 3.4 21 0 C23.64 0 26.28 0 29 0 C27.72080507 4.38397458 26.01123053 7.62455343 23.4375 11.375 C18.98642633 18.70726658 18.92587402 25.65553258 19 34 C16.03 34 13.06 34 10 34 C10.03222656 33.030625 10.06445312 32.06125 10.09765625 31.0625 C10.11727636 20.66384099 7.46797464 13.87236041 1.93359375 5.1328125 C0 2 0 2 0 0 Z " fill="#F1FEFB" transform="translate(312,525)"/>
<path d="M0 0 C4.21851002 2.95084424 7.33208998 6.35143419 10.4375 10.4375 C8.81604411 13.84690056 6.83503047 16.51550974 4.4375 19.4375 C3.7775 20.4275 3.1175 21.4175 2.4375 22.4375 C-0.5625 16.4375 -0.5625 16.4375 -1.5 14.1875 C-2.86921976 11.93231451 -4.1890735 11.54792454 -6.5625 10.4375 C-7.21347656 10.08429688 -7.86445313 9.73109375 -8.53515625 9.3671875 C-14.65849304 6.27690538 -19.78198061 5.92318816 -26.5625 6.4375 C-27.738125 6.52 -28.91375 6.6025 -30.125 6.6875 C-32.72159372 7.20533787 -32.72159372 7.20533787 -33.9375 9.5 C-34.14375 10.139375 -34.35 10.77875 -34.5625 11.4375 C-34.8925 10.7775 -35.2225 10.1175 -35.5625 9.4375 C-26.72583447 -1.93970687 -13.95198512 -7.87305666 0 0 Z " fill="#D8E9EA" transform="translate(289.5625,264.5625)"/>
<path d="M0 0 C9.765625 -0.48828125 9.765625 -0.48828125 13 0 C15.36979086 2.24975243 16.71291773 3.88544529 17.53125 7.0625 C17.47256139 10.70119413 17.14754439 12.72761036 15.375 16 C13 18 13 18 9.75 18.3125 C8.8425 18.209375 7.935 18.10625 7 18 C6.67 19.98 6.34 21.96 6 24 C4.02 24 2.04 24 0 24 C0 16.08 0 8.16 0 0 Z " fill="#F1FEF8" transform="translate(295,66)"/>
<path d="M0 0 C2.64 0 5.28 0 8 0 C9.17134222 3.62350621 10.33627802 7.24903999 11.5 10.875 C11.83386719 11.90753906 12.16773438 12.94007812 12.51171875 14.00390625 C12.82753906 14.99003906 13.14335937 15.97617188 13.46875 16.9921875 C13.90864258 18.35899658 13.90864258 18.35899658 14.35742188 19.75341797 C15 22 15 22 15 24 C12.69 24 10.38 24 8 24 C7.67 22.35 7.34 20.7 7 19 C4.36 19 1.72 19 -1 19 C-1 20.65 -1 22.3 -1 24 C-2.98 24 -4.96 24 -7 24 C-5.40554307 15.73781407 -2.73981931 7.93711014 0 0 Z " fill="#EFFEF7" transform="translate(259,60)"/>
<path d="M0 0 C3.31711967 2.68192654 4.65239271 4.25348534 5.48046875 8.4140625 C5.7195229 12.69119349 5.46957314 16.07505029 2.9375 19.625 C0 22 0 22 -3.5 22.75 C-7.15718491 21.96631752 -8.91570652 21.04471965 -11.12109375 17.98046875 C-12.8517746 14.08066789 -12.65016054 10.14996088 -12 6 C-9.31426333 0.01813196 -6.44665372 -0.76485722 0 0 Z " fill="#ECFEF6" transform="translate(153,626)"/>
<path d="M0 0 C4.86259723 0 9.20687068 0.14408405 14 1 C16.58399406 3.58399406 16.3268593 4.78370365 16.375 8.375 C16.30017745 11.94310051 16.24226748 13.59932687 14.375 16.6875 C11.40654286 18.32796316 9.34134421 18.30375856 6 18 C6 19.98 6 21.96 6 24 C4.02 24 2.04 24 0 24 C0 16.08 0 8.16 0 0 Z " fill="#F3FEF7" transform="translate(276,66)"/>
<path d="M0 0 C1.98 0 3.96 0 6 0 C6.66 2.31 7.32 4.62 8 7 C8.66 4.69 9.32 2.38 10 0 C11.98 0 13.96 0 16 0 C16.66 1.98 17.32 3.96 18 6 C18.99 4.02 19.98 2.04 21 0 C22.32 0 23.64 0 25 0 C24.41632611 6.30367803 22.95928381 11.98660063 21 18 C19.02 18 17.04 18 15 18 C14.34 16.02 13.68 14.04 13 12 C12.67 12 12.34 12 12 12 C11.34 13.98 10.68 15.96 10 18 C8.35 18 6.7 18 5 18 C4.16112944 15.56427941 3.32873471 13.12666783 2.5 10.6875 C2.14228516 9.65206055 2.14228516 9.65206055 1.77734375 8.59570312 C0.76791737 5.61068511 0 3.17341086 0 0 Z " fill="#EDFEF6" transform="translate(115,66)"/>
<path d="M0 0 C1.98 0 3.96 0 6 0 C6.33 2.31 6.66 4.62 7 7 C8.32 4.69 9.64 2.38 11 0 C12.98 0 14.96 0 17 0 C16.29875 1.03125 15.5975 2.0625 14.875 3.125 C13.09829599 6.2621247 13.09829599 6.2621247 13.5625 9.875 C14.036875 10.90625 14.51125 11.9375 15 13 C15.55682927 14.61986695 16.09787011 16.24522644 16.625 17.875 C16.88539063 18.65617188 17.14578125 19.43734375 17.4140625 20.2421875 C17.60742188 20.82226562 17.80078125 21.40234375 18 22 C16.02 22 14.04 22 12 22 C10.68 19.36 9.36 16.72 8 14 C7.34 16.64 6.68 19.28 6 22 C4.02 22 2.04 22 0 22 C0 14.74 0 7.48 0 0 Z " fill="#EEFEF6" transform="translate(471,626)"/>
<path d="M0 0 C0.33 1.32 0.66 2.64 1 4 C2.03125 4.061875 3.0625 4.12375 4.125 4.1875 C8.98213866 5.2059323 10.52665259 6.52665259 14 10 C16.22655638 13.41105439 16.21234516 16.23212254 16.125 20.25 C16.10695313 21.32765625 16.08890625 22.4053125 16.0703125 23.515625 C16.04710937 24.33546875 16.02390625 25.1553125 16 26 C15.34 26 14.68 26 14 26 C13.67 26.66 13.34 27.32 13 28 C12.62875 27.54625 12.2575 27.0925 11.875 26.625 C10.01679265 24.760686 10.01679265 24.760686 7.01953125 24.296875 C4 23 4 23 2.64453125 20.1015625 C2.36996094 18.95429688 2.09539062 17.80703125 1.8125 16.625 C0.74585216 12.30970327 -0.22984898 9.46268877 -3 6 C-2.73495121 2.99611368 -2.16695725 2.16695725 0 0 Z " fill="#C3E0E6" transform="translate(351,323)"/>
<path d="M0 0 C1.98 0 3.96 0 6 0 C6.33 2.31 6.66 4.62 7 7 C7.33 6.67 7.66 6.34 8 6 C10.9375 5.8125 10.9375 5.8125 14 6 C16 8 16 8 16.1953125 11.6953125 C16.182009 13.17200108 16.15814835 14.64862358 16.125 16.125 C16.11597656 16.87910156 16.10695312 17.63320312 16.09765625 18.41015625 C16.0740687 20.27357254 16.03819719 22.13682593 16 24 C14.02 24 12.04 24 10 24 C10 19.38 10 14.76 10 10 C8.68 10.33 7.36 10.66 6 11 C6 15.29 6 19.58 6 24 C4.02 24 2.04 24 0 24 C0 16.08 0 8.16 0 0 Z " fill="#E9FEFA" transform="translate(193,60)"/>
<path d="M0 0 C3.4585388 -0.05375967 6.91624908 -0.09355681 10.375 -0.125 C11.35984375 -0.14175781 12.3446875 -0.15851562 13.359375 -0.17578125 C14.77089844 -0.18544922 14.77089844 -0.18544922 16.2109375 -0.1953125 C17.51490479 -0.21102295 17.51490479 -0.21102295 18.84521484 -0.22705078 C21 0 21 0 23 2 C23.1953125 5.2578125 23.1953125 5.2578125 23.125 9.125 C23.10695313 10.40632812 23.08890625 11.68765625 23.0703125 13.0078125 C23.04710937 13.99523437 23.02390625 14.98265625 23 16 C21.35 16 19.7 16 18 16 C17.67 12.04 17.34 8.08 17 4 C16.34 4 15.68 4 15 4 C14.67 7.96 14.34 11.92 14 16 C12.35 16 10.7 16 9 16 C8.67 12.04 8.34 8.08 8 4 C7.34 4 6.68 4 6 4 C5.67 7.96 5.34 11.92 5 16 C3.35 16 1.7 16 0 16 C0 10.72 0 5.44 0 0 Z " fill="#F5FEFA" transform="translate(491,632)"/>
<path d="M0 0 C4.25960375 0.95623758 6.1905215 2.40523885 9.0625 5.6875 C9.92207764 9.82165914 9.07068027 13.65477893 8.0625 17.6875 C8.44157282 19.87453385 8.44157282 19.87453385 9.0625 21.6875 C8.0725 21.3575 7.0825 21.0275 6.0625 20.6875 C5.7325 20.0275 5.4025 19.3675 5.0625 18.6875 C3.825 18.77 2.5875 18.8525 1.3125 18.9375 C-1.94622649 18.94903532 -2.68499429 18.88173516 -5.375 16.8125 C-7.98182356 13.26721996 -8.44742194 11.10682351 -7.9375 6.6875 C-5.62159957 3.0093052 -4.3052543 1.00761271 0 0 Z " fill="#E6F9F6" transform="translate(536.9375,123.3125)"/>
<path d="M0 0 C1.32 0 2.64 0 4 0 C4.3125 3.3125 4.3125 3.3125 4 7 C3.1853125 7.4021875 2.370625 7.804375 1.53125 8.21875 C-1.43135961 9.86294503 -1.43135961 9.86294503 -1.70703125 13.79296875 C-1.76665328 15.25702079 -1.80098298 16.7222797 -1.8125 18.1875 C-1.83763672 18.93708984 -1.86277344 19.68667969 -1.88867188 20.45898438 C-1.94747576 22.30542621 -1.97661734 24.15277002 -2 26 C-4.64 26 -7.28 26 -10 26 C-10 17.75 -10 9.5 -10 1 C-7 1 -4 1 -1 1 C-0.67 0.67 -0.34 0.34 0 0 Z " fill="#F6FFFC" transform="translate(377,533)"/>
<path d="M0 0 C0.7734375 -0.00515625 1.546875 -0.0103125 2.34375 -0.015625 C4.5 0.25 4.5 0.25 7.5 2.25 C7.72107787 5.0385289 7.78107535 7.59653181 7.6875 10.375 C7.66719727 11.50615234 7.66719727 11.50615234 7.64648438 12.66015625 C7.61109985 14.52374127 7.55729167 16.38695978 7.5 18.25 C5.85 18.25 4.2 18.25 2.5 18.25 C2.17 17.59 1.84 16.93 1.5 16.25 C0.84 16.91 0.18 17.57 -0.5 18.25 C-3.6642235 18.58661952 -5.68513382 18.74943411 -8.4375 17.0625 C-9.5 15.25 -9.5 15.25 -9.3125 12.6875 C-8.5 10.25 -8.5 10.25 -6.5 8.25 C-3.84462628 7.68479997 -1.20855287 7.51211802 1.5 7.25 C1.17 6.59 0.84 5.93 0.5 5.25 C-3.955 5.745 -3.955 5.745 -8.5 6.25 C-7.15648857 0.87595426 -5.22529022 -0.03483527 0 0 Z " fill="#E6FEF7" transform="translate(169.5,65.75)"/>
<path d="M0 0 C1.79244141 0.01740234 1.79244141 0.01740234 3.62109375 0.03515625 C5.41740234 0.04869141 5.41740234 0.04869141 7.25 0.0625 C8.17683594 0.07410156 9.10367187 0.08570313 10.05859375 0.09765625 C10.05859375 1.41765625 10.05859375 2.73765625 10.05859375 4.09765625 C7.08859375 4.09765625 4.11859375 4.09765625 1.05859375 4.09765625 C1.05859375 5.08765625 1.05859375 6.07765625 1.05859375 7.09765625 C2.66734375 6.97390625 2.66734375 6.97390625 4.30859375 6.84765625 C8.05859375 7.09765625 8.05859375 7.09765625 10.49609375 8.72265625 C12.55651146 11.85449117 12.73534825 13.41310398 12.05859375 17.09765625 C10.06225986 19.96738621 8.58629492 21.7497639 5.0859375 22.546875 C1.54383835 22.73887664 -0.56550197 22.37018685 -3.44140625 20.28515625 C-4.94140625 18.09765625 -4.94140625 18.09765625 -4.94140625 15.09765625 C-2.56640625 14.91015625 -2.56640625 14.91015625 0.05859375 15.09765625 C1.04859375 16.58265625 1.04859375 16.58265625 2.05859375 18.09765625 C3.04859375 17.76765625 4.03859375 17.43765625 5.05859375 17.09765625 C5.05859375 15.44765625 5.05859375 13.79765625 5.05859375 12.09765625 C3.73859375 12.09765625 2.41859375 12.09765625 1.05859375 12.09765625 C-0.60807292 12.09765625 -2.27473958 12.09765625 -3.94140625 12.09765625 C-3.96827904 10.28523573 -3.9877434 8.47270392 -4.00390625 6.66015625 C-4.01550781 5.65082031 -4.02710938 4.64148438 -4.0390625 3.6015625 C-3.89749299 -0.02827964 -3.67773118 0.12210263 0 0 Z " fill="#ECFEF8" transform="translate(456.94140625,625.90234375)"/>
<path d="M0 0 C1.79244141 0.01740234 1.79244141 0.01740234 3.62109375 0.03515625 C5.41740234 0.04869141 5.41740234 0.04869141 7.25 0.0625 C8.17683594 0.07410156 9.10367188 0.08570313 10.05859375 0.09765625 C10.05859375 1.41765625 10.05859375 2.73765625 10.05859375 4.09765625 C7.08859375 4.09765625 4.11859375 4.09765625 1.05859375 4.09765625 C1.05859375 5.08765625 1.05859375 6.07765625 1.05859375 7.09765625 C2.66734375 6.97390625 2.66734375 6.97390625 4.30859375 6.84765625 C8.05859375 7.09765625 8.05859375 7.09765625 10.49609375 8.72265625 C12.55651146 11.85449117 12.73534825 13.41310398 12.05859375 17.09765625 C10.06225986 19.96738621 8.58629492 21.7497639 5.0859375 22.546875 C1.54383835 22.73887664 -0.56550197 22.37018685 -3.44140625 20.28515625 C-4.94140625 18.09765625 -4.94140625 18.09765625 -4.94140625 15.09765625 C-2.56640625 14.91015625 -2.56640625 14.91015625 0.05859375 15.09765625 C1.04859375 16.58265625 1.04859375 16.58265625 2.05859375 18.09765625 C3.04859375 17.76765625 4.03859375 17.43765625 5.05859375 17.09765625 C5.05859375 15.44765625 5.05859375 13.79765625 5.05859375 12.09765625 C3.73859375 12.09765625 2.41859375 12.09765625 1.05859375 12.09765625 C-0.60807292 12.09765625 -2.27473958 12.09765625 -3.94140625 12.09765625 C-3.96827904 10.28523573 -3.9877434 8.47270392 -4.00390625 6.66015625 C-4.01550781 5.65082031 -4.02710937 4.64148438 -4.0390625 3.6015625 C-3.89749299 -0.02827964 -3.67773118 0.12210263 0 0 Z " fill="#ECFEF8" transform="translate(127.94140625,625.90234375)"/>
<path d="M0 0 C2.9375 1.625 2.9375 1.625 5 4 C5.3125 7.25 5.3125 7.25 5 10 C1.37 10 -2.26 10 -6 10 C-5.01 11.485 -5.01 11.485 -4 13 C0.455 12.505 0.455 12.505 5 12 C4 16 4 16 1 18 C-4.05760286 18.65259392 -4.05760286 18.65259392 -7 18 C-10.33657872 15.08049362 -11.81898463 13.29296691 -12.4375 8.875 C-12.01236223 6.08123751 -11.57899473 4.3269396 -10 2 C-6.2626144 -0.4915904 -4.42668417 -0.45793285 0 0 Z " fill="#E7FEF7" transform="translate(224,66)"/>
<path d="M0 0 C2.9375 1.625 2.9375 1.625 5 4 C5.3125 7.25 5.3125 7.25 5 10 C1.37 10 -2.26 10 -6 10 C-5.01 11.485 -5.01 11.485 -4 13 C0.455 12.505 0.455 12.505 5 12 C4 16 4 16 1 18 C-4.05760286 18.65259392 -4.05760286 18.65259392 -7 18 C-10.33657872 15.08049362 -11.81898463 13.29296691 -12.4375 8.875 C-12.01236223 6.08123751 -11.57899473 4.3269396 -10 2 C-6.2626144 -0.4915904 -4.42668417 -0.45793285 0 0 Z " fill="#E7FEF7" transform="translate(153,66)"/>
<path d="M0 0 C2.9375 1.625 2.9375 1.625 5 4 C5.3125 7.25 5.3125 7.25 5 10 C1.37 10 -2.26 10 -6 10 C-5.01 11.485 -5.01 11.485 -4 13 C0.455 12.505 0.455 12.505 5 12 C4 16 4 16 1 18 C-4.05760286 18.65259392 -4.05760286 18.65259392 -7 18 C-10.33657872 15.08049362 -11.81898463 13.29296691 -12.4375 8.875 C-12.01236223 6.08123751 -11.57899473 4.3269396 -10 2 C-6.2626144 -0.4915904 -4.42668417 -0.45793285 0 0 Z " fill="#E7FEF7" transform="translate(99,66)"/>
<path d="M0 0 C4.89292532 -0.09911652 9.78526221 -0.17158399 14.67895508 -0.21972656 C16.34247013 -0.23980207 18.00591496 -0.26706876 19.66918945 -0.30175781 C22.0647924 -0.35045766 24.45945992 -0.37300856 26.85546875 -0.390625 C27.96513252 -0.42159271 27.96513252 -0.42159271 29.09721375 -0.45318604 C32.788885 -0.45477859 34.812917 -0.12059871 37.9465332 1.89941406 C40.39069531 4.39966026 40.92688977 5.34200793 41.3125 8.8125 C40.92835642 12.7307645 39.70743683 14.21293267 37 17 C34.11138291 18.44430855 32.20352299 18.37688506 29 18 C26.125 15.8125 26.125 15.8125 24 13 C23.6875 10.1875 23.6875 10.1875 24 8 C24.66 8 25.32 8 26 8 C26.66 9.65 27.32 11.3 28 13 C31.40320934 13.67673447 31.40320934 13.67673447 35 14 C37.31563087 12.11499729 37.31563087 12.11499729 37.25 9 C37.31563087 5.88500271 37.31563087 5.88500271 35 4 C32.35212211 3.75456859 29.80096177 3.62650614 27.1484375 3.5859375 C26.37440582 3.56657135 25.60037415 3.5472052 24.80288696 3.5272522 C22.32703725 3.4674017 19.85114117 3.42104989 17.375 3.375 C15.69789623 3.33682518 14.02081216 3.29777375 12.34375 3.2578125 C8.22932647 3.16169591 4.11481114 3.07768561 0 3 C0 2.01 0 1.02 0 0 Z " fill="#13FEBF" transform="translate(378,653)"/>
<path d="M0 0 C3.69186542 2.59216083 4.82883761 4.04149064 5.625 8.5 C4.84922564 12.84433642 3.38221335 14.26201776 0 17 C-3.06594594 18.53297297 -6.27111853 18.12131455 -9.6328125 18.09765625 C-10.76056595 18.09553383 -10.76056595 18.09553383 -11.91110229 18.09336853 C-14.3157751 18.08776465 -16.72035527 18.07521157 -19.125 18.0625 C-20.75390491 18.0574855 -22.38281127 18.0529225 -24.01171875 18.04882812 C-28.00784827 18.03779397 -32.00390842 18.02052679 -36 18 C-36 17.01 -36 16.02 -36 15 C-34.98574951 14.98018066 -33.97149902 14.96036133 -32.92651367 14.93994141 C-29.16356576 14.86386977 -25.40100377 14.77515509 -21.63842773 14.68261719 C-20.00992451 14.64433382 -18.38133691 14.60947976 -16.75268555 14.578125 C-14.41163986 14.53245998 -12.0711747 14.47446923 -9.73046875 14.4140625 C-8.63813179 14.39673569 -8.63813179 14.39673569 -7.52372742 14.37905884 C-3.83038626 14.27121488 -2.15173586 14.10115724 1 12 C1.36297936 10.02252878 1.36297936 10.02252878 1.1875 7.875 C1.125625 6.59625 1.06375 5.3175 1 4 C-1.64 4 -4.28 4 -7 4 C-7.99 5.98 -8.98 7.96 -10 10 C-10.66 10 -11.32 10 -12 10 C-11.51834131 3.61802233 -11.51834131 3.61802233 -9.375 1.0625 C-5.97380129 -0.4590889 -3.68717269 -0.51749792 0 0 Z " fill="#19FEC0" transform="translate(414,630)"/>
<path d="M0 0 C1.65 0 3.3 0 5 0 C5.33 1.65 5.66 3.3 6 5 C6.94875 4.95875 7.8975 4.9175 8.875 4.875 C12 5 12 5 14 7 C14.1953125 10.2578125 14.1953125 10.2578125 14.125 14.125 C14.10695313 15.40632812 14.08890625 16.68765625 14.0703125 18.0078125 C14.04710937 18.99523437 14.02390625 19.98265625 14 21 C12.35 21 10.7 21 9 21 C8.67 17.04 8.34 13.08 8 9 C7.34 9 6.68 9 6 9 C5.67 12.96 5.34 16.92 5 21 C3.35 21 1.7 21 0 21 C0 14.07 0 7.14 0 0 Z " fill="#F6FEF5" transform="translate(534,627)"/>
<path d="M0 0 C1.98 0 3.96 0 6 0 C6 6.27 6 12.54 6 19 C9.3 19 12.6 19 16 19 C16 20.65 16 22.3 16 24 C10.72 24 5.44 24 0 24 C0 16.08 0 8.16 0 0 Z " fill="#F2FFFC" transform="translate(45,60)"/>
<path d="M0 0 C0 5.94 0 11.88 0 18 C1.98 18 3.96 18 6 18 C6 19.32 6 20.64 6 22 C0.06 22 -5.88 22 -12 22 C-12 20.68 -12 19.36 -12 18 C-9.69 18 -7.38 18 -5 18 C-5 14.04 -5 10.08 -5 6 C-6.32 6.99 -7.64 7.98 -9 9 C-9.66 9 -10.32 9 -11 9 C-11 7.35 -11 5.7 -11 4 C-4.5 0 -4.5 0 0 0 Z " fill="#F7FEFB" transform="translate(445,626)"/>
<path d="M0 0 C2.31 0 4.62 0 7 0 C7.66 2.31 8.32 4.62 9 7 C9.99 4.69 10.98 2.38 12 0 C13.65 0 15.3 0 17 0 C15.41039668 6.23440168 13.72399099 12.16287645 11 18 C9.35 18 7.7 18 6 18 C4.02 12.06 2.04 6.12 0 0 Z " fill="#E9FEF4" transform="translate(70,66)"/>
<path d="M0 0 C1.65 0 3.3 0 5 0 C5 1.98 5 3.96 5 6 C6.32 6 7.64 6 9 6 C9 7.32 9 8.64 9 10 C7.68 10 6.36 10 5 10 C5.33 12.97 5.66 15.94 6 19 C6.99 19.33 7.98 19.66 9 20 C9 21.32 9 22.64 9 24 C5.625 24.125 5.625 24.125 2 24 C0 22 0 22 -0.1953125 19.1796875 C-0.17210937 18.08914062 -0.14890625 16.99859375 -0.125 15.875 C-0.10695312 14.77929688 -0.08890625 13.68359375 -0.0703125 12.5546875 C-0.04710937 11.71164063 -0.02390625 10.86859375 0 10 C-0.99 10 -1.98 10 -3 10 C-3 8.68 -3 7.36 -3 6 C-2.01 6 -1.02 6 0 6 C0 4.02 0 2.04 0 0 Z " fill="#F9FFFC" transform="translate(182,60)"/>
<path d="M0 0 C3.63 0 7.26 0 11 0 C11 1.65 11 3.3 11 5 C10.03320312 5.32097656 10.03320312 5.32097656 9.046875 5.6484375 C6.72160885 6.8473523 6.72160885 6.8473523 6.390625 9.6015625 C6.34421875 10.59929687 6.2978125 11.59703125 6.25 12.625 C6.19328125 13.62789062 6.1365625 14.63078125 6.078125 15.6640625 C6.05234375 16.43492188 6.0265625 17.20578125 6 18 C4.02 18 2.04 18 0 18 C0 12.06 0 6.12 0 0 Z " fill="#E7FEF9" transform="translate(232,66)"/>
<path d="M0 0 C0.99 0 1.98 0 3 0 C3.33 -0.33 3.66 -0.66 4 -1 C6.4375 -1.1875 6.4375 -1.1875 9 -1 C11 1 11 1 11.1875 4.0625 C11 7 11 7 10 8 C5.96839809 8.26293056 4.44107266 8.29404844 1 6 C0.67 6.66 0.34 7.32 0 8 C-2.31 7.67 -4.62 7.34 -7 7 C-7 4.69 -7 2.38 -7 0 C-4.31581667 -1.34209166 -2.88064523 -0.63233676 0 0 Z " fill="#DFFEF3" transform="translate(502,663)"/>
<path d="M0 0 C2.26274788 0.35355436 3.95088852 0.97544426 6 2 C6.08142927 3.7492214 6.13938541 5.49954542 6.1875 7.25 C6.22230469 8.22453125 6.25710938 9.1990625 6.29296875 10.203125 C5.96075202 13.37468742 5.11327721 14.67040307 3 17 C1.0625 16.6875 1.0625 16.6875 -1 16 C-2.02766017 12.91701949 -2.16598738 10.66869574 -2.1875 7.4375 C-2.20167969 6.46683594 -2.21585937 5.49617187 -2.23046875 4.49609375 C-2 2 -2 2 0 0 Z " fill="#15FEBF" transform="translate(349,538)"/>
<path d="M0 0 C4.25960375 0.95623758 6.1905215 2.40523885 9.0625 5.6875 C9.92207764 9.82165914 9.07068027 13.65477893 8.0625 17.6875 C8.44157282 19.87453385 8.44157282 19.87453385 9.0625 21.6875 C8.0725 21.3575 7.0825 21.0275 6.0625 20.6875 C5.7325 20.0275 5.4025 19.3675 5.0625 18.6875 C3.825 18.77 2.5875 18.8525 1.3125 18.9375 C-1.94622649 18.94903532 -2.68499429 18.88173516 -5.375 16.8125 C-7.98182356 13.26721996 -8.44742194 11.10682351 -7.9375 6.6875 C-5.62159957 3.0093052 -4.3052543 1.00761271 0 0 Z M-5.9375 6.6875 C-6.54725382 10.34602292 -6.38293026 11.99262879 -4.375 15.125 C-1.91126884 17.02191535 -1.91126884 17.02191535 1.6875 16.625 C5.31766924 16.0124155 5.31766924 16.0124155 7.0625 12.6875 C7.52899698 9.03327364 7.53246298 7.34892938 5.375 4.3125 C3.17674686 2.53557743 3.17674686 2.53557743 0.5625 2.1875 C-2.80763879 2.86152776 -3.95427007 3.8962875 -5.9375 6.6875 Z " fill="#787C7B" transform="translate(536.9375,123.3125)"/>
<path d="M0 0 C0.66 0 1.32 0 2 0 C2 0.99 2 1.98 2 3 C3.98 3 5.96 3 8 3 C8.33 3.66 8.66 4.32 9 5 C9.33 4.34 9.66 3.68 10 3 C10.99 3 11.98 3 13 3 C12.01 6.63 11.02 10.26 10 14 C8.35 14.33 6.7 14.66 5 15 C5 14.34 5 13.68 5 13 C5.66 13 6.32 13 7 13 C6.34 10.36 5.68 7.72 5 5 C4.34 5 3.68 5 3 5 C3 6.65 3 8.3 3 10 C3.66 10 4.32 10 5 10 C5 10.66 5 11.32 5 12 C3.35 12 1.7 12 0 12 C-0.66 9.03 -1.32 6.06 -2 3 C-1.34 3 -0.68 3 0 3 C0 2.01 0 1.02 0 0 Z " fill="#E5FEF7" transform="translate(179,659)"/>
<path d="M0 0 C1.98 0 3.96 0 6 0 C6 5.94 6 11.88 6 18 C4.02 18 2.04 18 0 18 C0 12.06 0 6.12 0 0 Z " fill="#F1FFF3" transform="translate(63,66)"/>
<path d="M0 0 C0.99 0 1.98 0 3 0 C1.35526763 6.18336092 -1.92553087 11.39655866 -5.125 16.875 C-5.68832031 17.84953125 -6.25164063 18.8240625 -6.83203125 19.828125 C-8.21650363 22.22161962 -9.60593541 24.6120838 -11 27 C-12.32 27 -13.64 27 -15 27 C-13.66252058 23.46238077 -12.09562161 20.23255793 -10.21484375 16.953125 C-9.68439453 16.02628906 -9.15394531 15.09945312 -8.60742188 14.14453125 C-8.05634766 13.18933594 -7.50527344 12.23414063 -6.9375 11.25 C-6.38255859 10.27933594 -5.82761719 9.30867187 -5.25585938 8.30859375 C-1.14043257 1.14043257 -1.14043257 1.14043257 0 0 Z " fill="#E6FEF3" transform="translate(528,626)"/>
<path d="M0 0 C6.86879922 0.44265595 11.9512536 1.43263461 17.375 6 C19 8 19 8 19 11 C15.66144899 10.58268112 13.07309263 9.60537338 10.125 8.0625 C6.47334167 6.15336304 2.99231989 4.99807997 -1 4 C-0.67 2.68 -0.34 1.36 0 0 Z " fill="#EDF3F5" transform="translate(325,323)"/>
<path d="M0 0 C2 2 2 2 2.375 4.4375 C2 7 2 7 0.3125 8.875 C-2.61922354 10.30124388 -3.95326554 10.04230389 -7 9 C-9 7 -9 7 -9.375 4.5625 C-9 2 -9 2 -7.3125 0.125 C-4.38077646 -1.30124388 -3.04673446 -1.04230389 0 0 Z " fill="#09FEBC" transform="translate(335,440)"/>
<path d="M0 0 C0.99 0 1.98 0 3 0 C3 1.65 3 3.3 3 5 C3.99 5 4.98 5 6 5 C6 3.35 6 1.7 6 0 C7.32 0 8.64 0 10 0 C10 3.96 10 7.92 10 12 C8.68 12 7.36 12 6 12 C6 10.35 6 8.7 6 7 C5.01 7 4.02 7 3 7 C3 8.65 3 10.3 3 12 C2.01 12 1.02 12 0 12 C0 8.04 0 4.08 0 0 Z " fill="#E8FEF0" transform="translate(123,659)"/>
<path d="M0 0 C6.75 -0.125 6.75 -0.125 9 1 C9.125 3.875 9.125 3.875 9 7 C8.34 7.66 7.68 8.32 7 9 C6.01 9 5.02 9 4 9 C4 9.99 4 10.98 4 12 C2.68 12 1.36 12 0 12 C0 8.04 0 4.08 0 0 Z " fill="#BEFEE4" transform="translate(485,662)"/>
<path d="M0 0 C4.33333333 0 8.66666667 0 13 0 C12.125 6.75 12.125 6.75 11 9 C10.4225 8.814375 9.845 8.62875 9.25 8.4375 C6.69606643 7.7761831 6.69606643 7.7761831 3 9 C2.01 6.03 1.02 3.06 0 0 Z " fill="#C0FEF3" transform="translate(432,662)"/>
<path d="M0 0 C1.97909398 -0.02686553 3.95828971 -0.04633375 5.9375 -0.0625 C7.03964844 -0.07410156 8.14179688 -0.08570313 9.27734375 -0.09765625 C12 0 12 0 13 1 C13.14115161 3.67058851 13.04247107 6.32432238 13 9 C12.01 9 11.02 9 10 9 C10 6.69 10 4.38 10 2 C9.34 2 8.68 2 8 2 C8 4.31 8 6.62 8 9 C7.01 9 6.02 9 5 9 C5 6.69 5 4.38 5 2 C4.34 2 3.68 2 3 2 C3 4.31 3 6.62 3 9 C2.01 9 1.02 9 0 9 C0 6.03 0 3.06 0 0 Z " fill="#F4FFF4" transform="translate(144,662)"/>
<path d="M0 0 C2.5 0.25 2.5 0.25 4.5 2.25 C4.84490322 6.30261287 4.80163882 7.79754176 2.5 11.25 C0 11.5625 0 11.5625 -2.5 11.25 C-4.5 9.25 -4.5 9.25 -4.75 5.75 C-4.46177779 1.71488904 -4.15174939 0.41517494 0 0 Z " fill="#AFFEE3" transform="translate(175.5,636.75)"/>
<path d="M0 0 C2.5625 0.1875 2.5625 0.1875 4.5625 2.1875 C4.8125 5.6875 4.8125 5.6875 4.5625 9.1875 C2.5625 11.1875 2.5625 11.1875 0.0625 11.5 C-1.175 11.3453125 -1.175 11.3453125 -2.4375 11.1875 C-4.4375 8.1875 -4.4375 8.1875 -4.125 4.5625 C-3.2464725 0.24972865 -3.2464725 0.24972865 0 0 Z " fill="#A1FEE8" transform="translate(163.4375,625.8125)"/>
<path d="M0 0 C0.99 0 1.98 0 3 0 C3 3.96 3 7.92 3 12 C-0.375 12.125 -0.375 12.125 -4 12 C-6 10 -6 10 -6.25 7.5 C-6 5 -6 5 -4 3 C-2.68 3 -1.36 3 0 3 C0 2.01 0 1.02 0 0 Z " fill="#E8FEED" transform="translate(466,659)"/>
<path d="M0 0 C0.99 0 1.98 0 3 0 C3 3.96 3 7.92 3 12 C-0.375 12.125 -0.375 12.125 -4 12 C-6 10 -6 10 -6.25 7.5 C-6 5 -6 5 -4 3 C-2.68 3 -1.36 3 0 3 C0 2.01 0 1.02 0 0 Z " fill="#E8FEED" transform="translate(169,659)"/>
<path d="M0 0 C1.98 0 3.96 0 6 0 C6.66 1.32 7.32 2.64 8 4 C5.83125748 3.49396008 4.00032373 3.00016187 2 2 C2 2.66 2 3.32 2 4 C3.98 4.66 5.96 5.32 8 6 C7.125 10.875 7.125 10.875 6 12 C4.00041636 12.04080783 1.99954746 12.04254356 0 12 C-0.66 10.68 -1.32 9.36 -2 8 C0.97 8.495 0.97 8.495 4 9 C2.02 7.68 0.04 6.36 -2 5 C-1.34 3.35 -0.68 1.7 0 0 Z " fill="#EBFEF7" transform="translate(476,659)"/>
<path d="M0 0 C0.99 0 1.98 0 3 0 C3 3.96 3 7.92 3 12 C0.66705225 12.04241723 -1.66702567 12.04092937 -4 12 C-5 11 -5 11 -5.0625 7.4375 C-5.041875 6.303125 -5.02125 5.16875 -5 4 C-3.35 3.67 -1.7 3.34 0 3 C0 2.01 0 1.02 0 0 Z " fill="#BEFEED" transform="translate(519,659)"/>
<path d="M0 0 C12.21 0 24.42 0 37 0 C36.67 0.99 36.34 1.98 36 3 C24.12 2.67 12.24 2.34 0 2 C0 1.34 0 0.68 0 0 Z " fill="#31FEC7" transform="translate(378,649)"/>
<path d="M0 0 C6.34257749 0.46982055 6.34257749 0.46982055 8.9375 2.5625 C9.288125 3.036875 9.63875 3.51125 10 4 C10.66 3.01 11.32 2.02 12 1 C12.66 1.33 13.32 1.66 14 2 C12.02 6.29 10.04 10.58 8 15 C7.34 15 6.68 15 6 15 C6.14308594 14.07767578 6.14308594 14.07767578 6.2890625 13.13671875 C6.39992187 12.32847656 6.51078125 11.52023438 6.625 10.6875 C6.79902344 9.48673828 6.79902344 9.48673828 6.9765625 8.26171875 C7.21533407 5.71276785 7.21533407 5.71276785 5 3 C4.01 3 3.02 3 2 3 C2 4.65 2 6.3 2 8 C2.99 8 3.98 8 5 8 C5 8.66 5 9.32 5 10 C3.35 9.67 1.7 9.34 0 9 C-0.87890625 2.84765625 -0.87890625 2.84765625 -1 1 C-0.67 0.67 -0.34 0.34 0 0 Z " fill="#848790" transform="translate(177,134)"/>
<path d="M0 0 C0.99 0 1.98 0 3 0 C4.36011539 2.72023078 4.2062431 4.9661881 4.25 8 C4.27578125 9.0725 4.3015625 10.145 4.328125 11.25 C4.21984375 12.1575 4.1115625 13.065 4 14 C3.01 14.66 2.02 15.32 1 16 C-1 14 -1 14 -1.23046875 10.99609375 C-1.21628906 9.82175781 -1.20210937 8.64742187 -1.1875 7.4375 C-1.17783203 5.67212891 -1.17783203 5.67212891 -1.16796875 3.87109375 C-1 1 -1 1 0 0 Z " fill="#05FEC0" transform="translate(148,629)"/>
<path d="M0 0 C2.5 0.25 2.5 0.25 4.5 2.25 C4.75 4.75 4.75 4.75 4.5 7.25 C2.5 9.25 2.5 9.25 0 9.5 C-2.5 9.25 -2.5 9.25 -4.5 7.25 C-4.75 4.75 -4.75 4.75 -4.5 2.25 C-2.5 0.25 -2.5 0.25 0 0 Z " fill="#868487" transform="translate(132.5,134.75)"/>
<path d="M0 0 C2.30821663 3.46232494 2.27000989 4.91798316 2.25 9 C2.25773438 10.5778125 2.25773438 10.5778125 2.265625 12.1875 C2 15 2 15 0 18 C0 16.68 0 15.36 0 14 C-1.32 13.67 -2.64 13.34 -4 13 C-4 10.03 -4 7.06 -4 4 C-2.68 4 -1.36 4 0 4 C0 2.68 0 1.36 0 0 Z " fill="#24FEBA" transform="translate(191,66)"/>
<path d="M0 0 C1.95803507 -0.05389087 3.91648909 -0.09274217 5.875 -0.125 C7.51082031 -0.15980469 7.51082031 -0.15980469 9.1796875 -0.1953125 C12 0 12 0 14 2 C14.125 5.625 14.125 5.625 14 9 C13.34 9 12.68 9 12 9 C11.67 7.02 11.34 5.04 11 3 C10.01 2.67 9.02 2.34 8 2 C8 4.31 8 6.62 8 9 C7.34 9 6.68 9 6 9 C6 6.69 6 4.38 6 2 C4.68 2 3.36 2 2 2 C2 4.31 2 6.62 2 9 C1.34 9 0.68 9 0 9 C0 6.03 0 3.06 0 0 Z " fill="#8A8087" transform="translate(216,135)"/>
<path d="M0 0 C0.99 0.33 1.98 0.66 3 1 C2.54109375 1.7734375 2.0821875 2.546875 1.609375 3.34375 C-2.54690176 10.37947734 -2.54690176 10.37947734 -6.1875 17.6875 C-8 21 -8 21 -10.11328125 21.70703125 C-10.73589844 21.80371094 -11.35851562 21.90039062 -12 22 C-10.75133587 19.64511643 -9.50110525 17.29108629 -8.25 14.9375 C-7.90195313 14.28072266 -7.55390625 13.62394531 -7.1953125 12.94726562 C-4.87417105 8.58437938 -2.47105672 4.27982572 0 0 Z " fill="#DEFEF4" transform="translate(174,626)"/>
<path d="M0 0 C0.99 0 1.98 0 3 0 C3 2.31 3 4.62 3 7 C3.66 7 4.32 7 5 7 C5 4.69 5 2.38 5 0 C5.99 0 6.98 0 8 0 C8 2.97 8 5.94 8 9 C5.66705225 9.04241723 3.33297433 9.04092937 1 9 C0 8 0 8 -0.09765625 6.15234375 C-0.06510417 4.1015625 -0.03255208 2.05078125 0 0 Z " fill="#F1FFF6" transform="translate(134,662)"/>
<path d="M0 0 C2.33294775 -0.04241723 4.66702567 -0.04092937 7 0 C8 1 8 1 8.09765625 2.84765625 C8.04882812 5.92382812 8.04882812 5.92382812 8 9 C7.01 9 6.02 9 5 9 C5 6.69 5 4.38 5 2 C4.34 2 3.68 2 3 2 C3 4.31 3 6.62 3 9 C2.01 9 1.02 9 0 9 C0 6.03 0 3.06 0 0 Z " fill="#F2FFF4" transform="translate(451,662)"/>
<path d="M0 0 C1.37478516 0.01740234 1.37478516 0.01740234 2.77734375 0.03515625 C3.69644531 0.04417969 4.61554688 0.05320312 5.5625 0.0625 C6.27277344 0.07410156 6.98304688 0.08570313 7.71484375 0.09765625 C8.27734375 2.03515625 8.27734375 2.03515625 8.71484375 4.09765625 C7.71484375 5.09765625 7.71484375 5.09765625 5.4296875 5.1953125 C4.05490234 5.17791016 4.05490234 5.17791016 2.65234375 5.16015625 C1.73324219 5.15113281 0.81414062 5.14210938 -0.1328125 5.1328125 C-0.84308594 5.12121094 -1.55335938 5.10960937 -2.28515625 5.09765625 C-2.84765625 3.16015625 -2.84765625 3.16015625 -3.28515625 1.09765625 C-2.28515625 0.09765625 -2.28515625 0.09765625 0 0 Z " fill="#CDEC95" transform="translate(371.28515625,299.90234375)"/>
<path d="M0 0 C2.0625 0.4375 2.0625 0.4375 4 1 C4.0270043 2.45823212 4.04639787 3.91660675 4.0625 5.375 C4.07410156 6.18710938 4.08570313 6.99921875 4.09765625 7.8359375 C4 10 4 10 3 12 C1.68 11.67 0.36 11.34 -1 11 C-1.02688151 9.35425434 -1.04634123 7.70838587 -1.0625 6.0625 C-1.07410156 5.14597656 -1.08570313 4.22945312 -1.09765625 3.28515625 C-1 1 -1 1 0 0 Z " fill="#D7EB93" transform="translate(322,246)"/>
<path d="M0 0 C2.625 0.375 2.625 0.375 5 1 C5.33 2.32 5.66 3.64 6 5 C4.35 5.33 2.7 5.66 1 6 C2.65 6.33 4.3 6.66 6 7 C5.67 7.66 5.34 8.32 5 9 C2.625 9.125 2.625 9.125 0 9 C-2 7 -2 7 -2.25 4.5 C-2 2 -2 2 0 0 Z " fill="#827E81" transform="translate(234,135)"/>
<path d="M0 0 C2.625 0.375 2.625 0.375 5 1 C5.33 2.32 5.66 3.64 6 5 C4.35 5.33 2.7 5.66 1 6 C2.65 6.33 4.3 6.66 6 7 C5.67 7.66 5.34 8.32 5 9 C2.625 9.125 2.625 9.125 0 9 C-2 7 -2 7 -2.25 4.5 C-2 2 -2 2 0 0 Z " fill="#7E7C7E" transform="translate(100,135)"/>
<path d="M0 0 C0.33 1.32 0.66 2.64 1 4 C-0.98 4.33 -2.96 4.66 -5 5 C-2.03 5.495 -2.03 5.495 1 6 C0.67 6.66 0.34 7.32 0 8 C-2.375 8.125 -2.375 8.125 -5 8 C-7 6 -7 6 -7.125 2.875 C-7.08375 1.92625 -7.0425 0.9775 -7 0 C-4.3333581 -1.33332095 -2.83319697 -0.67102033 0 0 Z " fill="#7A7E85" transform="translate(79,136)"/>
<path d="M0 0 C-0.1875 2.3125 -0.1875 2.3125 -1 5 C-4.31964326 7.60188256 -5.69316041 8 -10 8 C-9.875 5.6875 -9.875 5.6875 -9 3 C-5.79266696 0.97798569 -3.80845564 0 0 0 Z " fill="#DFEB92" transform="translate(372,273)"/>
<path d="M0 0 C0.42362933 3.60084929 -0.03285057 5.06003725 -1.8125 8.3125 C-2.534375 9.199375 -3.25625 10.08625 -4 11 C-4.99 11 -5.98 11 -7 11 C-5.94230769 0 -5.94230769 0 0 0 Z " fill="#DBEB92" transform="translate(352,253)"/>
<path d="M0 0 C3.82868919 1.45226142 5.2538953 3.33318013 7 7 C7 8.32 7 9.64 7 11 C5.25 10.875 5.25 10.875 3 10 C0.6875 7.1875 0.6875 7.1875 -1 4 C-0.75 1.625 -0.75 1.625 0 0 Z " fill="#DFEB92" transform="translate(295,253)"/>
<path d="M0 0 C0.99 0 1.98 0 3 0 C3.66 0.99 4.32 1.98 5 3 C5.66 3 6.32 3 7 3 C7.66 2.01 8.32 1.02 9 0 C9.99 0.33 10.98 0.66 12 1 C11.360625 1.66 10.72125 2.32 10.0625 3 C7.41087498 6.85690912 7.31332879 9.37840033 7 14 C6.34 14 5.68 14 5 14 C4.87625 12.205625 4.87625 12.205625 4.75 10.375 C4.2232071 5.95622973 2.70134013 3.48560017 0 0 Z " fill="#8A8282" transform="translate(118,130)"/>
<path d="M0 0 C1.65 0.33 3.3 0.66 5 1 C7 7.875 7 7.875 7 9 C4.69 9 2.38 9 0 9 C0 7.68 0 6.36 0 5 C1.32 4.67 2.64 4.34 4 4 C4 3.34 4 2.68 4 2 C2.68 2 1.36 2 0 2 C0 1.34 0 0.68 0 0 Z " fill="#807F8B" transform="translate(208,135)"/>
<path d="M0 0 C0.99 0 1.98 0 3 0 C4.35439668 2.70879335 4.06501451 5.00933268 4 8 C2.02 8.99 2.02 8.99 0 10 C-1 9 -1 9 -1.1328125 7.1875 C-1.13023437 6.465625 -1.12765625 5.74375 -1.125 5 C-1.12757813 4.278125 -1.13015625 3.55625 -1.1328125 2.8125 C-1 1 -1 1 0 0 Z " fill="#0DFEC4" transform="translate(302,70)"/>
<path d="M0 0 C1.32 0.33 2.64 0.66 4 1 C4.99 0.67 5.98 0.34 7 0 C6.125 6.75 6.125 6.75 5 9 C4.01 9 3.02 9 2 9 C1.34 6.03 0.68 3.06 0 0 Z " fill="#E7FEED" transform="translate(438,662)"/>
<path d="M0 0 C1.99954746 -0.04254356 4.00041636 -0.04080783 6 0 C7 1 7 1 7.09765625 2.84765625 C7.06510417 4.8984375 7.03255208 6.94921875 7 9 C6.34 9 5.68 9 5 9 C5 6.69 5 4.38 5 2 C4.01 2 3.02 2 2 2 C2 4.31 2 6.62 2 9 C1.34 9 0.68 9 0 9 C0 6.03 0 3.06 0 0 Z " fill="#86898C" transform="translate(198,135)"/>
<path d="M0 0 C1.99954746 -0.04254356 4.00041636 -0.04080783 6 0 C7 1 7 1 7.09765625 2.84765625 C7.06510417 4.8984375 7.03255208 6.94921875 7 9 C6.34 9 5.68 9 5 9 C5 6.69 5 4.38 5 2 C4.01 2 3.02 2 2 2 C2 4.31 2 6.62 2 9 C1.34 9 0.68 9 0 9 C0 6.03 0 3.06 0 0 Z " fill="#86898C" transform="translate(82,135)"/>
<path d="M0 0 C1.32 0.33 2.64 0.66 4 1 C4.14285714 8.42857143 4.14285714 8.42857143 3 12 C2.01 12 1.02 12 0 12 C0 8.04 0 4.08 0 0 Z " fill="#DCFFFC" transform="translate(485,662)"/>
<path d="M0 0 C1.32 0.66 2.64 1.32 4 2 C4.125 5.375 4.125 5.375 4 9 C2 11 2 11 -0.625 11.125 C-1.40875 11.08375 -2.1925 11.0425 -3 11 C-1.68 10.34 -0.36 9.68 1 9 C1 6.69 1 4.38 1 2 C0.34 1.67 -0.32 1.34 -1 1 C-0.67 0.67 -0.34 0.34 0 0 Z " fill="#FBFFF4" transform="translate(164,626)"/>
<path d="M0 0 C0.99 0.33 1.98 0.66 3 1 C3 3.64 3 6.28 3 9 C1.68 9 0.36 9 -1 9 C-1.09765625 2.84765625 -1.09765625 2.84765625 -1 1 C-0.67 0.67 -0.34 0.34 0 0 Z " fill="#05FEC0" transform="translate(283,70)"/>
<path d="M0 0 C2.625 0.375 2.625 0.375 5 1 C4.67 1.66 4.34 2.32 4 3 C3.01 3 2.02 3 1 3 C1 3.99 1 4.98 1 6 C2.32 6 3.64 6 5 6 C5 6.99 5 7.98 5 9 C2.625 9.125 2.625 9.125 0 9 C-2 7 -2 7 -2.25 4.5 C-2 2 -2 2 0 0 Z " fill="#83838D" transform="translate(165,135)"/>
<path d="M0 0 C0.33 0 0.66 0 1 0 C1.33 1.98 1.66 3.96 2 6 C2.99 6.33 3.98 6.66 5 7 C5 4.69 5 2.38 5 0 C5.66 0 6.32 0 7 0 C7 2.97 7 5.94 7 9 C5.00045254 9.04254356 2.99958364 9.04080783 1 9 C0 8 0 8 -0.09765625 6.15234375 C-0.06510417 4.1015625 -0.03255208 2.05078125 0 0 Z " fill="#88817F" transform="translate(140,135)"/>
<path d="M0 0 C2.01822917 0.06510417 4.03645833 0.13020833 6.0546875 0.1953125 C5.4771875 0.4428125 4.8996875 0.6903125 4.3046875 0.9453125 C0.56871387 3.02085341 -1.58922565 5.12705194 -2.9453125 9.1953125 C-3.6053125 9.1953125 -4.2653125 9.1953125 -4.9453125 9.1953125 C-3.96787568 0.39838109 -3.96787568 0.39838109 0 0 Z " fill="#0BFEBD" transform="translate(406.9453125,630.8046875)"/>
<path d="M0 0 C1.65 0.33 3.3 0.66 5 1 C5 1.66 5 2.32 5 3 C4.01 3 3.02 3 2 3 C2 4.65 2 6.3 2 8 C2.99 8 3.98 8 5 8 C5 8.66 5 9.32 5 10 C3.35 9.67 1.7 9.34 0 9 C-1.125 2.25 -1.125 2.25 0 0 Z " fill="#837F89" transform="translate(92,134)"/>
<path d="M0 0 C0.66 0.33 1.32 0.66 2 1 C0.515 4.465 0.515 4.465 -1 8 C0.65 7.67 2.3 7.34 4 7 C4.33 8.32 4.66 9.64 5 11 C2.625 11.125 2.625 11.125 0 11 C-2 9 -2 9 -2.25 5.5 C-2 2 -2 2 0 0 Z " fill="#E7FEFA" transform="translate(173,637)"/>
<path d="M0 0 C1.32 0 2.64 0 4 0 C4 0.66 4 1.32 4 2 C3.01 2.495 3.01 2.495 2 3 C2 3.99 2 4.98 2 6 C2.66 6.33 3.32 6.66 4 7 C4 7.66 4 8.32 4 9 C2.35 8.67 0.7 8.34 -1 8 C-1.04241723 5.66705225 -1.04092937 3.33297433 -1 1 C-0.67 0.67 -0.34 0.34 0 0 Z " fill="#E4FFFC" transform="translate(515,662)"/>
<path d="M0 0 C0.99 0 1.98 0 3 0 C3.33 1.98 3.66 3.96 4 6 C-0.875 7 -0.875 7 -2 7 C-2.125 4.625 -2.125 4.625 -2 2 C-1.34 1.34 -0.68 0.68 0 0 Z " fill="#A0FEE6" transform="translate(462,662)"/>
<path d="M0 0 C0.99 0 1.98 0 3 0 C3.33 1.98 3.66 3.96 4 6 C-0.875 7 -0.875 7 -2 7 C-2.125 4.625 -2.125 4.625 -2 2 C-1.34 1.34 -0.68 0.68 0 0 Z " fill="#A0FEE6" transform="translate(165,662)"/>
<path d="M0 0 C1.67542976 0.28604898 3.34385343 0.61781233 5 1 C5 2.32 5 3.64 5 5 C2.69 5 0.38 5 -2 5 C-1.125 1.125 -1.125 1.125 0 0 Z " fill="#0AFEBC" transform="translate(250,538)"/>
<path d="M0 0 C1.32 0 2.64 0 4 0 C4.66 1.98 5.32 3.96 6 6 C4.68 6.33 3.36 6.66 2 7 C0.5393715 4.35261084 0 3.10551666 0 0 Z " fill="#EEF3F6" transform="translate(344,337)"/>
<path d="M0 0 C1.98 0 3.96 0 6 0 C6 1.65 6 3.3 6 5 C4.02 5 2.04 5 0 5 C0 3.35 0 1.7 0 0 Z " fill="#F1FFF3" transform="translate(63,60)"/>
<path d="M0 0 C0.99 0.33 1.98 0.66 3 1 C1.02 4.63 -0.96 8.26 -3 12 C-3.33 12 -3.66 12 -4 12 C-3.5317879 7.22423661 -2.75668002 3.95523655 0 0 Z " fill="#E8FEED" transform="translate(174,626)"/>
<path d="M0 0 C0.99 0 1.98 0 3 0 C3 2.97 3 5.94 3 9 C2.01 9 1.02 9 0 9 C0 6.03 0 3.06 0 0 Z " fill="#F1FFF6" transform="translate(446,662)"/>
<path d="M0 0 C0.99 0 1.98 0 3 0 C3 2.97 3 5.94 3 9 C2.01 9 1.02 9 0 9 C0 6.03 0 3.06 0 0 Z " fill="#F1FFF6" transform="translate(173,662)"/>
<path d="M0 0 C0.99 0 1.98 0 3 0 C3 2.97 3 5.94 3 9 C2.01 9 1.02 9 0 9 C0 6.03 0 3.06 0 0 Z " fill="#F4FFF2" transform="translate(159,662)"/>
<path d="M0 0 C1.98 0 3.96 0 6 0 C6 0.99 6 1.98 6 3 C5.01 3 4.02 3 3 3 C2.67 4.98 2.34 6.96 2 9 C1.34 9 0.68 9 0 9 C0 6.03 0 3.06 0 0 Z " fill="#968C84" transform="translate(108,135)"/>
<path d="M0 0 C-0.33 0.99 -0.66 1.98 -1 3 C-6.61 2.67 -12.22 2.34 -18 2 C-18 1.67 -18 1.34 -18 1 C-15.75013201 0.83156069 -13.50009983 0.66531346 -11.25 0.5 C-9.37054688 0.36078125 -9.37054688 0.36078125 -7.453125 0.21875 C-4.97265229 0.06161598 -2.48544483 0 0 0 Z " fill="#22FEC3" transform="translate(396,640)"/>
<path d="M0 0 C1.98 0 3.96 0 6 0 C5.67 0.99 5.34 1.98 5 3 C4.01 2.67 3.02 2.34 2 2 C2 4.31 2 6.62 2 9 C1.34 9 0.68 9 0 9 C0 6.03 0 3.06 0 0 Z " fill="#8190A0" transform="translate(150,135)"/>
<path d="M0 0 C1.65 0.33 3.3 0.66 5 1 C5.33 2.32 5.66 3.64 6 5 C3.69 4.67 1.38 4.34 -1 4 C-0.67 2.68 -0.34 1.36 0 0 Z " fill="#9BA5AC" transform="translate(234,135)"/>
<path d="M0 0 C3.69230769 0.69230769 3.69230769 0.69230769 5 2 C5.04092937 4.33297433 5.04241723 6.66705225 5 9 C4.34 9 3.68 9 3 9 C2.896875 8.05125 2.79375 7.1025 2.6875 6.125 C2.31460705 2.70892499 2.31460705 2.70892499 -1 1 C-0.67 0.67 -0.34 0.34 0 0 Z " fill="#7F8794" transform="translate(225,135)"/>
<path d="M0 0 C0.66 0.33 1.32 0.66 2 1 C-0.97 3.97 -3.94 6.94 -7 10 C-7 7 -7 7 -4.625 4.4375 C-3.75875 3.633125 -2.8925 2.82875 -2 2 C-1.34 1.34 -0.68 0.68 0 0 Z " fill="#D5FEF3" transform="translate(213,434)"/>
<path d="M0 0 C-0.33 0.99 -0.66 1.98 -1 3 C-2.65 3 -4.3 3 -6 3 C-6.33 2.01 -6.66 1.02 -7 0 C-4.3333581 -1.33332095 -2.83319697 -0.67102033 0 0 Z " fill="#A4ABAB" transform="translate(79,136)"/>
<path d="M0 0 C0.99 0.33 1.98 0.66 3 1 C2.360625 1.66 1.72125 2.32 1.0625 3 C-1.58912502 6.85690912 -1.68667121 9.37840033 -2 14 C-2.33 14 -2.66 14 -3 14 C-3.08153933 12.41753293 -3.13943557 10.83383727 -3.1875 9.25 C-3.22230469 8.36828125 -3.25710937 7.4865625 -3.29296875 6.578125 C-2.94923684 3.55328417 -1.99772541 2.24416398 0 0 Z " fill="#7F889E" transform="translate(127,130)"/>
<path d="M0 0 C0.33 0 0.66 0 1 0 C1 1.65 1 3.3 1 5 C-2.20395416 5 -4.09399739 4.25664978 -7 3 C-7 2.67 -7 2.34 -7 2 C-4.69 2 -2.38 2 0 2 C0 1.34 0 0.68 0 0 Z " fill="#E0F9F9" transform="translate(107,138)"/>
<path d="M0 0 C1.98 0.495 1.98 0.495 4 1 C3.67 2.32 3.34 3.64 3 5 C1.68 4.67 0.36 4.34 -1 4 C-0.67 2.68 -0.34 1.36 0 0 Z " fill="#E7FDF6" transform="translate(131,137)"/>
<path d="M0 0 C2.625 0.375 2.625 0.375 5 1 C4.071875 1.3403125 4.071875 1.3403125 3.125 1.6875 C0.38589791 3.37929835 -0.05024472 4.99244161 -1 8 C-1.66 7.67 -2.32 7.34 -3 7 C-2.25 2.25 -2.25 2.25 0 0 Z " fill="#C8FEF0" transform="translate(407,633)"/>
<path d="M0 0 C0.99 0 1.98 0 3 0 C2.01 2.97 1.02 5.94 0 9 C-0.66 9 -1.32 9 -2 9 C-1.34 6.03 -0.68 3.06 0 0 Z " fill="#8D8686" transform="translate(185,140)"/>
<path d="M0 0 C0.66 0.33 1.32 0.66 2 1 C2.625 3.0625 2.625 3.0625 3 5 C1.35 5 -0.3 5 -2 5 C-2 3.68 -2 2.36 -2 1 C-1.34 0.67 -0.68 0.34 0 0 Z " fill="#ACB2A9" transform="translate(210,139)"/>
<path d="M0 0 C1.32 0.33 2.64 0.66 4 1 C4 2.65 4 4.3 4 6 C2.68 5.67 1.36 5.34 0 5 C0 3.35 0 1.7 0 0 Z " fill="#EFFEF4" transform="translate(434,665)"/>
<path d="M0 0 C0.99 0 1.98 0 3 0 C2.34 2.64 1.68 5.28 1 8 C0.01 6.68 -0.98 5.36 -2 4 C-1.34 2.68 -0.68 1.36 0 0 Z " fill="#C6FEDB" transform="translate(189,662)"/>
<path d="M0 0 C1.65 0.33 3.3 0.66 5 1 C5.33 1.99 5.66 2.98 6 4 C3.83125748 3.49396008 2.00032373 3.00016187 0 2 C-0.33 2.66 -0.66 3.32 -1 4 C-0.67 2.68 -0.34 1.36 0 0 Z " fill="#E6FEEA" transform="translate(478,659)"/>
<path d="M0 0 C0.99 0.33 1.98 0.66 3 1 C2.67 3.64 2.34 6.28 2 9 C1.34 9 0.68 9 0 9 C0 6.03 0 3.06 0 0 Z " fill="#A3967F" transform="translate(216,135)"/>
<path d="M0 0 C1.32 0.66 2.64 1.32 4 2 C4 2.66 4 3.32 4 4 C2.35 4 0.7 4 -1 4 C-1.33 4.99 -1.66 5.98 -2 7 C-2.125 4.625 -2.125 4.625 -2 2 C-1.34 1.34 -0.68 0.68 0 0 Z " fill="#B7B6AD" transform="translate(100,135)"/>
<path d="M0 0 C0.33 0 0.66 0 1 0 C1 1.65 1 3.3 1 5 C1.66 5 2.32 5 3 5 C3 5.66 3 6.32 3 7 C1.35 7 -0.3 7 -2 7 C-1.34 4.69 -0.68 2.38 0 0 Z " fill="#D2FEE0" transform="translate(181,664)"/>
<path d="M0 0 C1.42944945 2.35438733 2.08661261 3.48032433 1.625 6.25 C1.41875 6.8275 1.2125 7.405 1 8 C-0.65 8 -2.3 8 -4 8 C-2.68 7.34 -1.36 6.68 0 6 C0 4.02 0 2.04 0 0 Z " fill="#E3FFFB" transform="translate(165,629)"/>
<path d="M0 0 C1.74627478 2.61941217 2.38722388 4.03824877 3 7 C1.35 7 -0.3 7 -2 7 C-1.34 4.69 -0.68 2.38 0 0 Z " fill="#03FEC8" transform="translate(262,68)"/>
</svg>
