<?xml version="1.0" encoding="UTF-8"?>
<svg version="1.1" xmlns="http://www.w3.org/2000/svg" width="1904" height="866">
<path d="M0 0 C628.32 0 1256.64 0 1904 0 C1904 285.78 1904 571.56 1904 866 C1275.68 866 647.36 866 0 866 C0 580.22 0 294.44 0 0 Z " fill="#FEFEFE" transform="translate(0,0)"/>
<path d="M0 0 C628.32 0 1256.64 0 1904 0 C1904 25.08 1904 50.16 1904 76 C1275.68 76 647.36 76 0 76 C0 50.92 0 25.84 0 0 Z " fill="#AB19EF" transform="translate(0,0)"/>
<path d="M0 0 C11.67655982 -0.6371487 21.23494109 0.81859905 32.10009766 5.11914062 C33.01146484 5.46847656 33.92283203 5.8178125 34.86181641 6.17773438 C50.59734973 13.09528767 63.25583774 28.06328452 70.13525391 43.43164062 C76.03639595 59.56340581 76.25473165 79.55848898 69.33056641 95.41601562 C66.41251447 101.6135722 63.1902275 107.53869887 58.86572266 112.87304688 C49.90853547 124.26769872 41.86913868 136.03482942 38.10009766 150.11914062 C31.50009766 150.11914062 24.90009766 150.11914062 18.10009766 150.11914062 C20.28713424 132.62284792 29.23942329 119.44282212 39.43920898 105.53125 C47.68214256 94.27733745 53.71615967 84.6013407 53.47509766 70.30664062 C53.46494629 69.43152832 53.45479492 68.55641602 53.44433594 67.65478516 C53.09059874 52.82250208 48.47218928 41.49241773 37.66650391 31.16210938 C33.23336675 27.63314326 28.32039002 25.26784396 23.10009766 23.11914062 C22.22224609 22.74273437 21.34439453 22.36632812 20.43994141 21.97851562 C15.57166361 20.72585935 10.85664193 20.79053205 5.85009766 20.80664062 C4.86396484 20.79052734 3.87783203 20.77441406 2.86181641 20.7578125 C-9.99332283 20.74934403 -21.47423025 25.21711698 -30.89990234 34.11914062 C-40.49631597 44.92800436 -44.36516521 57.6805721 -43.83740234 71.99414062 C-42.35362069 86.71906073 -35.95447681 96.52045846 -27.39697266 108.06591797 C-18.6526191 120.05874468 -7.89990234 134.82994502 -7.89990234 150.11914062 C-14.49990234 150.11914062 -21.09990234 150.11914062 -27.89990234 150.11914062 C-28.88990234 147.14914062 -29.87990234 144.17914063 -30.89990234 141.11914062 C-34.76977695 131.68455583 -40.87718182 123.413368 -47.01318359 115.33789062 C-57.53971425 101.43878218 -64.11346574 86.71373566 -64.02490234 69.11914062 C-64.02876953 68.35085938 -64.03263672 67.58257812 -64.03662109 66.79101562 C-64.0059345 48.74730107 -56.73086733 32.78026832 -44.08349609 20.09960938 C-31.15661956 7.72702464 -17.78571721 1.11532125 0 0 Z " fill="#C8C4C5" transform="translate(952.89990234375,275.880859375)"/>
<path d="M0 0 C8.53970265 4.37999923 13.57290138 11.31636038 16.57421875 20.3203125 C17.58293282 30.10979989 15.63035817 38.90678458 9.44921875 46.6953125 C3.33778702 53.12353551 -4.8468508 56.39246304 -13.61328125 56.6328125 C-22.15835497 56.5191812 -28.42180354 53.12663322 -34.6328125 47.38671875 C-40.74117275 40.34680029 -42.8202473 32.29665945 -42.69921875 23.1953125 C-41.93470371 15.15698293 -37.33842992 8.6105771 -31.42578125 3.3203125 C-21.25764161 -3.49792423 -11.46325265 -4.67687626 0 0 Z " fill="#AD1BF0" transform="translate(1711.42578125,159.6796875)"/>
<path d="M0 0 C20.79 0 41.58 0 63 0 C63 12.73874529 62.86615486 21.10803765 54.15234375 30.171875 C46.35488728 36.79475999 38.01291477 39.23789698 27.91015625 38.578125 C18.9914245 37.25947135 11.9482827 33.17109789 6.3984375 26.078125 C0.43536489 17.21679922 0 10.92203373 0 0 Z " fill="#C7C4C4" transform="translate(926,438)"/>
<path d="M0 0 C1.28519531 -0.00386719 2.57039063 -0.00773437 3.89453125 -0.01171875 C4.56307129 -0.00543457 5.23161133 0.00084961 5.92041016 0.00732422 C7.9619433 0.02338396 10.00149708 0.00747079 12.04296875 -0.01171875 C13.32816406 -0.00785156 14.61335938 -0.00398438 15.9375 0 C17.11763672 0.00338379 18.29777344 0.00676758 19.51367188 0.01025391 C22.46875 0.3984375 22.46875 0.3984375 24.35205078 1.50146484 C26.04544135 4.37808152 25.85800453 6.83207513 25.8671875 10.1484375 C25.87005768 10.80295898 25.87292786 11.45748047 25.87588501 12.13183594 C25.87792368 13.51368069 25.87240746 14.89555443 25.85986328 16.27734375 C25.84380436 18.391282 25.85971601 20.50330863 25.87890625 22.6171875 C25.87692378 23.96094172 25.87308002 25.30469474 25.8671875 26.6484375 C25.86380371 27.87046875 25.86041992 29.0925 25.85693359 30.3515625 C25.46875 33.3984375 25.46875 33.3984375 24.35205078 35.29541016 C21.53639851 36.94450492 19.18219007 36.78757155 15.9375 36.796875 C14.65230469 36.80074219 13.36710937 36.80460937 12.04296875 36.80859375 C11.37442871 36.80230957 10.70588867 36.79602539 10.01708984 36.78955078 C7.9755567 36.77349104 5.93600292 36.78940421 3.89453125 36.80859375 C2.60933594 36.80472656 1.32414062 36.80085938 0 36.796875 C-1.18013672 36.79349121 -2.36027344 36.79010742 -3.57617188 36.78662109 C-6.53125 36.3984375 -6.53125 36.3984375 -8.41455078 35.29541016 C-10.10794135 32.41879348 -9.92050453 29.96479987 -9.9296875 26.6484375 C-9.93255768 25.99391602 -9.93542786 25.33939453 -9.93838501 24.66503906 C-9.94042368 23.28319431 -9.93490746 21.90132057 -9.92236328 20.51953125 C-9.90630436 18.405593 -9.92221601 16.29356637 -9.94140625 14.1796875 C-9.93942378 12.83593328 -9.93558002 11.49218026 -9.9296875 10.1484375 C-9.92630371 8.92640625 -9.92291992 7.704375 -9.91943359 6.4453125 C-9.53125 3.3984375 -9.53125 3.3984375 -8.41455078 1.50146484 C-5.59889851 -0.14762992 -3.24469007 0.00930345 0 0 Z " fill="#FCF9FE" transform="translate(1047.53125,16.6015625)"/>
<path d="M0 0 C1.84851563 -0.00580078 1.84851563 -0.00580078 3.734375 -0.01171875 C5.01828125 -0.00011719 6.3021875 0.01148437 7.625 0.0234375 C9.55085937 0.00603516 9.55085937 0.00603516 11.515625 -0.01171875 C12.74796875 -0.00785156 13.9803125 -0.00398438 15.25 0 C16.37664063 0.00338379 17.50328125 0.00676758 18.6640625 0.01025391 C21.96369129 0.44284046 23.37624548 0.95485845 25.625 3.3984375 C26.07910156 5.57495117 26.07910156 5.57495117 26.015625 8.06640625 C26.00273438 8.95908203 25.98984375 9.85175781 25.9765625 10.77148438 C25.94304688 11.70025391 25.90953125 12.62902344 25.875 13.5859375 C25.85695313 14.52630859 25.83890625 15.46667969 25.8203125 16.43554688 C25.77317752 18.75694486 25.7014339 21.07781944 25.625 23.3984375 C21.995 23.7284375 18.365 24.0584375 14.625 24.3984375 C14.295 28.3584375 13.965 32.3184375 13.625 36.3984375 C10.37450012 36.47940014 7.12601766 36.53891865 3.875 36.5859375 C2.95460938 36.61107422 2.03421875 36.63621094 1.0859375 36.66210938 C0.19648437 36.67177734 -0.69296875 36.68144531 -1.609375 36.69140625 C-2.42631836 36.7071167 -3.24326172 36.72282715 -4.08496094 36.73901367 C-7.07612599 36.29416556 -8.33012212 35.6415316 -10.375 33.3984375 C-10.89257812 30.3515625 -10.89257812 30.3515625 -10.90625 26.6484375 C-10.9100769 25.99391602 -10.91390381 25.33939453 -10.91784668 24.66503906 C-10.92056491 23.28318745 -10.91320951 21.90128432 -10.89648438 20.51953125 C-10.87506731 18.40508253 -10.89628239 16.29403064 -10.921875 14.1796875 C-10.9192317 12.83593001 -10.91410666 11.49217463 -10.90625 10.1484375 C-10.90173828 8.92640625 -10.89722656 7.704375 -10.89257812 6.4453125 C-10.375 3.3984375 -10.375 3.3984375 -8.74023438 1.50146484 C-5.69007212 0.0790213 -3.36437241 0.01010467 0 0 Z " fill="#FBF6FE" transform="translate(947.375,16.6015625)"/>
<path d="M0 0 C1.5625 1.9375 1.5625 1.9375 2 5.4375 C1.5625 8.9375 1.5625 8.9375 0.33203125 10.6015625 C-1.87232912 12.26578158 -3.46059579 12.46528549 -6.1875 12.8125 C-12.36019422 13.90285913 -16.26824173 16.31942968 -20.25 21.125 C-21.70622082 24.57394405 -22.27343208 27.93795113 -22.8125 31.6328125 C-23.52845126 34.27288276 -24.26828591 35.30144214 -26.4375 36.9375 C-29.375 37.375 -29.375 37.375 -32.4375 36.9375 C-34.625 35.265625 -34.625 35.265625 -36.4375 32.9375 C-37.45697989 25.02221233 -34.88433557 18.32106625 -30.4375 11.9375 C-29.756875 10.885625 -29.07625 9.83375 -28.375 8.75 C-22.34253436 1.82813237 -8.86092955 -3.86245647 0 0 Z " fill="#C9C5C5" transform="translate(962.4375,314.0625)"/>
<path d="M0 0 C0.73798828 -0.01998047 1.47597656 -0.03996094 2.23632812 -0.06054688 C7.4623187 -0.05590155 10.40645626 1.02966988 14.5625 4.4375 C17.8097126 8.44239554 17.66871694 11.40399722 17.5625 16.4375 C12.73869198 16.4621519 7.91492033 16.48033693 3.09106445 16.49243164 C1.44880536 16.49747174 -0.19344923 16.50430378 -1.83569336 16.51293945 C-4.19125479 16.52501926 -6.54675709 16.53073139 -8.90234375 16.53515625 C-9.64089096 16.54031754 -10.37943817 16.54547882 -11.1403656 16.55079651 C-12.90648088 16.5509925 -14.67247146 16.49944719 -16.4375 16.4375 C-17.4375 15.4375 -17.4375 15.4375 -17.75 12.75 C-17.35594571 8.57302447 -16.08659133 6.65936783 -13.4375 3.4375 C-9.07087683 0.03765687 -5.31191351 -0.05076546 0 0 Z " fill="#FDFCFE" transform="translate(1869.4375,38.5625)"/>
<path d="M0 0 C2.375 1.5625 2.375 1.5625 4 4 C4.11151324 8.97472938 3.02966598 11.36907203 -0.28125 15.078125 C-1.67175619 16.48449248 -3.07864065 17.874822 -4.5 19.25 C-5.18320312 19.95640625 -5.86640625 20.6628125 -6.5703125 21.390625 C-12.36705412 27.12223469 -17.76799032 30 -26 30 C-25.93883714 28.62383557 -25.84975557 27.24890621 -25.75 25.875 C-25.70359375 25.10929687 -25.6571875 24.34359375 -25.609375 23.5546875 C-24.02700444 16.92090324 -18.58119099 12.30150787 -13.875 7.6875 C-12.92560547 6.73907227 -12.92560547 6.73907227 -11.95703125 5.77148438 C-5.47214367 -0.65144568 -5.47214367 -0.65144568 0 0 Z " fill="#F8F0FD" transform="translate(49,13)"/>
<path d="M0 0 C1.17046875 0.03609375 2.3409375 0.0721875 3.546875 0.109375 C4.43890625 0.15578125 5.3309375 0.2021875 6.25 0.25 C6.25 1.57 6.25 2.89 6.25 4.25 C0.31 4.745 0.31 4.745 -5.75 5.25 C-5.75 13.5 -5.75 21.75 -5.75 30.25 C2.5 30.25 10.75 30.25 19.25 30.25 C19.58 26.29 19.91 22.33 20.25 18.25 C21.57 18.25 22.89 18.25 24.25 18.25 C24.35832169 20.33218362 24.43573541 22.41599129 24.5 24.5 C24.54640625 25.66015625 24.5928125 26.8203125 24.640625 28.015625 C24.25 31.25 24.25 31.25 22.61035156 33.41894531 C19.59462793 35.75840821 17.88249365 35.76549171 14.09375 35.78125 C12.90652344 35.78640625 11.71929687 35.7915625 10.49609375 35.796875 C9.25988281 35.78140625 8.02367187 35.7659375 6.75 35.75 C5.51378906 35.76546875 4.27757812 35.7809375 3.00390625 35.796875 C1.22306641 35.78914063 1.22306641 35.78914063 -0.59375 35.78125 C-1.67849609 35.77673828 -2.76324219 35.77222656 -3.88085938 35.76757812 C-7.48871172 35.11674023 -8.65369714 34.24046048 -10.75 31.25 C-11.26757812 28.38085938 -11.26757812 28.38085938 -11.28125 25.09375 C-11.28640625 23.90652344 -11.2915625 22.71929687 -11.296875 21.49609375 C-11.28140625 20.25988281 -11.2659375 19.02367187 -11.25 17.75 C-11.26546875 16.51378906 -11.2809375 15.27757812 -11.296875 14.00390625 C-11.29171875 12.81667969 -11.2865625 11.62945312 -11.28125 10.40625 C-11.27673828 9.32150391 -11.27222656 8.23675781 -11.26757812 7.11914062 C-10.08264167 0.55056837 -6.01849008 -0.2407396 0 0 Z " fill="#FBF6FE" transform="translate(23.75,17.75)"/>
<path d="M0 0 C2.91611944 1.84891489 5.42997066 3.85994132 7 7 C7.4136968 11.65408901 6.81070393 14.25239476 4 18 C3.01 18.66 2.02 19.32 1 20 C1.33 20.99 1.66 21.98 2 23 C4.50447516 24.21869929 4.50447516 24.21869929 7 25 C4.31478577 26.05424115 3.2933336 26.12687274 0.59765625 24.9609375 C-4.14309693 21.9952275 -8.28465683 19.19474229 -12 15 C-12.33 14.67 -12.66 14.34 -13 14 C-13.18040621 10.20362582 -13.02974122 6.47057815 -10.8046875 3.29296875 C-7.34428002 0.14961431 -4.5466397 -0.9472166 0 0 Z " fill="#A518E8" transform="translate(75,28)"/>
<path d="M0 0 C5.63501122 1.12700224 6.11918328 1.78338775 9.4375 6.125 C12.86069224 10.54636815 16.34470757 14.73549217 20 19 C20.33 12.73 20.66 6.46 21 0 C22.32 0 23.64 0 25 0 C25 9.24 25 18.48 25 28 C19.36498878 26.87299776 18.88081672 26.21661225 15.5625 21.875 C12.13930776 17.45363185 8.65529243 13.26450783 5 9 C4.67 15.27 4.34 21.54 4 28 C2.68 28 1.36 28 0 28 C0 18.76 0 9.52 0 0 Z " fill="#CBC7C8" transform="translate(731,512)"/>
<path d="M0 0 C2.85746217 1.26998319 4.48137263 2.2838003 6.3125 4.8125 C7.58476509 8.86061621 7.50914951 11.87987109 5.75 15.75 C2.96531986 19.33030304 1.09928235 19.85750044 -3.375 20.4375 C-8.1853299 19.85694294 -9.61392593 18.38607407 -13 15 C-14.45147903 12.09704195 -14.37239025 10.22738221 -14 7 C-10.25127107 0.94328498 -7.00967602 -0.47523227 0 0 Z " fill="#FCF7FE" transform="translate(1873,15)"/>
<path d="M0 0 C1.65 0 3.3 0 5 0 C5 4.29 5 8.58 5 13 C9.29 13 13.58 13 18 13 C18.495 15.475 18.495 15.475 19 18 C18 19 18 19 15.05859375 19.09765625 C11.70572917 19.06510417 8.35286458 19.03255208 5 19 C5 23.29 5 27.58 5 32 C3.35 32 1.7 32 0 32 C0 27.71 0 23.42 0 19 C-4.29 19 -8.58 19 -13 19 C-13.33 17.35 -13.66 15.7 -14 14 C-13 13 -13 13 -10.05859375 12.90234375 C-6.70572917 12.93489583 -3.35286458 12.96744792 0 13 C0 8.71 0 4.42 0 0 Z " fill="#F7EEFD" transform="translate(1696,169)"/>
<path d="M0 0 C1.32 0 2.64 0 4 0 C4 9.24 4 18.48 4 28 C0.04 28 -3.92 28 -8 28 C-12.87234043 23.12765957 -12.87234043 23.12765957 -13.375 18.6875 C-13 15 -13 15 -11 12.0625 C-6.96968211 9.29165645 -4.80160858 9.59308402 0 10 C0 6.7 0 3.4 0 0 Z " fill="#CBC7CA" transform="translate(963,512)"/>
<path d="M0 0 C1.32 0 2.64 0 4 0 C4 9.24 4 18.48 4 28 C0.04 28 -3.92 28 -8 28 C-12.87234043 23.12765957 -12.87234043 23.12765957 -13.375 18.6875 C-13 15 -13 15 -11 12.0625 C-6.96968211 9.29165645 -4.80160858 9.59308402 0 10 C0 6.7 0 3.4 0 0 Z " fill="#CBC7CA" transform="translate(943,512)"/>
<path d="M0 0 C1.32 0 2.64 0 4 0 C5.71133821 3.82585738 7.42027287 7.65277615 9.12695312 11.48071289 C9.70831827 12.78374466 10.29034814 14.08648006 10.87304688 15.38891602 C11.70876732 17.25720602 12.54211919 19.12653644 13.375 20.99609375 C14.12910156 22.68496704 14.12910156 22.68496704 14.8984375 24.40795898 C16 27 16 27 16 28 C14.35 28 12.7 28 11 28 C9.515 24.535 9.515 24.535 8 21 C4.04 20.67 0.08 20.34 -4 20 C-4.66 22.31 -5.32 24.62 -6 27 C-7.65 27.33 -9.3 27.66 -11 28 C-8.94661139 21.48529224 -6.50465317 15.21269971 -3.8125 8.9375 C-3.44447266 8.07189453 -3.07644531 7.20628906 -2.69726562 6.31445312 C-1.80127408 4.20829117 -0.90215345 2.10352808 0 0 Z " fill="#CBC7C7" transform="translate(987,512)"/>
<path d="M0 0 C1.32 0 2.64 0 4 0 C5.842305 4.10019767 7.67229455 8.20577608 9.5 12.3125 C10.02464844 13.47974609 10.54929687 14.64699219 11.08984375 15.84960938 C11.58613281 16.96787109 12.08242188 18.08613281 12.59375 19.23828125 C13.05458984 20.26993408 13.51542969 21.30158691 13.99023438 22.36450195 C15 25 15 25 15 28 C13.68 28 12.36 28 11 28 C9.515 24.535 9.515 24.535 8 21 C4.04 21 0.08 21 -4 21 C-4.99 23.31 -5.98 25.62 -7 28 C-8.32 28 -9.64 28 -11 28 C-8.62913447 18.17078667 -4.19593477 9.14933046 0 0 Z " fill="#CBC7C7" transform="translate(913,512)"/>
<path d="M0 0 C11.42307692 0 11.42307692 0 15 3 C16.61469184 6.22938367 16.58079278 9.50856753 16 13 C13.9375 16 13.9375 16 11 18 C7.1875 18.3125 7.1875 18.3125 4 18 C4 20.97 4 23.94 4 27 C2.68 27 1.36 27 0 27 C0 18.09 0 9.18 0 0 Z " fill="#C9C7CA" transform="translate(1025,522)"/>
<path d="M0 0 C11.42307692 0 11.42307692 0 15 3 C16.61469184 6.22938367 16.58079278 9.50856753 16 13 C13.9375 16 13.9375 16 11 18 C7.1875 18.3125 7.1875 18.3125 4 18 C4 20.97 4 23.94 4 27 C2.68 27 1.36 27 0 27 C0 18.09 0 9.18 0 0 Z " fill="#C9C7CA" transform="translate(1005,522)"/>
<path d="M0 0 C2.8100346 1.79363911 4.50940468 3.01880935 6 6 C6.4375 9.3125 6.4375 9.3125 6 13 C3.43230492 16.01704172 1.82448141 17.56255124 -2.00390625 18.48046875 C-5.80676455 18.7474626 -7.83719054 18.11431302 -10.9375 15.9375 C-13.41716767 12.40585211 -14.07701818 10.3130179 -14 6 C-10.36253432 0.23022685 -6.68892908 -0.96105303 0 0 Z " fill="#CBC8C9" transform="translate(774,522)"/>
<path d="M0 0 C1.32 0 2.64 0 4 0 C4 3.96 4 7.92 4 12 C8.95 12 13.9 12 19 12 C19 8.04 19 4.08 19 0 C20.32 0 21.64 0 23 0 C23 9.24 23 18.48 23 28 C21.68 28 20.36 28 19 28 C19 24.04 19 20.08 19 16 C14.05 16 9.1 16 4 16 C4 19.96 4 23.92 4 28 C2.68 28 1.36 28 0 28 C0 18.76 0 9.52 0 0 Z " fill="#C8C4C6" transform="translate(1109,512)"/>
<path d="M0 0 C3.23113684 1.87993416 5.46821356 3.2297579 6.58203125 6.9375 C6.76595955 9.1959684 6.65244307 10.82810898 6 13 C2.9812737 16.5341186 1.07887394 17.80734394 -3.5 18.625 C-8.07887394 17.80734394 -9.9812737 16.5341186 -13 13 C-13.8646014 10.1218638 -13.8646014 7.8781362 -13 5 C-9.08169048 0.41271081 -5.97706438 -1.06733293 0 0 Z " fill="#CBC7C7" transform="translate(867,522)"/>
<path d="M0 0 C2.513523 0.96673961 3.73893878 1.88134695 5.4375 3.9375 C5.788125 3.2775 6.13875 2.6175 6.5 1.9375 C8.4375 -0.0625 8.4375 -0.0625 12.125 -0.3125 C13.218125 -0.23 14.31125 -0.1475 15.4375 -0.0625 C15.4375 1.5875 15.4375 3.2375 15.4375 4.9375 C15.004375 4.4425 14.57125 3.9475 14.125 3.4375 C12.44009517 1.60531808 12.44009517 1.60531808 9.4375 1.9375 C10.68296405 5.67389216 12.07154953 6.12506513 15.4375 7.9375 C14.5625 12.8125 14.5625 12.8125 13.4375 13.9375 C11.10452567 13.97842937 8.77044775 13.97991723 6.4375 13.9375 C6.1075 12.9475 5.7775 11.9575 5.4375 10.9375 C4.90125 11.453125 4.365 11.96875 3.8125 12.5 C1.4375 13.9375 1.4375 13.9375 -1.6875 13.8125 C-4.5625 12.9375 -4.5625 12.9375 -6.5625 9.9375 C-7.03187082 6.26076194 -7.00659864 4.57897582 -4.875 1.5 C-2.5625 -0.0625 -2.5625 -0.0625 0 0 Z " fill="#9315CE" transform="translate(187.5625,34.0625)"/>
<path d="M0 0 C0.33 3.96 0.66 7.92 1 12 C1.66 11.67 2.32 11.34 3 11 C3.45375 11.94875 3.9075 12.8975 4.375 13.875 C5.80238254 17.00313679 5.80238254 17.00313679 8 19 C10.57061311 19.64767793 10.57061311 19.64767793 13 20 C12.88638398 17.20743781 12.7596411 14.41655882 12.625 11.625 C12.5940625 10.8309375 12.563125 10.036875 12.53125 9.21875 C12.48183579 4.63332625 12.48183579 4.63332625 10 1 C12.13671875 0.59375 12.13671875 0.59375 15 1 C17.25786703 2.90586274 19.00224976 5.17495229 20.8125 7.5 C21.56563477 8.43005859 21.56563477 8.43005859 22.33398438 9.37890625 C23.56943315 10.9085095 24.78654152 12.45289357 26 14 C26.33 10.04 26.66 6.08 27 2 C26.01 1.67 25.02 1.34 24 1 C26.31 1 28.62 1 31 1 C30.34 1.66 29.68 2.32 29 3 C28.69324768 5.89967757 28.48826629 8.71783178 28.375 11.625 C28.33632812 12.42679688 28.29765625 13.22859375 28.2578125 14.0546875 C28.16346069 16.03607556 28.08063785 18.01800645 28 20 C22.98749351 16.22547007 19.75036713 12.0004895 16 7 C15.67 11.29 15.34 15.58 15 20 C15.66 20.33 16.32 20.66 17 21 C12.71 21 8.42 21 4 21 C3.01 19.02 2.02 17.04 1 15 C0.67 16.65 0.34 18.3 0 20 C0.66 20.33 1.32 20.66 2 21 C-0.31 21 -2.62 21 -5 21 C-4.34 20.67 -3.68 20.34 -3 20 C-3 14.06 -3 8.12 -3 2 C-3.66 1.67 -4.32 1.34 -5 1 C-2 0 -2 0 0 0 Z " fill="#1C0643" transform="translate(125,27)"/>
<path d="M0 0 C2.4375 1.6875 2.4375 1.6875 4 4 C4 5.65 4 7.3 4 9 C0.04 9 -3.92 9 -8 9 C-7.01 10.65 -6.02 12.3 -5 14 C-0.545 13.505 -0.545 13.505 4 13 C4 14.32 4 15.64 4 17 C0.55258453 18.72370774 -3.23035339 18.50306672 -7 18 C-9.50160818 16.12379387 -10.61945652 14.76108697 -12 12 C-12.49055907 7.66672826 -12.47744439 5.67999656 -9.9375 2.0625 C-6.25937488 -0.52001338 -4.40768137 -0.72125695 0 0 Z " fill="#CBC7C7" transform="translate(1056,522)"/>
<path d="M0 0 C2.4375 1.6875 2.4375 1.6875 4 4 C4 5.65 4 7.3 4 9 C0.04 9 -3.92 9 -8 9 C-7.01 10.65 -6.02 12.3 -5 14 C-0.545 13.505 -0.545 13.505 4 13 C4 14.32 4 15.64 4 17 C0.26924499 18.243585 -3.13049698 18.64742657 -7 18 C-9.9838283 16.01078114 -11.60276841 14.61497432 -12.4765625 11.0625 C-12.76173735 7.10007055 -12.23047397 5.33523486 -9.9375 2 C-6.25623347 -0.50639423 -4.37098953 -0.71525283 0 0 Z " fill="#CBC7C7" transform="translate(808,522)"/>
<path d="M0 0 C2.9375 2.25 2.9375 2.25 5 5 C5 6.32 5 7.64 5 9 C1.04 9 -2.92 9 -7 9 C-6.67 10.32 -6.34 11.64 -6 13 C-1.98195309 13.84098656 1.01803543 14.05404945 5 13 C4.625 14.9375 4.625 14.9375 4 17 C0.76584084 18.61707958 -2.50375265 18.56822376 -6 18 C-9 16.0625 -9 16.0625 -11 13 C-11.87537601 8.64636001 -11.76724388 5.25827996 -9.4375 1.4375 C-6.00082919 -0.58925458 -3.92582814 -0.6198676 0 0 Z " fill="#CAC7C8" transform="translate(1182,522)"/>
<path d="M0 0 C2.9375 2.25 2.9375 2.25 5 5 C5 6.32 5 7.64 5 9 C1.04 9 -2.92 9 -7 9 C-6.67 10.32 -6.34 11.64 -6 13 C-1.98195309 13.84098656 1.01803543 14.05404945 5 13 C4.625 14.9375 4.625 14.9375 4 17 C0.76584084 18.61707958 -2.50375265 18.56822376 -6 18 C-9 16.0625 -9 16.0625 -11 13 C-11.87537601 8.64636001 -11.76724388 5.25827996 -9.4375 1.4375 C-6.00082919 -0.58925458 -3.92582814 -0.6198676 0 0 Z " fill="#CAC7C8" transform="translate(1148,522)"/>
<path d="M0 0 C2.0078125 0.328125 2.0078125 0.328125 3.75390625 1.42578125 C5.63148731 4.27432322 5.29528191 6.6499882 5.1953125 10.015625 C5.16824219 11.19511719 5.14117188 12.37460937 5.11328125 13.58984375 C5.07847656 14.49347656 5.04367187 15.39710938 5.0078125 16.328125 C5.6678125 16.658125 6.3278125 16.988125 7.0078125 17.328125 C5.20035116 19.13558634 2.50335469 18.50115983 0.0703125 18.515625 C-1.01121094 18.52980469 -2.09273437 18.54398438 -3.20703125 18.55859375 C-5.9921875 18.328125 -5.9921875 18.328125 -7.9921875 16.328125 C-8.3671875 13.890625 -8.3671875 13.890625 -7.9921875 11.328125 C-5.31409752 8.5508465 -2.75378731 7.85056942 1.0078125 7.328125 C0.3478125 6.338125 -0.3121875 5.348125 -0.9921875 4.328125 C-4.60211129 4.98397689 -4.60211129 4.98397689 -7.9921875 6.328125 C-6.89209272 0.1990255 -6.34104209 0.23398679 0 0 Z " fill="#CBC8C9" transform="translate(1070.9921875,521.671875)"/>
<path d="M0 0 C2.125 -0.4375 2.125 -0.4375 5 0 C7.33462754 2.083122 9.27975181 4.38711444 11 7 C11 7.66 11 8.32 11 9 C11.66 9 12.32 9 13 9 C13.2475 8.443125 13.495 7.88625 13.75 7.3125 C15.26346473 4.51259025 16.77556809 2.28798711 19 0 C21.63671875 -0.140625 21.63671875 -0.140625 24 0 C23.06398754 1.41764994 22.1261208 2.83407568 21.1875 4.25 C20.66542969 5.03890625 20.14335938 5.8278125 19.60546875 6.640625 C18 9 18 9 16.34375 10.8125 C14.40264693 13.97243523 14.43189542 17.14084716 14.3125 20.75 C14.27833984 21.44738281 14.24417969 22.14476562 14.20898438 22.86328125 C14.12691705 24.57497108 14.06177081 26.2874576 14 28 C12.68 28 11.36 28 10 28 C10.03222656 27.05640625 10.06445312 26.1128125 10.09765625 25.140625 C9.99872313 14.19202654 7.204203 9.17931735 0 1 C0 0.67 0 0.34 0 0 Z " fill="#CAC6C8" transform="translate(834,512)"/>
<path d="M0 0 C1.32 0 2.64 0 4 0 C4.33 4.62 4.66 9.24 5 14 C6.65 13.67 8.3 13.34 10 13 C10.33 8.71 10.66 4.42 11 0 C12.32 0 13.64 0 15 0 C15 5.94 15 11.88 15 18 C3.66481994 18.36565097 3.66481994 18.36565097 1.125 16.96875 C-0.63529051 13.8882416 -0.31277126 10.75264156 -0.1875 7.3125 C-0.17396484 6.61060547 -0.16042969 5.90871094 -0.14648438 5.18554688 C-0.11120182 3.45670171 -0.05739583 1.72825235 0 0 Z " fill="#CCC7C9" transform="translate(877,522)"/>
<path d="M0 0 C2.91611944 1.84891489 5.42997066 3.85994132 7 7 C7.4136968 11.65408901 6.81070393 14.25239476 4 18 C3.01 18.66 2.02 19.32 1 20 C1.33 20.99 1.66 21.98 2 23 C4.50447516 24.21869929 4.50447516 24.21869929 7 25 C4.31478577 26.05424115 3.2933336 26.12687274 0.59765625 24.9609375 C-4.14309693 21.9952275 -8.28465683 19.19474229 -12 15 C-12.33 14.67 -12.66 14.34 -13 14 C-13.18040621 10.20362582 -13.02974122 6.47057815 -10.8046875 3.29296875 C-7.34428002 0.14961431 -4.5466397 -0.9472166 0 0 Z M-7.22265625 2.16015625 C-9.22064118 3.89385125 -9.22064118 3.89385125 -9.49609375 6.55859375 C-9.47675781 7.50863281 -9.45742187 8.45867188 -9.4375 9.4375 C-9.43621094 10.38496094 -9.43492188 11.33242188 -9.43359375 12.30859375 C-8.93806151 15.38446502 -8.17930067 16.7950605 -6 19 C-2.90703144 19.45105792 -0.96332453 19.66866056 1.66015625 17.84765625 C3.56675838 15.21843524 3.43355768 13.2169355 3.4375 10 C3.45683594 8.948125 3.47617188 7.89625 3.49609375 6.8125 C3.25266075 3.92140833 3.25266075 3.92140833 1.22265625 2.125 C-1.90780506 0.54051343 -4.1108509 0.5358923 -7.22265625 2.16015625 Z " fill="#0D022C" transform="translate(75,28)"/>
<path d="M0 0 C2.32749345 3.49124017 2.50299316 4.89222251 2 9 C0.02113939 11.78506308 -1.15932233 12.81084752 -4.5 13.5625 C-7 13 -7 13 -9.375 10.875 C-11 8 -11 8 -10.9375 4.875 C-8.87468687 -1.45096026 -6.342585 -1.61447618 0 0 Z " fill="#A118E9" transform="translate(168,35)"/>
<path d="M0 0 C0.66 0.33 1.32 0.66 2 1 C2 2.32 2 3.64 2 5 C-0.31 4.67 -2.62 4.34 -5 4 C-3.33705466 5.7460926 -1.89416782 7.06349931 0.1875 8.3125 C2 10 2 10 2.4375 13.0625 C2.293125 14.031875 2.14875 15.00125 2 16 C-1.66865241 18.44576827 -3.67200343 18.23607254 -8 18 C-8.66 17.67 -9.32 17.34 -10 17 C-9.67 15.68 -9.34 14.36 -9 13 C-6.03 13.495 -6.03 13.495 -3 14 C-3 13.34 -3 12.68 -3 12 C-4.57253191 10.82493048 -4.57253191 10.82493048 -6.5 9.6875 C-9.91903202 7.3481623 -9.91903202 7.3481623 -10.625 4.3125 C-9.18016245 -1.03339892 -4.60259259 -0.2510505 0 0 Z " fill="#CDC9C9" transform="translate(825,522)"/>
<path d="M0 0 C0.33 1.32 0.66 2.64 1 4 C2.65 4 4.3 4 6 4 C6 4.99 6 5.98 6 7 C4.35 7 2.7 7 1 7 C1.33 10.63 1.66 14.26 2 18 C3.65 18 5.3 18 7 18 C6.67 19.32 6.34 20.64 6 22 C0.54545455 22.36363636 0.54545455 22.36363636 -1.6875 20.875 C-3.58347379 18.16646601 -3.29278753 16.07641345 -3.1875 12.8125 C-3.16042969 11.72582031 -3.13335938 10.63914062 -3.10546875 9.51953125 C-3.07066406 8.68808594 -3.03585937 7.85664062 -3 7 C-3.99 6.67 -4.98 6.34 -6 6 C-4.02 4.02 -2.04 2.04 0 0 Z " fill="#CAC6C6" transform="translate(787,518)"/>
<path d="M0 0 C2.9375 0.75 2.9375 0.75 4.9375 2.75 C4.75 6.25 4.75 6.25 3.9375 9.75 C0.9375 11.75 0.9375 11.75 -2.125 11.5625 C-5.0625 10.75 -5.0625 10.75 -7.0625 7.75 C-6.875 4.6875 -6.875 4.6875 -6.0625 1.75 C-3.0625 -0.25 -3.0625 -0.25 0 0 Z " fill="#FBFBFB" transform="translate(771.0625,525.25)"/>
<path d="M0 0 C1.8125 1.125 1.8125 1.125 3 3 C3.4375 6 3.4375 6 3 9 C1.3125 10.9375 1.3125 10.9375 -1 12 C-4.37036311 11.75925978 -5.58798021 11.41201979 -8 9 C-8.333728 5.86295684 -8.52849028 3.83445834 -6.8125 1.125 C-4.34492892 -0.40659584 -2.85480169 -0.42822025 0 0 Z " fill="#FCFDFD" transform="translate(866,525)"/>
<path d="M0 0 C1.32 0 2.64 0 4 0 C4.33 0.66 4.66 1.32 5 2 C5.66 1.34 6.32 0.68 7 0 C10.625 0.375 10.625 0.375 14 1 C13.34 2.32 12.68 3.64 12 5 C10.824375 4.690625 10.824375 4.690625 9.625 4.375 C8.325625 4.189375 8.325625 4.189375 7 4 C4.31907309 6.68092691 4.61329743 8.39167363 4.375 12.125 C4.30023437 13.22070312 4.22546875 14.31640625 4.1484375 15.4453125 C4.09945313 16.28835938 4.05046875 17.13140625 4 18 C2.68 18 1.36 18 0 18 C0 12.06 0 6.12 0 0 Z " fill="#CFC8C7" transform="translate(1081,522)"/>
<path d="M0 0 C2.13671875 -0.40625 2.13671875 -0.40625 5 0 C7.25786703 1.90586274 9.00224976 4.17495229 10.8125 6.5 C11.31458984 7.12003906 11.81667969 7.74007812 12.33398438 8.37890625 C13.56943315 9.9085095 14.78654152 11.45289357 16 13 C16.33 9.04 16.66 5.08 17 1 C16.01 0.67 15.02 0.34 14 0 C16.31 0 18.62 0 21 0 C20.34 0.66 19.68 1.32 19 2 C18.69324768 4.89967757 18.48826629 7.71783178 18.375 10.625 C18.33632812 11.42679688 18.29765625 12.22859375 18.2578125 13.0546875 C18.16346069 15.03607556 18.08063785 17.01800645 18 19 C14.52967596 16.3897907 11.88276453 13.80690458 9.3125 10.3125 C7.0946752 7.13815971 7.0946752 7.13815971 4 5 C4 9.29 4 13.58 4 18 C3.67 18 3.34 18 3 18 C2.92652344 16.30230469 2.92652344 16.30230469 2.8515625 14.5703125 C2.77653486 13.08851661 2.70098703 11.606747 2.625 10.125 C2.57859375 9.00544922 2.57859375 9.00544922 2.53125 7.86328125 C2.44356169 3.46526812 2.44356169 3.46526812 0 0 Z " fill="#200115" transform="translate(135,28)"/>
<path d="M0 0 C1 1 1 1 1.09765625 3.50390625 C1.08605469 4.51324219 1.07445312 5.52257812 1.0625 6.5625 C1.05347656 7.57441406 1.04445313 8.58632813 1.03515625 9.62890625 C1.02355469 10.41136719 1.01195312 11.19382812 1 12 C-4.4 12.36 -4.4 12.36 -6.875 10.875 C-8.52854531 8.11909116 -8.39365568 6.14924548 -8 3 C-5.88631201 -0.33740208 -3.77789253 -0.3976729 0 0 Z " fill="#FBFDFA" transform="translate(962,525)"/>
<path d="M0 0 C1 1 1 1 1.09765625 3.50390625 C1.08605469 4.51324219 1.07445312 5.52257812 1.0625 6.5625 C1.05347656 7.57441406 1.04445313 8.58632813 1.03515625 9.62890625 C1.02355469 10.41136719 1.01195312 11.19382812 1 12 C-4.4 12.36 -4.4 12.36 -6.875 10.875 C-8.52854531 8.11909116 -8.39365568 6.14924548 -8 3 C-5.88631201 -0.33740208 -3.77789253 -0.3976729 0 0 Z " fill="#FBFDFA" transform="translate(942,525)"/>
<path d="M0 0 C2.475 0.495 2.475 0.495 5 1 C5.33 0.67 5.66 0.34 6 0 C8.33944736 0.28730055 10.6739143 0.61936779 13 1 C12.67 2.32 12.34 3.64 12 5 C11.05125 4.79375 10.1025 4.5875 9.125 4.375 C7.578125 4.189375 7.578125 4.189375 6 4 C3.31907309 6.68092691 3.61329743 8.39167363 3.375 12.125 C3.30023437 13.22070312 3.22546875 14.31640625 3.1484375 15.4453125 C3.09945313 16.28835938 3.05046875 17.13140625 3 18 C2.01 18 1.02 18 0 18 C0 12.06 0 6.12 0 0 Z " fill="#C7C4C4" transform="translate(1157,522)"/>
<path d="M0 0 C1.32 0.66 2.64 1.32 4 2 C2.54673547 5.31642418 0.71828458 7.60832566 -1.8125 10.1875 C-2.47894531 10.88230469 -3.14539062 11.57710937 -3.83203125 12.29296875 C-6.26059921 14.20519253 -7.96250826 14.64483081 -11 15 C-9.72163055 10.1534345 -8.00800748 7.55040706 -4.375 4.125 C-3.55773438 3.34382813 -2.74046875 2.56265625 -1.8984375 1.7578125 C-1.27195312 1.17773438 -0.64546875 0.59765625 0 0 Z " fill="#B430F1" transform="translate(39,23)"/>
<path d="M0 0 C6.875 0.875 6.875 0.875 8 2 C8.4610052 8.22357019 8.4610052 8.22357019 6.8125 11 C5 12 5 12 0 11 C0 7.37 0 3.74 0 0 Z " fill="#FEFDFC" transform="translate(1029,525)"/>
<path d="M0 0 C6.875 0.875 6.875 0.875 8 2 C8.4610052 8.22357019 8.4610052 8.22357019 6.8125 11 C5 12 5 12 0 11 C0 7.37 0 3.74 0 0 Z " fill="#FEFDFC" transform="translate(1009,525)"/>
<path d="M0 0 C2.375 0.875 2.375 0.875 4.375 2.875 C4.375 3.865 4.375 4.855 4.375 5.875 C1.405 5.875 -1.565 5.875 -4.625 5.875 C-3.965 7.195 -3.305 8.515 -2.625 9.875 C-0.645 9.875 1.335 9.875 3.375 9.875 C2.715 11.195 2.055 12.515 1.375 13.875 C-1.5 13.5625 -1.5 13.5625 -4.625 12.875 C-6.95249345 9.38375983 -7.12799316 7.98277749 -6.625 3.875 C-4.55425273 0.88392061 -3.70318945 -0.17634235 0 0 Z " fill="#2B0430" transform="translate(187.625,34.125)"/>
<path d="M0 0 C0.99 0.33 1.98 0.66 3 1 C1.46356148 4.68069887 -0.78150945 6.98775204 -3.625 9.75 C-4.44226562 10.54921875 -5.25953125 11.3484375 -6.1015625 12.171875 C-6.72804688 12.77515625 -7.35453125 13.3784375 -8 14 C-10.8346559 12.62952586 -13.05159174 11.53293074 -15 9 C-15 7.68 -15 6.36 -15 5 C-14.13375 5.495 -14.13375 5.495 -13.25 6 C-10.80116138 7.27075898 -10.80116138 7.27075898 -7 7 C-5.00659722 5.48983928 -5.00659722 5.48983928 -3.25 3.5 C-2.63640625 2.8503125 -2.0228125 2.200625 -1.390625 1.53125 C-0.93171875 1.0259375 -0.4728125 0.520625 0 0 Z " fill="#B42DF1" transform="translate(1062,28)"/>
<path d="M0 0 C0.66 0.33 1.32 0.66 2 1 C2 3.31 2 5.62 2 8 C1.01 8.495 1.01 8.495 0 9 C0.33 9.66 0.66 10.32 1 11 C-1.875 11.125 -1.875 11.125 -5 11 C-7 9 -7 9 -7.375 6.5625 C-7 4 -7 4 -5.1875 2.25 C-3 1 -3 1 0 0 Z " fill="#CCC8C9" transform="translate(1070,529)"/>
<path d="M0 0 C2.32749345 3.49124017 2.50299316 4.89222251 2 9 C0.02113939 11.78506308 -1.15932233 12.81084752 -4.5 13.5625 C-7 13 -7 13 -9.375 10.875 C-11 8 -11 8 -10.9375 4.875 C-8.87468687 -1.45096026 -6.342585 -1.61447618 0 0 Z M-6 0 C-6.66 0.66 -7.32 1.32 -8 2 C-8.02308597 4.22128555 -8.02308597 4.22128555 -7.625 6.625 C-7.51414063 7.44226563 -7.40328125 8.25953125 -7.2890625 9.1015625 C-7.19367188 9.72804688 -7.09828125 10.35453125 -7 11 C-5.34385343 11.38218767 -3.67542976 11.71395102 -2 12 C-0.41105928 10.41105928 -0.83001589 8.75198576 -0.8125 6.5625 C-0.79123047 5.35787109 -0.79123047 5.35787109 -0.76953125 4.12890625 C-0.79837644 1.78369367 -0.79837644 1.78369367 -3 0 C-3.99 0 -4.98 0 -6 0 Z " fill="#2F052F" transform="translate(168,35)"/>
<path d="M0 0 C0.33 0 0.66 0 1 0 C1.08082094 1.95766281 1.13910778 3.91626728 1.1875 5.875 C1.23970703 7.51082031 1.23970703 7.51082031 1.29296875 9.1796875 C1.19628906 10.11039063 1.09960938 11.04109375 1 12 C0.01 12.66 -0.98 13.32 -2 14 C-1.67 14.99 -1.34 15.98 -1 17 C1.50447516 18.21869929 1.50447516 18.21869929 4 19 C1.31478577 20.05424115 0.2933336 20.12687274 -2.40234375 18.9609375 C-7.14309693 15.9952275 -11.28465683 13.19474229 -15 9 C-15.33 8.67 -15.66 8.34 -16 8 C-16.04080783 6.00041636 -16.04254356 3.99954746 -16 2 C-15.67 2 -15.34 2 -15 2 C-14.9071875 3.0828125 -14.9071875 3.0828125 -14.8125 4.1875 C-13.7140129 7.98995534 -12.10567268 9.58447681 -9 12 C-5.87237733 12.58442963 -5.87237733 12.58442963 -3 12 C-0.50494038 9.50494038 -0.64051624 8.32671112 -0.375 4.875 C-0.30023438 3.96492188 -0.22546875 3.05484375 -0.1484375 2.1171875 C-0.09945312 1.41851562 -0.05046875 0.71984375 0 0 Z " fill="#310523" transform="translate(78,34)"/>
<path d="M0 0 C1.37478516 0.01740234 1.37478516 0.01740234 2.77734375 0.03515625 C3.69644531 0.04417969 4.61554687 0.05320313 5.5625 0.0625 C6.27277344 0.07410156 6.98304688 0.08570313 7.71484375 0.09765625 C6.77893871 1.20317515 5.84104517 2.30701078 4.90234375 3.41015625 C4.11923828 4.33248047 4.11923828 4.33248047 3.3203125 5.2734375 C0.37753355 8.61717903 0.37753355 8.61717903 -1.28515625 10.09765625 C-1.94515625 10.09765625 -2.60515625 10.09765625 -3.28515625 10.09765625 C-3.31204841 8.61858733 -3.33150246 7.13938142 -3.34765625 5.66015625 C-3.35925781 4.83644531 -3.37085938 4.01273438 -3.3828125 3.1640625 C-3.24381204 0.22281267 -2.9444484 0.12583113 0 0 Z " fill="#F4E2FD" transform="translate(965.28515625,41.90234375)"/>
<path d="M0 0 C1.0725 0.2475 2.145 0.495 3.25 0.75 C3.25 1.74 3.25 2.73 3.25 3.75 C2.26 3.42 1.27 3.09 0.25 2.75 C0.25 2.09 0.25 1.43 0.25 0.75 C-1.73 1.74 -1.73 1.74 -3.75 2.75 C-3.75 5.06 -3.75 7.37 -3.75 9.75 C-2.821875 9.9665625 -2.821875 9.9665625 -1.875 10.1875 C0.25 10.75 0.25 10.75 2.25 11.75 C1.59 12.41 0.93 13.07 0.25 13.75 C-2.47825177 13.54013448 -4.26896341 13.0651619 -6.5625 11.5625 C-8.35972017 8.81937448 -8.20774125 6.95418874 -7.75 3.75 C-5.37104522 0.03883055 -4.45561458 -0.29704097 0 0 Z " fill="#330641" transform="translate(114.75,34.25)"/>
<path d="M0 0 C1.65 0 3.3 0 5 0 C5 3.96 5 7.92 5 12 C6.32 12.33 7.64 12.66 9 13 C7.35 13.33 5.7 13.66 4 14 C1.79086 10.68629 1.77518447 9.6553979 1.875 5.8125 C1.89304687 4.91144531 1.91109375 4.01039062 1.9296875 3.08203125 C1.95289062 2.39496094 1.97609375 1.70789062 2 1 C1.34 0.67 0.68 0.34 0 0 Z " fill="#240634" transform="translate(83,34)"/>
<path d="M0 0 C1.134375 0.020625 2.26875 0.04125 3.4375 0.0625 C3.4375 1.7125 3.4375 3.3625 3.4375 5.0625 C3.004375 4.5675 2.57125 4.0725 2.125 3.5625 C0.44009517 1.73031808 0.44009517 1.73031808 -2.5625 2.0625 C-1.31703595 5.79889216 0.07154953 6.25006513 3.4375 8.0625 C3.1075 9.7125 2.7775 11.3625 2.4375 13.0625 C2.23125 12.485 2.025 11.9075 1.8125 11.3125 C-0.06000888 8.24839456 -2.53208519 6.90710032 -5.5625 5.0625 C-4.43693182 0.07784091 -4.43693182 0.07784091 0 0 Z " fill="#1A0218" transform="translate(199.5625,33.9375)"/>
<path d="M0 0 C1.65 0 3.3 0 5 0 C5.33 4.29 5.66 8.58 6 13 C4.68 13.33 3.36 13.66 2 14 C0.93328048 10.79984144 1.05154528 9.11455706 1.4375 5.8125 C1.53933594 4.91144531 1.64117187 4.01039062 1.74609375 3.08203125 C1.82988281 2.39496094 1.91367188 1.70789062 2 1 C1.34 0.67 0.68 0.34 0 0 Z " fill="#280738" transform="translate(91,34)"/>
<path d="M0 0 C0.103125 0.639375 0.20625 1.27875 0.3125 1.9375 C0.539375 2.618125 0.76625 3.29875 1 4 C1.99 4.33 2.98 4.66 4 5 C3.01 5 2.02 5 1 5 C1 8.63 1 12.26 1 16 C1.99 16.33 2.98 16.66 4 17 C2.0625 17.5625 2.0625 17.5625 0 18 C-1 17 -1 17 -1.09765625 14.27734375 C-1.08605469 13.17519531 -1.07445312 12.07304688 -1.0625 10.9375 C-1.05347656 9.83277344 -1.04445312 8.72804688 -1.03515625 7.58984375 C-1.02355469 6.73519531 -1.01195312 5.88054688 -1 5 C-1.66 4.67 -2.32 4.34 -3 4 C-2.01 2.68 -1.02 1.36 0 0 Z " fill="#210126" transform="translate(175,30)"/>
<path d="M0 0 C0.66 0 1.32 0 2 0 C2.99 2.97 3.98 5.94 5 9 C2.36 9 -0.28 9 -3 9 C-2.01 6.03 -1.02 3.06 0 0 Z " fill="#F8F9F9" transform="translate(988,519)"/>
<path d="M0 0 C3.10551666 3.10551666 3.81323934 4.89198233 5 9 C2.36 9 -0.28 9 -3 9 C-2.01 6.03 -1.02 3.06 0 0 Z " fill="#F7F9F9" transform="translate(914,519)"/>
<path d="M0 0 C2.3125 -0.25 2.3125 -0.25 5 0 C6.875 1.75 6.875 1.75 8 4 C7.6875 6.25 7.6875 6.25 7 8 C6.01 7.01 5.02 6.02 4 5 C4 9.29 4 13.58 4 18 C3.67 18 3.34 18 3 18 C2.92652344 16.30230469 2.92652344 16.30230469 2.8515625 14.5703125 C2.77653486 13.08851661 2.70098703 11.606747 2.625 10.125 C2.57859375 9.00544922 2.57859375 9.00544922 2.53125 7.86328125 C2.44356169 3.46526812 2.44356169 3.46526812 0 0 Z " fill="#3D060D" transform="translate(135,28)"/>
<path d="M0 0 C0.04898438 0.84304687 0.09796875 1.68609375 0.1484375 2.5546875 C0.22320312 3.65039062 0.29796875 4.74609375 0.375 5.875 C0.44460937 6.96554688 0.51421875 8.05609375 0.5859375 9.1796875 C0.73253491 12.13046474 0.73253491 12.13046474 3 14 C0.69 14 -1.62 14 -4 14 C-3.34 13.67 -2.68 13.34 -2 13 C-2 9.37 -2 5.74 -2 2 C-2.66 1.67 -3.32 1.34 -4 1 C-1 0 -1 0 0 0 Z " fill="#28030C" transform="translate(103,34)"/>
<path d="M0 0 C3.41099168 0 6.63088314 0.49145406 10 1 C9.67 2.32 9.34 3.64 9 5 C8.071875 4.835 7.14375 4.67 6.1875 4.5 C3.04378647 3.92251612 3.04378647 3.92251612 0 4 C0 2.68 0 1.36 0 0 Z " fill="#CECCD0" transform="translate(1160,522)"/>
<path d="M0 0 C0.2475 1.27875 0.495 2.5575 0.75 3.875 C1.51990586 7.26747318 1.51990586 7.26747318 4.125 9.5 C4.74375 9.665 5.3625 9.83 6 10 C3.75 10.3125 3.75 10.3125 1 10 C-1.3125 7.75 -1.3125 7.75 -3 5 C-3 3.68 -3 2.36 -3 1 C-1 0 -1 0 0 0 Z " fill="#250429" transform="translate(160,38)"/>
<path d="M0 0 C0 1.98 0 3.96 0 6 C-1.32 6.33 -2.64 6.66 -4 7 C-4.33 5.35 -4.66 3.7 -5 2 C-1.125 0 -1.125 0 0 0 Z " fill="#FAFCF6" transform="translate(1072,531)"/>
<path d="M0 0 C1.65 0.33 3.3 0.66 5 1 C5.33 1.99 5.66 2.98 6 4 C3.36 4 0.72 4 -2 4 C-1.34 2.68 -0.68 1.36 0 0 Z " fill="#FCFDFA" transform="translate(1177,525)"/>
<path d="M0 0 C1.65 0.33 3.3 0.66 5 1 C5.33 1.99 5.66 2.98 6 4 C3.36 4 0.72 4 -2 4 C-1.34 2.68 -0.68 1.36 0 0 Z " fill="#FCFDFA" transform="translate(1143,525)"/>
<path d="M0 0 C0 0.99 0 1.98 0 3 C-2.64 3 -5.28 3 -8 3 C-7.67 2.01 -7.34 1.02 -7 0 C-4.3333581 -1.33332095 -2.83319697 -0.67102033 0 0 Z " fill="#FAFCFC" transform="translate(1056,526)"/>
<path d="M0 0 C1.65 0.33 3.3 0.66 5 1 C5.33 1.99 5.66 2.98 6 4 C3.36 4 0.72 4 -2 4 C-1.34 2.68 -0.68 1.36 0 0 Z " fill="#FAFCFD" transform="translate(802,525)"/>
<path d="M0 0 C1.98 0.495 1.98 0.495 4 1 C4.33 2.65 4.66 4.3 5 6 C2.525 5.01 2.525 5.01 0 4 C0 2.68 0 1.36 0 0 Z " fill="#9917E2" transform="translate(197,35)"/>
<path d="M0 0 C0.33 0 0.66 0 1 0 C1.0928125 1.0828125 1.0928125 1.0828125 1.1875 2.1875 C2.24665507 5.85380599 4.23474962 7.44214339 7 10 C7.33 10.66 7.66 11.32 8 12 C4.12812449 10.74425659 1.93162483 9.65992073 0 6 C-0.1875 2.75 -0.1875 2.75 0 0 Z " fill="#47072B" transform="translate(62,36)"/>
<path d="M0 0 C4.75 0.75 4.75 0.75 7 3 C7 3.99 7 4.98 7 6 C4.03 6 1.06 6 -2 6 C-2 5.67 -2 5.34 -2 5 C-0.02 5 1.96 5 4 5 C3.24849977 1.72226496 3.24849977 1.72226496 0 0 Z " fill="#120111" transform="translate(185,34)"/>
<path d="M0 0 C1.32 0.66 2.64 1.32 4 2 C3.34 3.32 2.68 4.64 2 6 C1.34 6 0.68 6 0 6 C0 5.34 0 4.68 0 4 C-0.66 4 -1.32 4 -2 4 C-1.34 2.68 -0.68 1.36 0 0 Z " fill="#B83DF2" transform="translate(45,17)"/>
<path d="M0 0 C0.556875 0.33 1.11375 0.66 1.6875 1 C4.30284522 2.1309601 6.1806646 2.15662974 9 2 C8.01 3.485 8.01 3.485 7 5 C4.625 4.75 4.625 4.75 2 4 C0.6875 1.9375 0.6875 1.9375 0 0 Z " fill="#170218" transform="translate(108,43)"/>
<path d="M0 0 C1.32 0.33 2.64 0.66 4 1 C4 1.99 4 2.98 4 4 C2.02 4 0.04 4 -2 4 C-1.34 2.68 -0.68 1.36 0 0 Z " fill="#A218E2" transform="translate(185,35)"/>
<path d="M0 0 C1.134375 0.020625 2.26875 0.04125 3.4375 0.0625 C3.4375 1.7125 3.4375 3.3625 3.4375 5.0625 C3.025 4.546875 2.6125 4.03125 2.1875 3.5 C0.54668135 1.80923571 0.54668135 1.80923571 -1.625 2.25 C-3.74962526 2.99720336 -3.74962526 2.99720336 -5.5625 5.0625 C-4.43693182 0.07784091 -4.43693182 0.07784091 0 0 Z " fill="#480A64" transform="translate(199.5625,33.9375)"/>
<path d="M0 0 C2.12508244 3.18762365 2.5020163 5.26512223 3 9 C-1 4.375 -1 4.375 -1 1 C-0.67 0.67 -0.34 0.34 0 0 Z " fill="#2E042E" transform="translate(127,38)"/>
<path d="M0 0 C1.32 1.32 2.64 2.64 4 4 C3.67 4.99 3.34 5.98 3 7 C2.01 6.67 1.02 6.34 0 6 C0 4.02 0 2.04 0 0 Z " fill="#A617D3" transform="translate(125,41)"/>
</svg>
